<?xml version="1.0" encoding="utf-8"?>
<svg xmlns="http://www.w3.org/2000/svg" xmlns:xlink="http://www.w3.org/1999/xlink" width="600" height="400" viewBox="0 0 2400 1600">
<defs>
  <clipPath id="clip030">
    <rect x="0" y="0" width="2400" height="1600"/>
  </clipPath>
</defs>
<path clip-path="url(#clip030)" d="M0 1600 L2400 1600 L2400 0 L0 0  Z" fill="#ffffff" fill-rule="evenodd" fill-opacity="1"/>
<defs>
  <clipPath id="clip031">
    <rect x="480" y="0" width="1681" height="1600"/>
  </clipPath>
</defs>
<path clip-path="url(#clip030)" d="M240.069 1423.18 L993.153 1423.18 L993.153 47.2441 L240.069 47.2441  Z" fill="#ffffff" fill-rule="evenodd" fill-opacity="1"/>
<defs>
  <clipPath id="clip032">
    <rect x="240" y="47" width="754" height="1377"/>
  </clipPath>
</defs>
<polyline clip-path="url(#clip032)" style="stroke:#000000; stroke-linecap:round; stroke-linejoin:round; stroke-width:2; stroke-opacity:0.1; fill:none" points="261.383,1423.18 261.383,47.2441 "/>
<polyline clip-path="url(#clip032)" style="stroke:#000000; stroke-linecap:round; stroke-linejoin:round; stroke-width:2; stroke-opacity:0.1; fill:none" points="458.732,1423.18 458.732,47.2441 "/>
<polyline clip-path="url(#clip032)" style="stroke:#000000; stroke-linecap:round; stroke-linejoin:round; stroke-width:2; stroke-opacity:0.1; fill:none" points="656.081,1423.18 656.081,47.2441 "/>
<polyline clip-path="url(#clip032)" style="stroke:#000000; stroke-linecap:round; stroke-linejoin:round; stroke-width:2; stroke-opacity:0.1; fill:none" points="853.43,1423.18 853.43,47.2441 "/>
<polyline clip-path="url(#clip032)" style="stroke:#000000; stroke-linecap:round; stroke-linejoin:round; stroke-width:2; stroke-opacity:0.1; fill:none" points="240.069,1384.24 993.153,1384.24 "/>
<polyline clip-path="url(#clip032)" style="stroke:#000000; stroke-linecap:round; stroke-linejoin:round; stroke-width:2; stroke-opacity:0.1; fill:none" points="240.069,1129.28 993.153,1129.28 "/>
<polyline clip-path="url(#clip032)" style="stroke:#000000; stroke-linecap:round; stroke-linejoin:round; stroke-width:2; stroke-opacity:0.1; fill:none" points="240.069,874.315 993.153,874.315 "/>
<polyline clip-path="url(#clip032)" style="stroke:#000000; stroke-linecap:round; stroke-linejoin:round; stroke-width:2; stroke-opacity:0.1; fill:none" points="240.069,619.353 993.153,619.353 "/>
<polyline clip-path="url(#clip032)" style="stroke:#000000; stroke-linecap:round; stroke-linejoin:round; stroke-width:2; stroke-opacity:0.1; fill:none" points="240.069,364.392 993.153,364.392 "/>
<polyline clip-path="url(#clip032)" style="stroke:#000000; stroke-linecap:round; stroke-linejoin:round; stroke-width:2; stroke-opacity:0.1; fill:none" points="240.069,109.43 993.153,109.43 "/>
<polyline clip-path="url(#clip030)" style="stroke:#000000; stroke-linecap:round; stroke-linejoin:round; stroke-width:4; stroke-opacity:1; fill:none" points="240.069,1423.18 993.153,1423.18 "/>
<polyline clip-path="url(#clip030)" style="stroke:#000000; stroke-linecap:round; stroke-linejoin:round; stroke-width:4; stroke-opacity:1; fill:none" points="261.383,1423.18 261.383,1404.28 "/>
<polyline clip-path="url(#clip030)" style="stroke:#000000; stroke-linecap:round; stroke-linejoin:round; stroke-width:4; stroke-opacity:1; fill:none" points="458.732,1423.18 458.732,1404.28 "/>
<polyline clip-path="url(#clip030)" style="stroke:#000000; stroke-linecap:round; stroke-linejoin:round; stroke-width:4; stroke-opacity:1; fill:none" points="656.081,1423.18 656.081,1404.28 "/>
<polyline clip-path="url(#clip030)" style="stroke:#000000; stroke-linecap:round; stroke-linejoin:round; stroke-width:4; stroke-opacity:1; fill:none" points="853.43,1423.18 853.43,1404.28 "/>
<path clip-path="url(#clip030)" d="M231.059 1469.4 Q231.059 1461.96 232.937 1457.91 Q235.555 1451.88 241.731 1451.88 Q243.04 1451.88 244.399 1452.26 Q245.782 1452.6 247.512 1453.96 Q249.266 1455.32 250.328 1457.54 Q252.353 1461.84 252.353 1469.4 Q252.353 1476.79 250.476 1480.81 Q247.734 1486.69 241.682 1486.69 Q239.409 1486.69 237.087 1485.53 Q234.789 1484.37 233.332 1481.58 Q231.059 1477.4 231.059 1469.4 M235.259 1468.78 Q235.259 1476.41 235.802 1479.45 Q236.42 1482.74 238.1 1484.17 Q239.804 1485.58 241.682 1485.58 Q243.707 1485.58 245.387 1484.07 Q247.092 1482.54 247.61 1479.26 Q248.179 1476.02 248.154 1468.78 Q248.154 1461.74 247.66 1458.92 Q246.993 1455.64 245.214 1454.33 Q243.46 1453 241.682 1453 Q241.015 1453 240.298 1453.19 Q239.607 1453.39 238.594 1453.96 Q237.581 1454.53 236.79 1455.94 Q236.025 1457.34 235.654 1459.47 Q235.259 1462.21 235.259 1468.78 Z" fill="#000000" fill-rule="nonzero" fill-opacity="1" /><path clip-path="url(#clip030)" d="M259.443 1484.76 Q258.678 1483.95 258.678 1482.89 Q258.678 1481.82 259.443 1481.06 Q260.209 1480.27 261.37 1480.27 Q262.482 1480.27 263.223 1481.01 Q263.989 1481.73 263.989 1482.91 Q263.989 1484.07 263.174 1484.84 Q262.383 1485.58 261.37 1485.58 Q260.209 1485.58 259.443 1484.76 Z" fill="#000000" fill-rule="nonzero" fill-opacity="1" /><path clip-path="url(#clip030)" d="M270.412 1469.4 Q270.412 1461.96 272.289 1457.91 Q274.908 1451.88 281.083 1451.88 Q282.393 1451.88 283.751 1452.26 Q285.135 1452.6 286.864 1453.96 Q288.618 1455.32 289.68 1457.54 Q291.706 1461.84 291.706 1469.4 Q291.706 1476.79 289.828 1480.81 Q287.086 1486.69 281.034 1486.69 Q278.761 1486.69 276.439 1485.53 Q274.142 1484.37 272.684 1481.58 Q270.412 1477.4 270.412 1469.4 M274.611 1468.78 Q274.611 1476.41 275.155 1479.45 Q275.772 1482.74 277.452 1484.17 Q279.157 1485.58 281.034 1485.58 Q283.06 1485.58 284.74 1484.07 Q286.444 1482.54 286.963 1479.26 Q287.531 1476.02 287.506 1468.78 Q287.506 1461.74 287.012 1458.92 Q286.345 1455.64 284.567 1454.33 Q282.813 1453 281.034 1453 Q280.367 1453 279.651 1453.19 Q278.959 1453.39 277.946 1453.96 Q276.933 1454.53 276.143 1455.94 Q275.377 1457.34 275.006 1459.47 Q274.611 1462.21 274.611 1468.78 Z" fill="#000000" fill-rule="nonzero" fill-opacity="1" /><path clip-path="url(#clip030)" d="M428.68 1469.4 Q428.68 1461.96 430.557 1457.91 Q433.176 1451.88 439.352 1451.88 Q440.661 1451.88 442.02 1452.26 Q443.403 1452.6 445.132 1453.96 Q446.886 1455.32 447.949 1457.54 Q449.974 1461.84 449.974 1469.4 Q449.974 1476.79 448.097 1480.81 Q445.355 1486.69 439.302 1486.69 Q437.03 1486.69 434.708 1485.53 Q432.41 1484.37 430.953 1481.58 Q428.68 1477.4 428.68 1469.4 M432.88 1468.78 Q432.88 1476.41 433.423 1479.45 Q434.041 1482.74 435.72 1484.17 Q437.425 1485.58 439.302 1485.58 Q441.328 1485.58 443.008 1484.07 Q444.712 1482.54 445.231 1479.26 Q445.799 1476.02 445.775 1468.78 Q445.775 1461.74 445.281 1458.92 Q444.614 1455.64 442.835 1454.33 Q441.081 1453 439.302 1453 Q438.635 1453 437.919 1453.19 Q437.227 1453.39 436.214 1453.96 Q435.202 1454.53 434.411 1455.94 Q433.645 1457.34 433.275 1459.47 Q432.88 1462.21 432.88 1468.78 Z" fill="#000000" fill-rule="nonzero" fill-opacity="1" /><path clip-path="url(#clip030)" d="M457.064 1484.76 Q456.298 1483.95 456.298 1482.89 Q456.298 1481.82 457.064 1481.06 Q457.83 1480.27 458.991 1480.27 Q460.103 1480.27 460.844 1481.01 Q461.61 1481.73 461.61 1482.91 Q461.61 1484.07 460.794 1484.84 Q460.004 1485.58 458.991 1485.58 Q457.83 1485.58 457.064 1484.76 Z" fill="#000000" fill-rule="nonzero" fill-opacity="1" /><path clip-path="url(#clip030)" d="M468.576 1477.43 Q468.576 1475.92 469.391 1475.35 Q470.206 1474.76 471.071 1474.76 Q472.232 1474.76 472.899 1475.5 Q473.591 1476.22 473.591 1477.23 Q473.591 1478.24 472.899 1478.98 Q472.232 1479.7 471.071 1479.7 Q470.503 1479.7 470.206 1479.6 Q470.873 1481.92 472.899 1483.6 Q474.949 1485.28 477.642 1485.28 Q481.026 1485.28 483.052 1482 Q484.263 1479.87 484.263 1475.06 Q484.263 1470.81 483.348 1468.68 Q481.94 1465.45 479.05 1465.45 Q474.949 1465.45 472.528 1468.98 Q472.232 1469.42 471.886 1469.45 Q471.392 1469.45 471.269 1469.18 Q471.17 1468.88 471.17 1468.11 L471.17 1453.14 Q471.17 1451.93 471.664 1451.93 Q471.861 1451.93 472.281 1452.08 Q475.468 1453.49 479.001 1453.51 Q482.632 1453.51 485.893 1452.03 Q486.14 1451.88 486.288 1451.88 Q486.782 1451.88 486.807 1452.45 Q486.807 1452.65 486.387 1453.24 Q485.992 1453.81 485.127 1454.58 Q484.263 1455.32 483.151 1456.03 Q482.039 1456.75 480.409 1457.25 Q478.803 1457.71 477.024 1457.71 Q474.9 1457.71 472.726 1457.05 L472.726 1466.9 Q475.345 1464.33 479.149 1464.33 Q483.2 1464.33 485.992 1467.6 Q488.783 1470.86 488.783 1475.4 Q488.783 1480.17 485.473 1483.43 Q482.187 1486.69 477.741 1486.69 Q473.689 1486.69 471.12 1483.8 Q468.576 1480.91 468.576 1477.43 Z" fill="#000000" fill-rule="nonzero" fill-opacity="1" /><path clip-path="url(#clip030)" d="M627.017 1456.7 L627.017 1455.12 Q633.094 1455.12 636.232 1451.88 Q637.096 1451.88 637.244 1452.08 Q637.393 1452.28 637.393 1453.19 L637.393 1481.58 Q637.393 1483.08 638.134 1483.55 Q638.875 1484.02 642.111 1484.02 L643.717 1484.02 L643.717 1485.58 Q641.938 1485.43 635.515 1485.43 Q629.092 1485.43 627.338 1485.58 L627.338 1484.02 L628.944 1484.02 Q632.131 1484.02 632.897 1483.58 Q633.662 1483.11 633.662 1481.58 L633.662 1455.37 Q631.019 1456.7 627.017 1456.7 Z" fill="#000000" fill-rule="nonzero" fill-opacity="1" /><path clip-path="url(#clip030)" d="M652.882 1484.76 Q652.116 1483.95 652.116 1482.89 Q652.116 1481.82 652.882 1481.06 Q653.647 1480.27 654.808 1480.27 Q655.92 1480.27 656.661 1481.01 Q657.427 1481.73 657.427 1482.91 Q657.427 1484.07 656.612 1484.84 Q655.821 1485.58 654.808 1485.58 Q653.647 1485.58 652.882 1484.76 Z" fill="#000000" fill-rule="nonzero" fill-opacity="1" /><path clip-path="url(#clip030)" d="M663.85 1469.4 Q663.85 1461.96 665.727 1457.91 Q668.346 1451.88 674.522 1451.88 Q675.831 1451.88 677.19 1452.26 Q678.573 1452.6 680.302 1453.96 Q682.056 1455.32 683.118 1457.54 Q685.144 1461.84 685.144 1469.4 Q685.144 1476.79 683.267 1480.81 Q680.525 1486.69 674.472 1486.69 Q672.2 1486.69 669.877 1485.53 Q667.58 1484.37 666.123 1481.58 Q663.85 1477.4 663.85 1469.4 M668.049 1468.78 Q668.049 1476.41 668.593 1479.45 Q669.21 1482.74 670.89 1484.17 Q672.595 1485.58 674.472 1485.58 Q676.498 1485.58 678.178 1484.07 Q679.882 1482.54 680.401 1479.26 Q680.969 1476.02 680.945 1468.78 Q680.945 1461.74 680.451 1458.92 Q679.784 1455.64 678.005 1454.33 Q676.251 1453 674.472 1453 Q673.805 1453 673.089 1453.19 Q672.397 1453.39 671.384 1453.96 Q670.372 1454.53 669.581 1455.94 Q668.815 1457.34 668.445 1459.47 Q668.049 1462.21 668.049 1468.78 Z" fill="#000000" fill-rule="nonzero" fill-opacity="1" /><path clip-path="url(#clip030)" d="M824.638 1456.7 L824.638 1455.12 Q830.715 1455.12 833.852 1451.88 Q834.717 1451.88 834.865 1452.08 Q835.013 1452.28 835.013 1453.19 L835.013 1481.58 Q835.013 1483.08 835.754 1483.55 Q836.496 1484.02 839.732 1484.02 L841.337 1484.02 L841.337 1485.58 Q839.559 1485.43 833.136 1485.43 Q826.713 1485.43 824.959 1485.58 L824.959 1484.02 L826.565 1484.02 Q829.752 1484.02 830.517 1483.58 Q831.283 1483.11 831.283 1481.58 L831.283 1455.37 Q828.64 1456.7 824.638 1456.7 Z" fill="#000000" fill-rule="nonzero" fill-opacity="1" /><path clip-path="url(#clip030)" d="M850.502 1484.76 Q849.737 1483.95 849.737 1482.89 Q849.737 1481.82 850.502 1481.06 Q851.268 1480.27 852.429 1480.27 Q853.541 1480.27 854.282 1481.01 Q855.048 1481.73 855.048 1482.91 Q855.048 1484.07 854.233 1484.84 Q853.442 1485.58 852.429 1485.58 Q851.268 1485.58 850.502 1484.76 Z" fill="#000000" fill-rule="nonzero" fill-opacity="1" /><path clip-path="url(#clip030)" d="M862.014 1477.43 Q862.014 1475.92 862.829 1475.35 Q863.645 1474.76 864.509 1474.76 Q865.67 1474.76 866.337 1475.5 Q867.029 1476.22 867.029 1477.23 Q867.029 1478.24 866.337 1478.98 Q865.67 1479.7 864.509 1479.7 Q863.941 1479.7 863.645 1479.6 Q864.312 1481.92 866.337 1483.6 Q868.388 1485.28 871.08 1485.28 Q874.465 1485.28 876.49 1482 Q877.701 1479.87 877.701 1475.06 Q877.701 1470.81 876.787 1468.68 Q875.379 1465.45 872.488 1465.45 Q868.388 1465.45 865.967 1468.98 Q865.67 1469.42 865.324 1469.45 Q864.83 1469.45 864.707 1469.18 Q864.608 1468.88 864.608 1468.11 L864.608 1453.14 Q864.608 1451.93 865.102 1451.93 Q865.3 1451.93 865.72 1452.08 Q868.906 1453.49 872.439 1453.51 Q876.07 1453.51 879.331 1452.03 Q879.578 1451.88 879.726 1451.88 Q880.221 1451.88 880.245 1452.45 Q880.245 1452.65 879.825 1453.24 Q879.43 1453.81 878.565 1454.58 Q877.701 1455.32 876.589 1456.03 Q875.477 1456.75 873.847 1457.25 Q872.241 1457.71 870.463 1457.71 Q868.338 1457.71 866.164 1457.05 L866.164 1466.9 Q868.783 1464.33 872.587 1464.33 Q876.639 1464.33 879.43 1467.6 Q882.221 1470.86 882.221 1475.4 Q882.221 1480.17 878.911 1483.43 Q875.626 1486.69 871.179 1486.69 Q867.128 1486.69 864.559 1483.8 Q862.014 1480.91 862.014 1477.43 Z" fill="#000000" fill-rule="nonzero" fill-opacity="1" /><path clip-path="url(#clip030)" d="M576.068 1551.5 L577.71 1551.5 Q578.644 1555.98 579.095 1556.66 Q579.739 1557.78 582.541 1557.91 Q583.121 1557.91 584.119 1557.91 L588.532 1557.91 Q587.726 1554.89 585.697 1551.41 Q583.668 1547.9 581.736 1545.29 Q579.836 1542.68 578.322 1539.14 Q576.809 1535.56 576.809 1532.18 Q576.809 1525.45 582.606 1520.59 Q588.403 1515.69 596.905 1515.69 Q605.407 1515.69 611.237 1520.55 Q617.098 1525.38 617.098 1532.18 Q617.098 1535.53 615.584 1539.07 Q614.071 1542.61 612.171 1545.22 Q610.303 1547.83 608.209 1551.37 Q606.148 1554.89 605.343 1557.91 L609.852 1557.91 Q613.555 1557.91 614.296 1557.24 Q615.037 1556.53 615.842 1552.82 Q615.971 1551.95 616.1 1551.5 L617.807 1551.5 L615.649 1562.2 L605.085 1562.2 Q604.216 1562.2 603.829 1561.94 Q603.443 1561.68 603.443 1560.75 Q603.443 1556.27 606.857 1546.64 Q610.303 1537.01 610.303 1532.18 Q610.303 1525 606.213 1521.07 Q602.122 1517.14 596.905 1517.14 Q591.752 1517.14 587.662 1521.04 Q583.604 1524.93 583.604 1532.18 Q583.604 1537.08 587.018 1546.67 Q590.464 1556.27 590.464 1560.68 Q590.464 1561.75 590.045 1561.97 Q589.659 1562.2 588.338 1562.2 L578.258 1562.2 L576.068 1551.5 Z" fill="#000000" fill-rule="nonzero" fill-opacity="1" /><path clip-path="url(#clip030)" d="M654.615 1517.14 L645.114 1555.27 Q644.727 1556.98 644.727 1558.43 Q644.727 1561.46 646.692 1561.46 Q647.658 1561.46 648.431 1560.84 Q649.204 1560.23 649.816 1558.94 Q650.428 1557.65 650.814 1556.46 Q651.201 1555.24 651.716 1553.31 Q651.877 1552.53 652.006 1552.34 Q652.167 1552.12 652.618 1552.12 Q653.423 1552.12 653.423 1552.76 Q652.553 1556.91 651.426 1559.3 Q649.623 1562.94 646.563 1562.94 Q644.244 1562.94 642.602 1561.52 Q640.959 1560.1 640.573 1557.98 Q636.354 1562.94 631.974 1562.94 Q628.109 1562.94 625.661 1560.01 Q623.214 1557.04 623.214 1552.37 Q623.214 1547.67 625.533 1543.16 Q627.884 1538.65 631.587 1535.85 Q635.291 1533.05 639.091 1533.05 Q643.117 1533.05 645.178 1537.27 L649.14 1521.62 L649.333 1520.33 Q649.333 1519.94 649.172 1519.75 Q649.043 1519.52 648.27 1519.36 Q647.529 1519.2 646.048 1519.2 Q645.436 1519.2 645.146 1519.17 Q644.888 1519.14 644.663 1518.98 Q644.437 1518.78 644.437 1518.4 Q644.437 1517.27 645.371 1517.14 Q651.555 1516.43 653.745 1516.43 Q654.131 1516.43 654.357 1516.62 Q654.582 1516.79 654.582 1516.98 L654.615 1517.14 M644.373 1540.3 Q644.373 1540.01 644.148 1539.2 Q643.922 1538.4 643.407 1537.27 Q642.892 1536.14 641.764 1535.34 Q640.669 1534.5 639.188 1534.5 Q637.191 1534.5 635.098 1536.21 Q633.037 1537.91 631.523 1540.81 Q630.364 1543.13 629.108 1547.99 Q627.884 1552.86 627.884 1555.27 Q627.884 1556.75 628.206 1558.07 Q628.56 1559.36 629.558 1560.42 Q630.557 1561.46 632.103 1561.46 Q635.871 1561.46 639.574 1556.79 Q640.283 1555.98 640.444 1555.66 Q640.637 1555.3 640.895 1554.34 L644.18 1541.42 Q644.373 1540.46 644.373 1540.3 Z" fill="#000000" fill-rule="nonzero" fill-opacity="1" /><polyline clip-path="url(#clip030)" style="stroke:#000000; stroke-linecap:round; stroke-linejoin:round; stroke-width:4; stroke-opacity:1; fill:none" points="240.069,1423.18 240.069,47.2441 "/>
<polyline clip-path="url(#clip030)" style="stroke:#000000; stroke-linecap:round; stroke-linejoin:round; stroke-width:4; stroke-opacity:1; fill:none" points="240.069,1384.24 256.003,1384.24 "/>
<polyline clip-path="url(#clip030)" style="stroke:#000000; stroke-linecap:round; stroke-linejoin:round; stroke-width:4; stroke-opacity:1; fill:none" points="240.069,1129.28 256.003,1129.28 "/>
<polyline clip-path="url(#clip030)" style="stroke:#000000; stroke-linecap:round; stroke-linejoin:round; stroke-width:4; stroke-opacity:1; fill:none" points="240.069,874.315 256.003,874.315 "/>
<polyline clip-path="url(#clip030)" style="stroke:#000000; stroke-linecap:round; stroke-linejoin:round; stroke-width:4; stroke-opacity:1; fill:none" points="240.069,619.353 256.003,619.353 "/>
<polyline clip-path="url(#clip030)" style="stroke:#000000; stroke-linecap:round; stroke-linejoin:round; stroke-width:4; stroke-opacity:1; fill:none" points="240.069,364.392 256.003,364.392 "/>
<polyline clip-path="url(#clip030)" style="stroke:#000000; stroke-linecap:round; stroke-linejoin:round; stroke-width:4; stroke-opacity:1; fill:none" points="240.069,109.43 256.003,109.43 "/>
<path clip-path="url(#clip030)" d="M182.775 1385.34 Q182.775 1377.9 184.652 1373.85 Q187.271 1367.82 193.446 1367.82 Q194.756 1367.82 196.114 1368.19 Q197.498 1368.54 199.227 1369.9 Q200.981 1371.26 202.043 1373.48 Q204.069 1377.78 204.069 1385.34 Q204.069 1392.72 202.191 1396.75 Q199.449 1402.63 193.397 1402.63 Q191.124 1402.63 188.802 1401.47 Q186.505 1400.31 185.047 1397.52 Q182.775 1393.34 182.775 1385.34 M186.974 1384.72 Q186.974 1392.35 187.518 1395.39 Q188.135 1398.68 189.815 1400.11 Q191.52 1401.52 193.397 1401.52 Q195.423 1401.52 197.102 1400.01 Q198.807 1398.48 199.326 1395.19 Q199.894 1391.96 199.869 1384.72 Q199.869 1377.68 199.375 1374.86 Q198.708 1371.58 196.93 1370.27 Q195.176 1368.93 193.397 1368.93 Q192.73 1368.93 192.014 1369.13 Q191.322 1369.33 190.309 1369.9 Q189.296 1370.47 188.506 1371.87 Q187.74 1373.28 187.369 1375.41 Q186.974 1378.15 186.974 1384.72 Z" fill="#000000" fill-rule="nonzero" fill-opacity="1" /><path clip-path="url(#clip030)" d="M183.861 1138.4 Q183.861 1136.9 184.677 1136.33 Q185.492 1135.74 186.357 1135.74 Q187.518 1135.74 188.185 1136.48 Q188.876 1137.19 188.876 1138.21 Q188.876 1139.22 188.185 1139.96 Q187.518 1140.68 186.357 1140.68 Q185.788 1140.68 185.492 1140.58 Q186.159 1142.9 188.185 1144.58 Q190.235 1146.26 192.928 1146.26 Q196.312 1146.26 198.338 1142.97 Q199.548 1140.85 199.548 1136.03 Q199.548 1131.78 198.634 1129.66 Q197.226 1126.42 194.336 1126.42 Q190.235 1126.42 187.814 1129.96 Q187.518 1130.4 187.172 1130.43 Q186.678 1130.43 186.554 1130.15 Q186.455 1129.86 186.455 1129.09 L186.455 1114.12 Q186.455 1112.91 186.949 1112.91 Q187.147 1112.91 187.567 1113.06 Q190.754 1114.47 194.286 1114.49 Q197.918 1114.49 201.179 1113.01 Q201.426 1112.86 201.574 1112.86 Q202.068 1112.86 202.093 1113.43 Q202.093 1113.63 201.673 1114.22 Q201.277 1114.79 200.413 1115.55 Q199.548 1116.3 198.436 1117.01 Q197.325 1117.73 195.694 1118.22 Q194.089 1118.69 192.31 1118.69 Q190.186 1118.69 188.012 1118.02 L188.012 1127.88 Q190.63 1125.31 194.435 1125.31 Q198.486 1125.31 201.277 1128.57 Q204.069 1131.83 204.069 1136.38 Q204.069 1141.15 200.759 1144.41 Q197.473 1147.67 193.026 1147.67 Q188.975 1147.67 186.406 1144.78 Q183.861 1141.89 183.861 1138.4 Z" fill="#000000" fill-rule="nonzero" fill-opacity="1" /><path clip-path="url(#clip030)" d="M159.998 862.717 L159.998 861.136 Q166.075 861.136 169.212 857.9 Q170.077 857.9 170.225 858.097 Q170.373 858.295 170.373 859.209 L170.373 887.593 Q170.373 889.1 171.115 889.569 Q171.856 890.039 175.092 890.039 L176.698 890.039 L176.698 891.595 Q174.919 891.447 168.496 891.447 Q162.073 891.447 160.319 891.595 L160.319 890.039 L161.925 890.039 Q165.112 890.039 165.877 889.594 Q166.643 889.125 166.643 887.593 L166.643 861.383 Q164 862.717 159.998 862.717 Z" fill="#000000" fill-rule="nonzero" fill-opacity="1" /><path clip-path="url(#clip030)" d="M182.775 875.414 Q182.775 867.979 184.652 863.927 Q187.271 857.9 193.446 857.9 Q194.756 857.9 196.114 858.27 Q197.498 858.616 199.227 859.975 Q200.981 861.333 202.043 863.557 Q204.069 867.855 204.069 875.414 Q204.069 882.801 202.191 886.827 Q199.449 892.707 193.397 892.707 Q191.124 892.707 188.802 891.546 Q186.505 890.385 185.047 887.593 Q182.775 883.418 182.775 875.414 M186.974 874.797 Q186.974 882.43 187.518 885.469 Q188.135 888.754 189.815 890.187 Q191.52 891.595 193.397 891.595 Q195.423 891.595 197.102 890.088 Q198.807 888.557 199.326 885.271 Q199.894 882.035 199.869 874.797 Q199.869 867.756 199.375 864.94 Q198.708 861.655 196.93 860.345 Q195.176 859.011 193.397 859.011 Q192.73 859.011 192.014 859.209 Q191.322 859.407 190.309 859.975 Q189.296 860.543 188.506 861.951 Q187.74 863.359 187.369 865.484 Q186.974 868.226 186.974 874.797 Z" fill="#000000" fill-rule="nonzero" fill-opacity="1" /><path clip-path="url(#clip030)" d="M160.542 607.755 L160.542 606.174 Q166.619 606.174 169.756 602.938 Q170.62 602.938 170.769 603.136 Q170.917 603.333 170.917 604.247 L170.917 632.631 Q170.917 634.138 171.658 634.608 Q172.399 635.077 175.635 635.077 L177.241 635.077 L177.241 636.633 Q175.462 636.485 169.039 636.485 Q162.617 636.485 160.863 636.633 L160.863 635.077 L162.468 635.077 Q165.655 635.077 166.421 634.632 Q167.187 634.163 167.187 632.631 L167.187 606.421 Q164.543 607.755 160.542 607.755 Z" fill="#000000" fill-rule="nonzero" fill-opacity="1" /><path clip-path="url(#clip030)" d="M183.861 628.481 Q183.861 626.974 184.677 626.406 Q185.492 625.813 186.357 625.813 Q187.518 625.813 188.185 626.554 Q188.876 627.271 188.876 628.284 Q188.876 629.297 188.185 630.038 Q187.518 630.754 186.357 630.754 Q185.788 630.754 185.492 630.655 Q186.159 632.977 188.185 634.657 Q190.235 636.337 192.928 636.337 Q196.312 636.337 198.338 633.051 Q199.548 630.927 199.548 626.11 Q199.548 621.861 198.634 619.736 Q197.226 616.5 194.336 616.5 Q190.235 616.5 187.814 620.033 Q187.518 620.477 187.172 620.502 Q186.678 620.502 186.554 620.23 Q186.455 619.934 186.455 619.168 L186.455 604.198 Q186.455 602.987 186.949 602.987 Q187.147 602.987 187.567 603.136 Q190.754 604.544 194.286 604.568 Q197.918 604.568 201.179 603.086 Q201.426 602.938 201.574 602.938 Q202.068 602.938 202.093 603.506 Q202.093 603.704 201.673 604.297 Q201.277 604.865 200.413 605.631 Q199.548 606.372 198.436 607.088 Q197.325 607.805 195.694 608.299 Q194.089 608.768 192.31 608.768 Q190.186 608.768 188.012 608.101 L188.012 617.958 Q190.63 615.389 194.435 615.389 Q198.486 615.389 201.277 618.649 Q204.069 621.91 204.069 626.456 Q204.069 631.223 200.759 634.484 Q197.473 637.745 193.026 637.745 Q188.975 637.745 186.406 634.855 Q183.861 631.965 183.861 628.481 Z" fill="#000000" fill-rule="nonzero" fill-opacity="1" /><path clip-path="url(#clip030)" d="M158.022 381.672 Q158.022 380.758 158.096 380.486 Q158.195 380.214 158.59 379.794 L168.298 368.974 Q173.61 362.996 173.61 357.784 Q173.61 354.399 171.831 351.978 Q170.077 349.557 166.841 349.557 Q164.618 349.557 162.74 350.916 Q160.863 352.275 159.998 354.696 Q160.146 354.646 160.665 354.646 Q161.925 354.646 162.617 355.437 Q163.333 356.227 163.333 357.29 Q163.333 358.648 162.444 359.315 Q161.579 359.958 160.714 359.958 Q160.369 359.958 159.899 359.883 Q159.455 359.809 158.738 359.118 Q158.022 358.401 158.022 357.141 Q158.022 353.609 160.69 350.793 Q163.382 347.976 167.483 347.976 Q172.127 347.976 175.166 350.743 Q178.229 353.485 178.229 357.784 Q178.229 359.291 177.76 360.674 Q177.315 362.033 176.698 363.095 Q176.105 364.157 174.474 365.862 Q172.844 367.566 171.534 368.777 Q170.225 369.987 167.286 372.556 L161.925 377.769 L171.04 377.769 Q175.487 377.769 175.833 377.373 Q176.327 376.657 176.945 372.877 L178.229 372.877 L176.796 381.672 L158.022 381.672 Z" fill="#000000" fill-rule="nonzero" fill-opacity="1" /><path clip-path="url(#clip030)" d="M182.775 365.491 Q182.775 358.055 184.652 354.004 Q187.271 347.976 193.446 347.976 Q194.756 347.976 196.114 348.347 Q197.498 348.693 199.227 350.052 Q200.981 351.41 202.043 353.634 Q204.069 357.932 204.069 365.491 Q204.069 372.877 202.191 376.904 Q199.449 382.783 193.397 382.783 Q191.124 382.783 188.802 381.622 Q186.505 380.461 185.047 377.67 Q182.775 373.495 182.775 365.491 M186.974 364.874 Q186.974 372.507 187.518 375.545 Q188.135 378.831 189.815 380.264 Q191.52 381.672 193.397 381.672 Q195.423 381.672 197.102 380.165 Q198.807 378.633 199.326 375.348 Q199.894 372.112 199.869 364.874 Q199.869 357.833 199.375 355.017 Q198.708 351.731 196.93 350.422 Q195.176 349.088 193.397 349.088 Q192.73 349.088 192.014 349.286 Q191.322 349.483 190.309 350.052 Q189.296 350.62 188.506 352.028 Q187.74 353.436 187.369 355.56 Q186.974 358.302 186.974 364.874 Z" fill="#000000" fill-rule="nonzero" fill-opacity="1" /><path clip-path="url(#clip030)" d="M158.565 126.71 Q158.565 125.796 158.639 125.524 Q158.738 125.253 159.133 124.833 L168.842 114.013 Q174.153 108.034 174.153 102.822 Q174.153 99.4377 172.374 97.0168 Q170.62 94.5959 167.384 94.5959 Q165.161 94.5959 163.284 95.9545 Q161.406 97.3132 160.542 99.7342 Q160.69 99.6847 161.208 99.6847 Q162.468 99.6847 163.16 100.475 Q163.876 101.266 163.876 102.328 Q163.876 103.687 162.987 104.354 Q162.123 104.996 161.258 104.996 Q160.912 104.996 160.443 104.922 Q159.998 104.848 159.282 104.156 Q158.565 103.44 158.565 102.18 Q158.565 98.6472 161.233 95.831 Q163.926 93.0148 168.027 93.0148 Q172.671 93.0148 175.709 95.7816 Q178.773 98.5237 178.773 102.822 Q178.773 104.329 178.303 105.712 Q177.859 107.071 177.241 108.133 Q176.648 109.196 175.018 110.9 Q173.387 112.605 172.078 113.815 Q170.769 115.026 167.829 117.595 L162.468 122.807 L171.584 122.807 Q176.031 122.807 176.376 122.412 Q176.87 121.695 177.488 117.916 L178.773 117.916 L177.34 126.71 L158.565 126.71 Z" fill="#000000" fill-rule="nonzero" fill-opacity="1" /><path clip-path="url(#clip030)" d="M183.861 118.558 Q183.861 117.051 184.677 116.483 Q185.492 115.89 186.357 115.89 Q187.518 115.89 188.185 116.631 Q188.876 117.348 188.876 118.36 Q188.876 119.373 188.185 120.114 Q187.518 120.831 186.357 120.831 Q185.788 120.831 185.492 120.732 Q186.159 123.054 188.185 124.734 Q190.235 126.414 192.928 126.414 Q196.312 126.414 198.338 123.128 Q199.548 121.004 199.548 116.187 Q199.548 111.938 198.634 109.813 Q197.226 106.577 194.336 106.577 Q190.235 106.577 187.814 110.11 Q187.518 110.554 187.172 110.579 Q186.678 110.579 186.554 110.307 Q186.455 110.011 186.455 109.245 L186.455 94.2747 Q186.455 93.0642 186.949 93.0642 Q187.147 93.0642 187.567 93.2125 Q190.754 94.6206 194.286 94.6453 Q197.918 94.6453 201.179 93.1631 Q201.426 93.0148 201.574 93.0148 Q202.068 93.0148 202.093 93.583 Q202.093 93.7806 201.673 94.3735 Q201.277 94.9417 200.413 95.7075 Q199.548 96.4486 198.436 97.165 Q197.325 97.8814 195.694 98.3755 Q194.089 98.8448 192.31 98.8448 Q190.186 98.8448 188.012 98.1778 L188.012 108.034 Q190.63 105.465 194.435 105.465 Q198.486 105.465 201.277 108.726 Q204.069 111.987 204.069 116.532 Q204.069 121.3 200.759 124.561 Q197.473 127.822 193.026 127.822 Q188.975 127.822 186.406 124.932 Q183.861 122.041 183.861 118.558 Z" fill="#000000" fill-rule="nonzero" fill-opacity="1" /><path clip-path="url(#clip030)" d="M4.65857 929.768 L2.59739 929.768 Q2.59739 921.846 -1.62157 917.756 Q-1.62157 916.628 -1.36393 916.435 Q-1.10628 916.242 0.0853368 916.242 L37.0899 916.242 Q39.0544 916.242 39.6663 915.276 Q40.2783 914.31 40.2783 910.091 L40.2783 907.997 L42.3072 907.997 Q42.114 910.316 42.114 918.69 Q42.114 927.063 42.3072 929.35 L40.2783 929.35 L40.2783 927.256 Q40.2783 923.102 39.6985 922.103 Q39.0866 921.105 37.0899 921.105 L2.91945 921.105 Q4.65857 924.551 4.65857 929.768 Z" fill="#000000" fill-rule="nonzero" fill-opacity="1" /><path clip-path="url(#clip030)" d="M59.9072 955.768 L59.9072 874.204 L56.3872 874.204 L56.3872 955.768  Z" fill="#000000" fill-rule="evenodd" fill-opacity="1"/>
<path clip-path="url(#clip030)" d="M118.036 955.768 L104.961 947.291 L122.311 943.843 L125.472 943.197 Q124.645 943.053 123.245 942.622 Q121.808 942.155 121.449 942.083 L77.7344 930.697 Q77.447 930.625 76.9801 930.517 Q76.4772 930.373 76.2976 930.301 Q76.118 930.23 75.7588 930.122 Q75.3996 930.014 75.2919 929.942 Q75.1482 929.87 74.8968 929.763 Q74.6453 929.655 74.5735 929.511 Q74.5016 929.368 74.358 929.188 Q74.2143 929.008 74.1784 928.793 Q74.1424 928.541 74.1065 928.29 Q74.0706 928.039 74.0706 927.679 L74.0706 921.25 Q74.0706 918.987 75.5433 918.987 Q77.016 918.987 77.016 921.178 L77.016 927.464 L133.733 942.299 Q134.559 942.514 134.882 942.694 Q135.206 942.837 135.493 943.34 Q135.78 943.843 135.78 944.741 L135.78 945.46 L112.397 950.165 L119.222 954.583 L118.036 955.768 Z" fill="#000000" fill-rule="nonzero" fill-opacity="1" /><path clip-path="url(#clip030)" d="M77.043 921.402 L77.043 881.244 L73.9872 881.244 L73.9872 921.402  Z" fill="#000000" fill-rule="evenodd" fill-opacity="1"/>
<path clip-path="url(#clip030)" d="M135.559 914.362 Q134.367 914.362 134.013 914.266 Q133.658 914.137 133.111 913.621 L119.005 900.965 Q111.211 894.04 104.416 894.04 Q100.003 894.04 96.8472 896.359 Q93.691 898.646 93.691 902.865 Q93.691 905.763 95.4623 908.211 Q97.2337 910.658 100.39 911.786 Q100.325 911.592 100.325 910.916 Q100.325 909.274 101.356 908.372 Q102.387 907.438 103.771 907.438 Q105.543 907.438 106.412 908.597 Q107.25 909.725 107.25 910.852 Q107.25 911.303 107.153 911.915 Q107.056 912.494 106.155 913.428 Q105.221 914.362 103.578 914.362 Q98.9728 914.362 95.3013 910.884 Q91.6298 907.373 91.6298 902.027 Q91.6298 895.973 95.2369 892.011 Q98.8117 888.018 104.416 888.018 Q106.38 888.018 108.184 888.63 Q109.955 889.209 111.34 890.015 Q112.725 890.787 114.947 892.913 Q117.169 895.039 118.747 896.746 Q120.325 898.452 123.675 902.285 L130.47 909.274 L130.47 897.39 Q130.47 891.593 129.955 891.142 Q129.021 890.498 124.093 889.692 L124.093 888.018 L135.559 889.886 L135.559 914.362 Z" fill="#000000" fill-rule="nonzero" fill-opacity="1" /><path clip-path="url(#clip030)" d="M55.5461 842.903 Q56.5767 841.873 57.9938 841.873 Q59.4108 841.873 60.4736 842.903 Q61.5042 843.934 61.5042 845.351 Q61.5042 846.768 60.4736 847.831 Q59.4108 848.861 57.9938 848.861 Q56.5767 848.861 55.5461 847.831 Q54.4833 846.768 54.4833 845.351 Q54.4833 843.934 55.5461 842.903 Z" fill="#000000" fill-rule="nonzero" fill-opacity="1" /><path clip-path="url(#clip030)" d="M65.069 812.409 Q55.2883 812.409 47.4015 808.762 Q44.0942 807.207 41.3239 805.031 Q38.5536 802.854 37.3381 801.412 Q36.1226 799.971 36.1226 799.575 Q36.1226 799.01 36.688 798.981 Q36.9706 798.981 37.6773 799.745 Q47.1754 809.073 65.069 809.045 Q83.0192 809.045 92.1497 799.971 Q93.1391 798.981 93.4501 798.981 Q94.0154 798.981 94.0154 799.575 Q94.0154 799.971 92.8564 801.356 Q91.6975 802.741 89.0403 804.889 Q86.3831 807.038 83.1323 808.592 Q75.2455 812.409 65.069 812.409 Z" fill="#000000" fill-rule="nonzero" fill-opacity="1" /><path clip-path="url(#clip030)" d="M65.0468 729.101 Q65.3045 729.101 66.3029 729.391 Q67.3013 729.681 68.8471 730.39 Q70.393 731.066 71.8101 732.032 Q73.1949 732.966 74.2255 734.512 Q75.2239 736.026 75.2239 737.765 Q75.2239 740.083 73.678 741.629 Q72.1321 743.175 69.8133 743.175 Q68.5573 743.175 66.174 742.306 Q55.2885 738.216 51.3916 738.216 Q46.7861 738.216 46.7861 741.79 Q46.7861 743.819 47.6235 745.655 Q48.4608 747.491 49.6202 748.682 Q50.7796 749.874 52.1001 750.808 Q53.4205 751.742 54.2901 752.161 Q55.1596 752.547 55.5461 752.644 L71.4558 756.605 Q72.8085 756.927 73.4526 757.153 Q74.0967 757.378 74.6442 757.99 Q75.2239 758.602 75.2239 759.568 Q75.2239 760.373 74.7408 760.953 Q74.2577 761.5 73.4204 761.5 Q73.2915 761.5 72.6152 761.339 Q71.9389 761.178 71.0049 760.953 Q70.071 760.727 69.5235 760.631 Q65.1435 759.471 64.5315 759.31 L56.8666 757.475 Q53.0663 756.476 51.3916 756.476 Q46.7861 756.476 46.7861 760.051 Q46.7861 761.822 47.4624 763.497 Q48.1066 765.14 49.0083 766.267 Q49.9101 767.394 51.1661 768.425 Q52.3899 769.423 53.2273 769.938 Q54.0324 770.421 54.8376 770.808 L58.1226 771.645 Q59.0243 771.838 62.5348 772.772 L68.4929 774.222 Q72.9373 775.252 73.356 775.478 Q74.2577 775.8 74.7408 776.508 Q75.2239 777.217 75.2239 777.925 Q75.2239 778.731 74.7408 779.278 Q74.2577 779.826 73.4204 779.826 Q73.2915 779.826 72.8085 779.729 Q72.3254 779.632 71.649 779.471 Q70.9727 779.31 70.5862 779.246 L55.3529 775.413 Q52.5832 774.705 51.7136 774.544 Q50.8119 774.351 49.8135 774.351 Q46.7861 774.351 46.7861 776.412 Q46.7861 778.086 48.7829 779.181 Q50.7796 780.276 54.6443 781.21 Q55.7071 781.5 55.9326 781.693 Q56.158 781.854 56.158 782.338 Q56.1258 783.143 55.4817 783.143 Q55.3207 783.143 54.2901 782.885 Q53.2595 782.627 51.7136 782.144 Q50.1355 781.629 49.1049 781.082 Q48.4286 780.759 47.9777 780.47 Q47.5269 780.18 46.8183 779.6 Q46.1098 779.02 45.7233 778.151 Q45.3369 777.281 45.3369 776.218 Q45.3369 773.867 46.8505 772.128 Q48.3642 770.357 51.0695 770.132 Q45.3369 765.848 45.3369 759.858 Q45.3369 756.476 47.0438 754.447 Q48.6863 752.547 51.7136 752.322 Q45.3369 747.877 45.3369 741.565 Q45.3369 737.926 47.237 735.961 Q49.1049 733.997 52.3899 733.997 Q54.0968 733.997 57.3496 734.866 Q60.5702 735.736 62.1805 736.315 Q63.7908 736.895 66.8826 738.022 Q69.8455 739.214 71.5846 739.214 Q72.7118 739.214 73.2271 738.827 Q73.7424 738.441 73.7424 737.604 Q73.7424 736.315 73.0017 735.188 Q72.2287 734.061 70.9727 733.256 Q69.6845 732.418 68.3963 731.871 Q67.0758 731.324 65.5943 730.905 Q64.7892 730.647 64.596 730.518 Q64.4027 730.357 64.4027 729.906 Q64.4027 729.101 65.0468 729.101 Z" fill="#000000" fill-rule="nonzero" fill-opacity="1" /><path clip-path="url(#clip030)" d="M69.941 703.785 Q71.1358 703.785 71.9023 704.574 Q72.6688 705.341 72.6688 706.333 Q72.6688 707.189 72.1729 707.64 Q71.6769 708.091 71.0456 708.091 Q70.1439 708.091 69.3999 707.392 Q68.656 706.694 68.4982 705.679 Q67.9571 706.423 67.9571 707.618 Q67.9571 709.579 69.4676 711.315 Q70.1664 712.082 71.4514 712.916 Q72.7139 713.75 73.255 713.908 L79.2742 715.373 Q79.9506 715.508 83.1969 716.342 Q86.4207 717.154 86.556 717.222 Q87.1872 717.447 87.5254 717.943 Q87.8635 718.439 87.8635 718.935 Q87.8635 719.499 87.5254 719.882 Q87.1872 720.265 86.6011 720.265 Q86.5109 720.265 86.1727 720.197 Q85.8346 720.13 85.3612 720.017 Q84.8877 719.904 84.6172 719.859 L73.9538 717.177 Q72.015 716.681 71.4064 716.568 Q70.7751 716.433 70.0763 716.433 Q68.8589 716.433 68.408 716.816 Q67.9571 717.199 67.9571 717.875 Q67.9571 719.048 69.3548 719.814 Q70.7526 720.581 73.4579 721.234 Q74.2018 721.437 74.3596 721.573 Q74.5174 721.685 74.5174 722.024 Q74.4949 722.587 74.044 722.587 Q73.9313 722.587 73.2099 722.407 Q72.4659 722.226 71.3838 721.888 Q70.2791 721.528 69.5803 721.144 Q69.1069 720.919 68.7912 720.716 Q68.4756 720.513 67.9796 720.107 Q67.4837 719.701 67.2131 719.093 Q66.9426 718.484 66.9426 717.74 Q66.9426 716.117 67.9346 714.967 Q68.9265 713.795 70.482 713.524 Q69.6705 712.961 68.9716 712.262 Q68.2502 711.563 67.5964 710.278 Q66.9426 708.993 66.9426 707.618 Q66.9426 705.904 67.8218 704.845 Q68.6785 703.785 69.941 703.785 Z" fill="#000000" fill-rule="nonzero" fill-opacity="1" /><path clip-path="url(#clip030)" d="M58.7989 677.115 Q58.7989 678.629 57.9938 678.629 Q57.1886 678.629 57.1886 677.051 Q57.1886 676.858 57.2208 676.535 Q57.253 676.181 57.253 676.117 L57.253 657.534 L38.6058 657.534 Q38.5414 657.534 38.2516 657.566 Q37.9295 657.598 37.7363 657.598 Q36.1582 657.598 36.1582 656.825 Q36.1582 656.02 37.7363 656.02 L57.253 656.02 L57.253 637.405 Q57.253 637.341 57.2208 637.019 Q57.1886 636.697 57.1886 636.504 Q57.1886 634.99 57.9938 634.99 Q58.7989 634.958 58.7989 636.568 Q58.7989 636.761 58.7667 637.051 Q58.7345 637.341 58.7345 637.405 L58.7345 656.02 L78.3157 656.02 Q79.8293 656.02 79.8293 656.825 Q79.8293 657.598 78.2512 657.598 Q78.058 657.598 77.736 657.566 Q77.4461 657.534 77.3817 657.534 L58.7345 657.534 L58.7345 676.117 Q58.7345 676.181 58.7667 676.568 Q58.7989 676.922 58.7989 677.115 Z" fill="#000000" fill-rule="nonzero" fill-opacity="1" /><path clip-path="url(#clip030)" d="M65.0468 555.471 Q65.3045 555.471 66.3029 555.76 Q67.3013 556.05 68.8471 556.759 Q70.393 557.435 71.8101 558.401 Q73.1949 559.335 74.2255 560.881 Q75.2239 562.395 75.2239 564.134 Q75.2239 566.453 73.678 567.999 Q72.1321 569.544 69.8133 569.544 Q68.5573 569.544 66.174 568.675 Q55.2885 564.585 51.3916 564.585 Q46.7861 564.585 46.7861 568.16 Q46.7861 570.189 47.6235 572.024 Q48.4608 573.86 49.6202 575.052 Q50.7796 576.243 52.1001 577.177 Q53.4205 578.111 54.2901 578.53 Q55.1596 578.916 55.5461 579.013 L71.4558 582.974 Q72.8085 583.296 73.4526 583.522 Q74.0967 583.747 74.6442 584.359 Q75.2239 584.971 75.2239 585.937 Q75.2239 586.742 74.7408 587.322 Q74.2577 587.87 73.4204 587.87 Q73.2915 587.87 72.6152 587.709 Q71.9389 587.548 71.0049 587.322 Q70.071 587.097 69.5235 587 Q65.1435 585.841 64.5315 585.68 L56.8666 583.844 Q53.0663 582.845 51.3916 582.845 Q46.7861 582.845 46.7861 586.42 Q46.7861 588.192 47.4624 589.866 Q48.1066 591.509 49.0083 592.636 Q49.9101 593.763 51.1661 594.794 Q52.3899 595.792 53.2273 596.308 Q54.0324 596.791 54.8376 597.177 L58.1226 598.014 Q59.0243 598.208 62.5348 599.142 L68.4929 600.591 Q72.9373 601.622 73.356 601.847 Q74.2577 602.169 74.7408 602.878 Q75.2239 603.586 75.2239 604.295 Q75.2239 605.1 74.7408 605.647 Q74.2577 606.195 73.4204 606.195 Q73.2915 606.195 72.8085 606.098 Q72.3254 606.002 71.649 605.84 Q70.9727 605.679 70.5862 605.615 L55.3529 601.783 Q52.5832 601.074 51.7136 600.913 Q50.8119 600.72 49.8135 600.72 Q46.7861 600.72 46.7861 602.781 Q46.7861 604.456 48.7829 605.551 Q50.7796 606.646 54.6443 607.58 Q55.7071 607.869 55.9326 608.063 Q56.158 608.224 56.158 608.707 Q56.1258 609.512 55.4817 609.512 Q55.3207 609.512 54.2901 609.254 Q53.2595 608.997 51.7136 608.514 Q50.1355 607.998 49.1049 607.451 Q48.4286 607.129 47.9777 606.839 Q47.5269 606.549 46.8183 605.969 Q46.1098 605.39 45.7233 604.52 Q45.3369 603.65 45.3369 602.588 Q45.3369 600.237 46.8505 598.498 Q48.3642 596.726 51.0695 596.501 Q45.3369 592.217 45.3369 586.227 Q45.3369 582.845 47.0438 580.817 Q48.6863 578.916 51.7136 578.691 Q45.3369 574.247 45.3369 567.934 Q45.3369 564.295 47.237 562.33 Q49.1049 560.366 52.3899 560.366 Q54.0968 560.366 57.3496 561.235 Q60.5702 562.105 62.1805 562.685 Q63.7908 563.264 66.8826 564.392 Q69.8455 565.583 71.5846 565.583 Q72.7118 565.583 73.2271 565.197 Q73.7424 564.81 73.7424 563.973 Q73.7424 562.685 73.0017 561.557 Q72.2287 560.43 70.9727 559.625 Q69.6845 558.788 68.3963 558.24 Q67.0758 557.693 65.5943 557.274 Q64.7892 557.016 64.596 556.888 Q64.4027 556.727 64.4027 556.276 Q64.4027 555.471 65.0468 555.471 Z" fill="#000000" fill-rule="nonzero" fill-opacity="1" /><path clip-path="url(#clip030)" d="M64.4998 537.166 Q65.4918 537.166 66.2357 537.977 Q66.9571 538.766 66.9571 539.623 Q66.9571 540.412 66.4837 540.908 Q65.9877 541.382 65.2889 541.382 Q64.3646 541.382 63.5981 540.592 Q62.8316 539.803 62.8316 538.879 Q62.8316 538.113 63.305 537.639 Q63.7784 537.166 64.4998 537.166 M86.7509 536.76 Q86.9312 536.76 87.6526 536.963 Q88.3515 537.166 89.4336 537.662 Q90.4932 538.135 91.4851 538.789 Q92.4771 539.443 93.1759 540.525 Q93.8748 541.584 93.8748 542.802 Q93.8748 544.448 92.7927 545.53 Q91.7106 546.589 90.0874 546.589 Q89.2082 546.589 86.3902 545.53 Q78.1841 542.464 77.8459 542.351 Q76.5609 541.832 75.4337 541.832 Q74.9152 541.832 74.5996 541.945 Q74.2614 542.058 74.1487 542.283 Q74.0134 542.509 73.9909 542.644 Q73.9684 542.757 73.9684 542.982 Q73.9684 544.312 75.321 545.552 Q76.6736 546.792 79.6946 547.649 Q80.2582 547.829 80.3934 547.942 Q80.5287 548.055 80.5287 548.393 Q80.5061 548.956 80.0553 548.956 Q79.92 548.956 79.4015 548.799 Q78.8604 548.641 78.0488 548.348 Q77.2147 548.055 76.358 547.536 Q75.4788 547.018 74.7123 546.386 Q73.9458 545.733 73.4498 544.808 Q72.9539 543.884 72.9539 542.847 Q72.9539 541.156 74.0585 540.119 Q75.1406 539.059 76.7413 539.059 Q77.6205 539.059 79.176 539.668 Q81.205 540.412 81.8588 540.683 L86.7058 542.486 Q88.4642 543.14 89.0053 543.343 Q89.5238 543.523 90.155 543.681 Q90.7637 543.816 91.3273 543.816 Q92.1164 543.816 92.4771 543.568 Q92.8378 543.298 92.8378 542.712 Q92.8378 541.088 91.2371 539.894 Q89.614 538.699 87.1341 538 Q87.0665 537.977 86.9538 537.955 Q86.3902 537.774 86.3225 537.594 Q86.3 537.504 86.3 537.324 Q86.3 536.76 86.7509 536.76 Z" fill="#000000" fill-rule="nonzero" fill-opacity="1" /><path clip-path="url(#clip030)" d="M93.4501 522.801 Q93.1674 522.801 92.4607 522.066 Q82.9626 512.738 65.069 512.738 Q47.1188 512.738 38.0448 521.699 Q36.9989 522.801 36.688 522.801 Q36.1226 522.801 36.1226 522.236 Q36.1226 521.84 37.2816 520.455 Q38.4406 519.042 41.0978 516.922 Q43.755 514.773 47.0058 513.19 Q54.8925 509.374 65.069 509.374 Q74.8497 509.374 82.7365 513.021 Q86.0439 514.575 88.8141 516.752 Q91.5844 518.929 92.7999 520.37 Q94.0154 521.812 94.0154 522.236 Q94.0154 522.801 93.4501 522.801 Z" fill="#000000" fill-rule="nonzero" fill-opacity="1" /><polyline clip-path="url(#clip032)" style="stroke:#009af9; stroke-linecap:round; stroke-linejoin:round; stroke-width:8; stroke-opacity:1; fill:none" points="261.383,1384.24 268.559,1371.13 275.735,1358.01 282.912,1344.9 290.088,1331.79 297.264,1318.68 304.441,1305.57 311.617,1292.46 318.793,1279.35 325.969,1266.23 333.146,1253.12 340.322,1240.01 347.498,1226.9 354.675,1213.79 361.851,1200.68 369.027,1187.56 376.204,1174.45 383.38,1161.34 390.556,1148.23 397.733,1135.12 404.909,1122.01 412.085,1108.89 419.262,1095.78 426.438,1082.67 433.614,1069.56 440.791,1056.45 447.967,1043.34 455.143,1030.22 462.32,1017.11 469.496,1004 476.672,990.889 483.849,977.777 491.025,964.666 498.201,951.554 505.378,938.442 "/>
<polyline clip-path="url(#clip032)" style="stroke:#e26f46; stroke-linecap:round; stroke-linejoin:round; stroke-width:8; stroke-opacity:1; fill:none" points="512.554,933.526 519.73,933.526 526.907,933.526 534.083,933.526 541.259,933.526 548.436,933.526 555.612,933.526 562.788,933.526 569.965,933.526 577.141,933.526 584.317,933.526 591.494,933.526 598.67,933.526 605.846,933.526 613.023,933.526 620.199,933.526 627.375,933.526 634.552,933.526 641.728,933.526 648.904,933.526 656.081,933.526 663.257,933.526 670.433,933.526 677.61,933.526 684.786,933.526 691.962,933.526 699.139,933.526 706.315,933.526 713.491,933.526 720.668,933.526 727.844,933.526 735.02,933.526 742.197,933.526 749.373,933.526 756.549,933.526 763.726,933.526 770.902,933.526 778.078,933.526 785.255,933.526 792.431,933.526 799.607,933.526 806.784,933.526 813.96,933.526 821.136,933.526 828.313,933.526 835.489,933.526 842.665,933.526 849.842,933.526 857.018,933.526 864.194,933.526 871.371,933.526 878.547,933.526 885.723,933.526 892.9,933.526 900.076,933.526 907.252,933.526 914.429,933.526 921.605,933.526 928.781,933.526 935.958,933.526 943.134,933.526 950.31,933.526 957.487,933.526 964.663,933.526 971.839,933.526 "/>
<polyline clip-path="url(#clip032)" style="stroke:#3da44d; stroke-linecap:round; stroke-linejoin:round; stroke-width:8; stroke-opacity:1; fill:none" points="512.554,933.526 519.73,933.526 526.907,933.526 534.083,933.526 541.259,933.526 548.436,933.526 555.612,933.526 562.788,933.526 569.965,933.526 577.141,933.526 584.317,933.526 591.494,933.526 598.67,933.526 605.846,933.526 613.023,933.526 620.199,933.526 627.375,933.526 634.552,933.526 641.728,933.526 648.904,933.526 656.081,933.526 663.257,933.526 670.433,933.526 677.61,933.526 684.786,933.526 691.962,933.526 699.139,933.526 706.315,933.526 713.491,933.526 720.668,933.526 727.844,933.526 735.02,933.526 742.197,933.526 749.373,933.526 756.549,933.526 763.726,933.526 770.902,933.526 778.078,933.526 785.255,933.526 792.431,933.526 799.607,933.526 806.784,933.526 813.96,933.526 821.136,933.526 828.313,933.526 835.489,933.526 842.665,933.526 849.842,933.526 857.018,933.526 864.194,933.526 871.371,933.526 878.547,933.526 885.723,933.526 892.9,933.526 900.076,933.526 907.252,933.526 914.429,933.526 921.605,933.526 928.781,933.526 935.958,933.526 943.134,933.526 950.31,933.526 957.487,933.526 964.663,933.526 971.839,933.526 "/>
<polyline clip-path="url(#clip032)" style="stroke:#009af9; stroke-linecap:round; stroke-linejoin:round; stroke-width:8; stroke-opacity:1; fill:none" stroke-dasharray="32, 20" points="512.554,925.331 519.73,912.219 526.907,899.107 534.083,885.996 541.259,872.884 548.436,859.773 555.612,846.661 562.788,833.549 569.965,820.438 577.141,807.326 584.317,794.214 591.494,781.103 598.67,767.991 605.846,754.879 613.023,741.768 620.199,728.656 627.375,715.545 634.552,702.433 641.728,689.321 648.904,676.21 656.081,663.098 663.257,649.986 670.433,636.875 677.61,623.763 684.786,610.651 691.962,597.54 699.139,584.428 706.315,571.316 713.491,558.205 720.668,545.093 727.844,531.982 735.02,518.87 742.197,505.758 749.373,492.647 756.549,479.535 763.726,466.423 770.902,453.312 778.078,440.2 785.255,427.088 792.431,413.977 799.607,400.865 806.784,387.753 813.96,374.642 821.136,361.53 828.313,348.419 835.489,335.307 842.665,322.195 849.842,309.084 857.018,295.972 864.194,282.86 871.371,269.749 878.547,256.637 885.723,243.525 892.9,230.414 900.076,217.302 907.252,204.19 914.429,191.079 921.605,177.967 928.781,164.856 935.958,151.744 943.134,138.632 950.31,125.521 957.487,112.409 964.663,99.2973 971.839,86.1857 "/>
<path clip-path="url(#clip030)" d="M1022.93 858.836 L1133.24 858.836 L1133.24 651.476 L1022.93 651.476  Z" fill="#ffffff" fill-rule="evenodd" fill-opacity="1"/>
<polyline clip-path="url(#clip030)" style="stroke:#000000; stroke-linecap:round; stroke-linejoin:round; stroke-width:4; stroke-opacity:1; fill:none" points="1022.93,858.836 1133.24,858.836 1133.24,651.476 1022.93,651.476 1022.93,858.836 "/>
<polyline clip-path="url(#clip030)" style="stroke:#009af9; stroke-linecap:round; stroke-linejoin:round; stroke-width:8; stroke-opacity:1; fill:none" points="1032.85,703.316 1092.39,703.316 "/>
<path clip-path="url(#clip030)" d="M1102.32 691.718 L1102.32 690.137 Q1108.4 690.137 1111.53 686.901 Q1112.4 686.901 1112.55 687.099 Q1112.69 687.296 1112.69 688.21 L1112.69 716.595 Q1112.69 718.101 1113.43 718.571 Q1114.18 719.04 1117.41 719.04 L1119.02 719.04 L1119.02 720.596 Q1117.24 720.448 1110.82 720.448 Q1104.39 720.448 1102.64 720.596 L1102.64 719.04 L1104.25 719.04 Q1107.43 719.04 1108.2 718.596 Q1108.96 718.126 1108.96 716.595 L1108.96 690.384 Q1106.32 691.718 1102.32 691.718 Z" fill="#000000" fill-rule="nonzero" fill-opacity="1" /><polyline clip-path="url(#clip030)" style="stroke:#e26f46; stroke-linecap:round; stroke-linejoin:round; stroke-width:8; stroke-opacity:1; fill:none" points="1032.85,755.156 1092.39,755.156 "/>
<path clip-path="url(#clip030)" d="M1102.32 772.436 Q1102.32 771.522 1102.39 771.251 Q1102.49 770.979 1102.89 770.559 L1112.59 759.739 Q1117.91 753.761 1117.91 748.548 Q1117.91 745.164 1116.13 742.743 Q1114.37 740.322 1111.14 740.322 Q1108.91 740.322 1107.04 741.681 Q1105.16 743.039 1104.29 745.46 Q1104.44 745.411 1104.96 745.411 Q1106.22 745.411 1106.91 746.202 Q1107.63 746.992 1107.63 748.054 Q1107.63 749.413 1106.74 750.08 Q1105.88 750.722 1105.01 750.722 Q1104.67 750.722 1104.2 750.648 Q1103.75 750.574 1103.03 749.882 Q1102.32 749.166 1102.32 747.906 Q1102.32 744.373 1104.99 741.557 Q1107.68 738.741 1111.78 738.741 Q1116.42 738.741 1119.46 741.508 Q1122.53 744.25 1122.53 748.548 Q1122.53 750.055 1122.06 751.439 Q1121.61 752.797 1120.99 753.86 Q1120.4 754.922 1118.77 756.626 Q1117.14 758.331 1115.83 759.541 Q1114.52 760.752 1111.58 763.321 L1106.22 768.533 L1115.34 768.533 Q1119.78 768.533 1120.13 768.138 Q1120.62 767.422 1121.24 763.642 L1122.53 763.642 L1121.09 772.436 L1102.32 772.436 Z" fill="#000000" fill-rule="nonzero" fill-opacity="1" /><polyline clip-path="url(#clip030)" style="stroke:#3da44d; stroke-linecap:round; stroke-linejoin:round; stroke-width:8; stroke-opacity:1; fill:none" points="1032.85,806.996 1092.39,806.996 "/>
<path clip-path="url(#clip030)" d="M1102.32 817.458 Q1102.32 815.951 1103.18 815.235 Q1104.05 814.519 1105.16 814.519 Q1106.32 814.519 1107.14 815.284 Q1107.98 816.026 1107.98 817.335 Q1107.98 818.743 1106.99 819.533 Q1106.02 820.324 1104.64 820.126 Q1105.85 822.152 1108.07 823.066 Q1110.32 823.98 1112.4 823.98 Q1114.57 823.98 1116.33 822.103 Q1118.1 820.225 1118.1 815.63 Q1118.1 811.727 1116.57 809.479 Q1115.07 807.231 1112.08 807.231 L1109.85 807.231 Q1109.09 807.231 1108.86 807.157 Q1108.64 807.083 1108.64 806.663 Q1108.64 806.169 1109.41 806.07 Q1110.17 806.07 1111.38 805.922 Q1114.32 805.823 1115.88 803.279 Q1117.29 800.907 1117.29 797.523 Q1117.29 794.435 1115.81 793.15 Q1114.35 791.841 1112.45 791.841 Q1110.67 791.841 1108.72 792.582 Q1106.76 793.323 1105.7 794.978 Q1108.84 794.978 1108.84 797.523 Q1108.84 798.634 1108.12 799.376 Q1107.43 800.092 1106.27 800.092 Q1105.16 800.092 1104.42 799.4 Q1103.68 798.684 1103.68 797.473 Q1103.68 794.583 1106.25 792.582 Q1108.84 790.581 1112.64 790.581 Q1116.4 790.581 1119.17 792.557 Q1121.96 794.534 1121.96 797.572 Q1121.96 800.561 1119.98 803.007 Q1118 805.453 1114.87 806.465 Q1118.72 807.231 1121.02 809.85 Q1123.32 812.444 1123.32 815.63 Q1123.32 819.583 1120.2 822.498 Q1117.09 825.388 1112.55 825.388 Q1108.35 825.388 1105.33 823.115 Q1102.32 820.843 1102.32 817.458 Z" fill="#000000" fill-rule="nonzero" fill-opacity="1" /><path clip-path="url(#clip030)" d="M1459.58 1423.18 L2212.67 1423.18 L2212.67 47.2441 L1459.58 47.2441  Z" fill="#ffffff" fill-rule="evenodd" fill-opacity="1"/>
<defs>
  <clipPath id="clip033">
    <rect x="1459" y="47" width="754" height="1377"/>
  </clipPath>
</defs>
<polyline clip-path="url(#clip033)" style="stroke:#000000; stroke-linecap:round; stroke-linejoin:round; stroke-width:2; stroke-opacity:0.1; fill:none" points="1480.9,1423.18 1480.9,47.2441 "/>
<polyline clip-path="url(#clip033)" style="stroke:#000000; stroke-linecap:round; stroke-linejoin:round; stroke-width:2; stroke-opacity:0.1; fill:none" points="1678.25,1423.18 1678.25,47.2441 "/>
<polyline clip-path="url(#clip033)" style="stroke:#000000; stroke-linecap:round; stroke-linejoin:round; stroke-width:2; stroke-opacity:0.1; fill:none" points="1875.6,1423.18 1875.6,47.2441 "/>
<polyline clip-path="url(#clip033)" style="stroke:#000000; stroke-linecap:round; stroke-linejoin:round; stroke-width:2; stroke-opacity:0.1; fill:none" points="2072.95,1423.18 2072.95,47.2441 "/>
<polyline clip-path="url(#clip033)" style="stroke:#000000; stroke-linecap:round; stroke-linejoin:round; stroke-width:2; stroke-opacity:0.1; fill:none" points="1459.58,1214.21 2212.67,1214.21 "/>
<polyline clip-path="url(#clip033)" style="stroke:#000000; stroke-linecap:round; stroke-linejoin:round; stroke-width:2; stroke-opacity:0.1; fill:none" points="1459.58,974.711 2212.67,974.711 "/>
<polyline clip-path="url(#clip033)" style="stroke:#000000; stroke-linecap:round; stroke-linejoin:round; stroke-width:2; stroke-opacity:0.1; fill:none" points="1459.58,735.212 2212.67,735.212 "/>
<polyline clip-path="url(#clip033)" style="stroke:#000000; stroke-linecap:round; stroke-linejoin:round; stroke-width:2; stroke-opacity:0.1; fill:none" points="1459.58,495.713 2212.67,495.713 "/>
<polyline clip-path="url(#clip033)" style="stroke:#000000; stroke-linecap:round; stroke-linejoin:round; stroke-width:2; stroke-opacity:0.1; fill:none" points="1459.58,256.214 2212.67,256.214 "/>
<polyline clip-path="url(#clip030)" style="stroke:#000000; stroke-linecap:round; stroke-linejoin:round; stroke-width:4; stroke-opacity:1; fill:none" points="1459.58,1423.18 2212.67,1423.18 "/>
<polyline clip-path="url(#clip030)" style="stroke:#000000; stroke-linecap:round; stroke-linejoin:round; stroke-width:4; stroke-opacity:1; fill:none" points="1480.9,1423.18 1480.9,1404.28 "/>
<polyline clip-path="url(#clip030)" style="stroke:#000000; stroke-linecap:round; stroke-linejoin:round; stroke-width:4; stroke-opacity:1; fill:none" points="1678.25,1423.18 1678.25,1404.28 "/>
<polyline clip-path="url(#clip030)" style="stroke:#000000; stroke-linecap:round; stroke-linejoin:round; stroke-width:4; stroke-opacity:1; fill:none" points="1875.6,1423.18 1875.6,1404.28 "/>
<polyline clip-path="url(#clip030)" style="stroke:#000000; stroke-linecap:round; stroke-linejoin:round; stroke-width:4; stroke-opacity:1; fill:none" points="2072.95,1423.18 2072.95,1404.28 "/>
<path clip-path="url(#clip030)" d="M1450.57 1469.4 Q1450.57 1461.96 1452.45 1457.91 Q1455.07 1451.88 1461.25 1451.88 Q1462.56 1451.88 1463.91 1452.26 Q1465.3 1452.6 1467.03 1453.96 Q1468.78 1455.32 1469.84 1457.54 Q1471.87 1461.84 1471.87 1469.4 Q1471.87 1476.79 1469.99 1480.81 Q1467.25 1486.69 1461.2 1486.69 Q1458.92 1486.69 1456.6 1485.53 Q1454.31 1484.37 1452.85 1481.58 Q1450.57 1477.4 1450.57 1469.4 M1454.77 1468.78 Q1454.77 1476.41 1455.32 1479.45 Q1455.94 1482.74 1457.62 1484.17 Q1459.32 1485.58 1461.2 1485.58 Q1463.22 1485.58 1464.9 1484.07 Q1466.61 1482.54 1467.13 1479.26 Q1467.69 1476.02 1467.67 1468.78 Q1467.67 1461.74 1467.18 1458.92 Q1466.51 1455.64 1464.73 1454.33 Q1462.98 1453 1461.2 1453 Q1460.53 1453 1459.81 1453.19 Q1459.12 1453.39 1458.11 1453.96 Q1457.1 1454.53 1456.31 1455.94 Q1455.54 1457.34 1455.17 1459.47 Q1454.77 1462.21 1454.77 1468.78 Z" fill="#000000" fill-rule="nonzero" fill-opacity="1" /><path clip-path="url(#clip030)" d="M1478.96 1484.76 Q1478.19 1483.95 1478.19 1482.89 Q1478.19 1481.82 1478.96 1481.06 Q1479.72 1480.27 1480.89 1480.27 Q1482 1480.27 1482.74 1481.01 Q1483.5 1481.73 1483.5 1482.91 Q1483.5 1484.07 1482.69 1484.84 Q1481.9 1485.58 1480.89 1485.58 Q1479.72 1485.58 1478.96 1484.76 Z" fill="#000000" fill-rule="nonzero" fill-opacity="1" /><path clip-path="url(#clip030)" d="M1489.93 1469.4 Q1489.93 1461.96 1491.8 1457.91 Q1494.42 1451.88 1500.6 1451.88 Q1501.91 1451.88 1503.27 1452.26 Q1504.65 1452.6 1506.38 1453.96 Q1508.13 1455.32 1509.2 1457.54 Q1511.22 1461.84 1511.22 1469.4 Q1511.22 1476.79 1509.34 1480.81 Q1506.6 1486.69 1500.55 1486.69 Q1498.28 1486.69 1495.95 1485.53 Q1493.66 1484.37 1492.2 1481.58 Q1489.93 1477.4 1489.93 1469.4 M1494.13 1468.78 Q1494.13 1476.41 1494.67 1479.45 Q1495.29 1482.74 1496.97 1484.17 Q1498.67 1485.58 1500.55 1485.58 Q1502.58 1485.58 1504.26 1484.07 Q1505.96 1482.54 1506.48 1479.26 Q1507.05 1476.02 1507.02 1468.78 Q1507.02 1461.74 1506.53 1458.92 Q1505.86 1455.64 1504.08 1454.33 Q1502.33 1453 1500.55 1453 Q1499.88 1453 1499.17 1453.19 Q1498.47 1453.39 1497.46 1453.96 Q1496.45 1454.53 1495.66 1455.94 Q1494.89 1457.34 1494.52 1459.47 Q1494.13 1462.21 1494.13 1468.78 Z" fill="#000000" fill-rule="nonzero" fill-opacity="1" /><path clip-path="url(#clip030)" d="M1648.2 1469.4 Q1648.2 1461.96 1650.07 1457.91 Q1652.69 1451.88 1658.87 1451.88 Q1660.18 1451.88 1661.54 1452.26 Q1662.92 1452.6 1664.65 1453.96 Q1666.4 1455.32 1667.46 1457.54 Q1669.49 1461.84 1669.49 1469.4 Q1669.49 1476.79 1667.61 1480.81 Q1664.87 1486.69 1658.82 1486.69 Q1656.55 1486.69 1654.22 1485.53 Q1651.93 1484.37 1650.47 1481.58 Q1648.2 1477.4 1648.2 1469.4 M1652.4 1468.78 Q1652.4 1476.41 1652.94 1479.45 Q1653.56 1482.74 1655.24 1484.17 Q1656.94 1485.58 1658.82 1485.58 Q1660.84 1485.58 1662.52 1484.07 Q1664.23 1482.54 1664.75 1479.26 Q1665.32 1476.02 1665.29 1468.78 Q1665.29 1461.74 1664.8 1458.92 Q1664.13 1455.64 1662.35 1454.33 Q1660.6 1453 1658.82 1453 Q1658.15 1453 1657.43 1453.19 Q1656.74 1453.39 1655.73 1453.96 Q1654.72 1454.53 1653.93 1455.94 Q1653.16 1457.34 1652.79 1459.47 Q1652.4 1462.21 1652.4 1468.78 Z" fill="#000000" fill-rule="nonzero" fill-opacity="1" /><path clip-path="url(#clip030)" d="M1676.58 1484.76 Q1675.81 1483.95 1675.81 1482.89 Q1675.81 1481.82 1676.58 1481.06 Q1677.35 1480.27 1678.51 1480.27 Q1679.62 1480.27 1680.36 1481.01 Q1681.13 1481.73 1681.13 1482.91 Q1681.13 1484.07 1680.31 1484.84 Q1679.52 1485.58 1678.51 1485.58 Q1677.35 1485.58 1676.58 1484.76 Z" fill="#000000" fill-rule="nonzero" fill-opacity="1" /><path clip-path="url(#clip030)" d="M1688.09 1477.43 Q1688.09 1475.92 1688.91 1475.35 Q1689.72 1474.76 1690.59 1474.76 Q1691.75 1474.76 1692.41 1475.5 Q1693.11 1476.22 1693.11 1477.23 Q1693.11 1478.24 1692.41 1478.98 Q1691.75 1479.7 1690.59 1479.7 Q1690.02 1479.7 1689.72 1479.6 Q1690.39 1481.92 1692.41 1483.6 Q1694.47 1485.28 1697.16 1485.28 Q1700.54 1485.28 1702.57 1482 Q1703.78 1479.87 1703.78 1475.06 Q1703.78 1470.81 1702.86 1468.68 Q1701.46 1465.45 1698.57 1465.45 Q1694.47 1465.45 1692.04 1468.98 Q1691.75 1469.42 1691.4 1469.45 Q1690.91 1469.45 1690.78 1469.18 Q1690.69 1468.88 1690.69 1468.11 L1690.69 1453.14 Q1690.69 1451.93 1691.18 1451.93 Q1691.38 1451.93 1691.8 1452.08 Q1694.98 1453.49 1698.52 1453.51 Q1702.15 1453.51 1705.41 1452.03 Q1705.66 1451.88 1705.8 1451.88 Q1706.3 1451.88 1706.32 1452.45 Q1706.32 1452.65 1705.9 1453.24 Q1705.51 1453.81 1704.64 1454.58 Q1703.78 1455.32 1702.67 1456.03 Q1701.55 1456.75 1699.92 1457.25 Q1698.32 1457.71 1696.54 1457.71 Q1694.42 1457.71 1692.24 1457.05 L1692.24 1466.9 Q1694.86 1464.33 1698.66 1464.33 Q1702.72 1464.33 1705.51 1467.6 Q1708.3 1470.86 1708.3 1475.4 Q1708.3 1480.17 1704.99 1483.43 Q1701.7 1486.69 1697.26 1486.69 Q1693.21 1486.69 1690.64 1483.8 Q1688.09 1480.91 1688.09 1477.43 Z" fill="#000000" fill-rule="nonzero" fill-opacity="1" /><path clip-path="url(#clip030)" d="M1846.53 1456.7 L1846.53 1455.12 Q1852.61 1455.12 1855.75 1451.88 Q1856.61 1451.88 1856.76 1452.08 Q1856.91 1452.28 1856.91 1453.19 L1856.91 1481.58 Q1856.91 1483.08 1857.65 1483.55 Q1858.39 1484.02 1861.63 1484.02 L1863.23 1484.02 L1863.23 1485.58 Q1861.45 1485.43 1855.03 1485.43 Q1848.61 1485.43 1846.85 1485.58 L1846.85 1484.02 L1848.46 1484.02 Q1851.65 1484.02 1852.41 1483.58 Q1853.18 1483.11 1853.18 1481.58 L1853.18 1455.37 Q1850.53 1456.7 1846.53 1456.7 Z" fill="#000000" fill-rule="nonzero" fill-opacity="1" /><path clip-path="url(#clip030)" d="M1872.4 1484.76 Q1871.63 1483.95 1871.63 1482.89 Q1871.63 1481.82 1872.4 1481.06 Q1873.16 1480.27 1874.32 1480.27 Q1875.44 1480.27 1876.18 1481.01 Q1876.94 1481.73 1876.94 1482.91 Q1876.94 1484.07 1876.13 1484.84 Q1875.34 1485.58 1874.32 1485.58 Q1873.16 1485.58 1872.4 1484.76 Z" fill="#000000" fill-rule="nonzero" fill-opacity="1" /><path clip-path="url(#clip030)" d="M1883.37 1469.4 Q1883.37 1461.96 1885.24 1457.91 Q1887.86 1451.88 1894.04 1451.88 Q1895.35 1451.88 1896.71 1452.26 Q1898.09 1452.6 1899.82 1453.96 Q1901.57 1455.32 1902.63 1457.54 Q1904.66 1461.84 1904.66 1469.4 Q1904.66 1476.79 1902.78 1480.81 Q1900.04 1486.69 1893.99 1486.69 Q1891.72 1486.69 1889.39 1485.53 Q1887.1 1484.37 1885.64 1481.58 Q1883.37 1477.4 1883.37 1469.4 M1887.57 1468.78 Q1887.57 1476.41 1888.11 1479.45 Q1888.73 1482.74 1890.41 1484.17 Q1892.11 1485.58 1893.99 1485.58 Q1896.01 1485.58 1897.69 1484.07 Q1899.4 1482.54 1899.92 1479.26 Q1900.48 1476.02 1900.46 1468.78 Q1900.46 1461.74 1899.97 1458.92 Q1899.3 1455.64 1897.52 1454.33 Q1895.77 1453 1893.99 1453 Q1893.32 1453 1892.6 1453.19 Q1891.91 1453.39 1890.9 1453.96 Q1889.89 1454.53 1889.1 1455.94 Q1888.33 1457.34 1887.96 1459.47 Q1887.57 1462.21 1887.57 1468.78 Z" fill="#000000" fill-rule="nonzero" fill-opacity="1" /><path clip-path="url(#clip030)" d="M2044.15 1456.7 L2044.15 1455.12 Q2050.23 1455.12 2053.37 1451.88 Q2054.23 1451.88 2054.38 1452.08 Q2054.53 1452.28 2054.53 1453.19 L2054.53 1481.58 Q2054.53 1483.08 2055.27 1483.55 Q2056.01 1484.02 2059.25 1484.02 L2060.85 1484.02 L2060.85 1485.58 Q2059.07 1485.43 2052.65 1485.43 Q2046.23 1485.43 2044.47 1485.58 L2044.47 1484.02 L2046.08 1484.02 Q2049.27 1484.02 2050.03 1483.58 Q2050.8 1483.11 2050.8 1481.58 L2050.8 1455.37 Q2048.16 1456.7 2044.15 1456.7 Z" fill="#000000" fill-rule="nonzero" fill-opacity="1" /><path clip-path="url(#clip030)" d="M2070.02 1484.76 Q2069.25 1483.95 2069.25 1482.89 Q2069.25 1481.82 2070.02 1481.06 Q2070.78 1480.27 2071.94 1480.27 Q2073.06 1480.27 2073.8 1481.01 Q2074.56 1481.73 2074.56 1482.91 Q2074.56 1484.07 2073.75 1484.84 Q2072.96 1485.58 2071.94 1485.58 Q2070.78 1485.58 2070.02 1484.76 Z" fill="#000000" fill-rule="nonzero" fill-opacity="1" /><path clip-path="url(#clip030)" d="M2081.53 1477.43 Q2081.53 1475.92 2082.35 1475.35 Q2083.16 1474.76 2084.02 1474.76 Q2085.19 1474.76 2085.85 1475.5 Q2086.54 1476.22 2086.54 1477.23 Q2086.54 1478.24 2085.85 1478.98 Q2085.19 1479.7 2084.02 1479.7 Q2083.46 1479.7 2083.16 1479.6 Q2083.83 1481.92 2085.85 1483.6 Q2087.9 1485.28 2090.6 1485.28 Q2093.98 1485.28 2096.01 1482 Q2097.22 1479.87 2097.22 1475.06 Q2097.22 1470.81 2096.3 1468.68 Q2094.89 1465.45 2092 1465.45 Q2087.9 1465.45 2085.48 1468.98 Q2085.19 1469.42 2084.84 1469.45 Q2084.35 1469.45 2084.22 1469.18 Q2084.12 1468.88 2084.12 1468.11 L2084.12 1453.14 Q2084.12 1451.93 2084.62 1451.93 Q2084.82 1451.93 2085.24 1452.08 Q2088.42 1453.49 2091.95 1453.51 Q2095.59 1453.51 2098.85 1452.03 Q2099.09 1451.88 2099.24 1451.88 Q2099.74 1451.88 2099.76 1452.45 Q2099.76 1452.65 2099.34 1453.24 Q2098.95 1453.81 2098.08 1454.58 Q2097.22 1455.32 2096.1 1456.03 Q2094.99 1456.75 2093.36 1457.25 Q2091.76 1457.71 2089.98 1457.71 Q2087.85 1457.71 2085.68 1457.05 L2085.68 1466.9 Q2088.3 1464.33 2092.1 1464.33 Q2096.15 1464.33 2098.95 1467.6 Q2101.74 1470.86 2101.74 1475.4 Q2101.74 1480.17 2098.43 1483.43 Q2095.14 1486.69 2090.69 1486.69 Q2086.64 1486.69 2084.07 1483.8 Q2081.53 1480.91 2081.53 1477.43 Z" fill="#000000" fill-rule="nonzero" fill-opacity="1" /><path clip-path="url(#clip030)" d="M1795.58 1551.5 L1797.23 1551.5 Q1798.16 1555.98 1798.61 1556.66 Q1799.25 1557.78 1802.06 1557.91 Q1802.64 1557.91 1803.63 1557.91 L1808.05 1557.91 Q1807.24 1554.89 1805.21 1551.41 Q1803.18 1547.9 1801.25 1545.29 Q1799.35 1542.68 1797.84 1539.14 Q1796.32 1535.56 1796.32 1532.18 Q1796.32 1525.45 1802.12 1520.59 Q1807.92 1515.69 1816.42 1515.69 Q1824.92 1515.69 1830.75 1520.55 Q1836.61 1525.38 1836.61 1532.18 Q1836.61 1535.53 1835.1 1539.07 Q1833.59 1542.61 1831.69 1545.22 Q1829.82 1547.83 1827.72 1551.37 Q1825.66 1554.89 1824.86 1557.91 L1829.37 1557.91 Q1833.07 1557.91 1833.81 1557.24 Q1834.55 1556.53 1835.36 1552.82 Q1835.49 1551.95 1835.62 1551.5 L1837.32 1551.5 L1835.16 1562.2 L1824.6 1562.2 Q1823.73 1562.2 1823.34 1561.94 Q1822.96 1561.68 1822.96 1560.75 Q1822.96 1556.27 1826.37 1546.64 Q1829.82 1537.01 1829.82 1532.18 Q1829.82 1525 1825.73 1521.07 Q1821.64 1517.14 1816.42 1517.14 Q1811.27 1517.14 1807.18 1521.04 Q1803.12 1524.93 1803.12 1532.18 Q1803.12 1537.08 1806.53 1546.67 Q1809.98 1556.27 1809.98 1560.68 Q1809.98 1561.75 1809.56 1561.97 Q1809.17 1562.2 1807.85 1562.2 L1797.77 1562.2 L1795.58 1551.5 Z" fill="#000000" fill-rule="nonzero" fill-opacity="1" /><path clip-path="url(#clip030)" d="M1874.13 1517.14 L1864.63 1555.27 Q1864.24 1556.98 1864.24 1558.43 Q1864.24 1561.46 1866.21 1561.46 Q1867.17 1561.46 1867.95 1560.84 Q1868.72 1560.23 1869.33 1558.94 Q1869.94 1557.65 1870.33 1556.46 Q1870.72 1555.24 1871.23 1553.31 Q1871.39 1552.53 1871.52 1552.34 Q1871.68 1552.12 1872.13 1552.12 Q1872.94 1552.12 1872.94 1552.76 Q1872.07 1556.91 1870.94 1559.3 Q1869.14 1562.94 1866.08 1562.94 Q1863.76 1562.94 1862.12 1561.52 Q1860.47 1560.1 1860.09 1557.98 Q1855.87 1562.94 1851.49 1562.94 Q1847.62 1562.94 1845.18 1560.01 Q1842.73 1557.04 1842.73 1552.37 Q1842.73 1547.67 1845.05 1543.16 Q1847.4 1538.65 1851.1 1535.85 Q1854.81 1533.05 1858.61 1533.05 Q1862.63 1533.05 1864.69 1537.27 L1868.66 1521.62 L1868.85 1520.33 Q1868.85 1519.94 1868.69 1519.75 Q1868.56 1519.52 1867.79 1519.36 Q1867.04 1519.2 1865.56 1519.2 Q1864.95 1519.2 1864.66 1519.17 Q1864.4 1519.14 1864.18 1518.98 Q1863.95 1518.78 1863.95 1518.4 Q1863.95 1517.27 1864.89 1517.14 Q1871.07 1516.43 1873.26 1516.43 Q1873.65 1516.43 1873.87 1516.62 Q1874.1 1516.79 1874.1 1516.98 L1874.13 1517.14 M1863.89 1540.3 Q1863.89 1540.01 1863.66 1539.2 Q1863.44 1538.4 1862.92 1537.27 Q1862.41 1536.14 1861.28 1535.34 Q1860.19 1534.5 1858.7 1534.5 Q1856.71 1534.5 1854.61 1536.21 Q1852.55 1537.91 1851.04 1540.81 Q1849.88 1543.13 1848.62 1547.99 Q1847.4 1552.86 1847.4 1555.27 Q1847.4 1556.75 1847.72 1558.07 Q1848.08 1559.36 1849.07 1560.42 Q1850.07 1561.46 1851.62 1561.46 Q1855.39 1561.46 1859.09 1556.79 Q1859.8 1555.98 1859.96 1555.66 Q1860.15 1555.3 1860.41 1554.34 L1863.7 1541.42 Q1863.89 1540.46 1863.89 1540.3 Z" fill="#000000" fill-rule="nonzero" fill-opacity="1" /><polyline clip-path="url(#clip030)" style="stroke:#000000; stroke-linecap:round; stroke-linejoin:round; stroke-width:4; stroke-opacity:1; fill:none" points="1459.58,1423.18 1459.58,47.2441 "/>
<polyline clip-path="url(#clip030)" style="stroke:#000000; stroke-linecap:round; stroke-linejoin:round; stroke-width:4; stroke-opacity:1; fill:none" points="1459.58,1214.21 1475.52,1214.21 "/>
<polyline clip-path="url(#clip030)" style="stroke:#000000; stroke-linecap:round; stroke-linejoin:round; stroke-width:4; stroke-opacity:1; fill:none" points="1459.58,974.711 1475.52,974.711 "/>
<polyline clip-path="url(#clip030)" style="stroke:#000000; stroke-linecap:round; stroke-linejoin:round; stroke-width:4; stroke-opacity:1; fill:none" points="1459.58,735.212 1475.52,735.212 "/>
<polyline clip-path="url(#clip030)" style="stroke:#000000; stroke-linecap:round; stroke-linejoin:round; stroke-width:4; stroke-opacity:1; fill:none" points="1459.58,495.713 1475.52,495.713 "/>
<polyline clip-path="url(#clip030)" style="stroke:#000000; stroke-linecap:round; stroke-linejoin:round; stroke-width:4; stroke-opacity:1; fill:none" points="1459.58,256.214 1475.52,256.214 "/>
<path clip-path="url(#clip030)" d="M1371.91 1218.13 Q1372.2 1218.42 1372.2 1218.84 Q1372.2 1219.26 1371.91 1219.56 Q1371.61 1219.85 1371.19 1219.85 L1339.52 1219.85 Q1339.1 1219.85 1338.8 1219.56 Q1338.51 1219.26 1338.51 1218.84 Q1338.51 1218.42 1338.8 1218.13 Q1339.1 1217.83 1339.52 1217.83 L1371.19 1217.83 Q1371.61 1217.83 1371.91 1218.13 Z" fill="#000000" fill-rule="nonzero" fill-opacity="1" /><path clip-path="url(#clip030)" d="M1376.43 1223.14 L1376.43 1221.58 L1391.96 1197.84 Q1392.36 1197.23 1392.98 1197.25 Q1393.55 1197.25 1393.67 1197.47 Q1393.79 1197.7 1393.79 1198.56 L1393.79 1221.58 L1398.86 1221.58 L1398.86 1223.14 L1393.79 1223.14 L1393.79 1227.54 Q1393.79 1228.99 1394.39 1229.46 Q1395 1229.93 1397.62 1229.93 L1398.68 1229.93 L1398.68 1231.49 Q1396.61 1231.34 1391.82 1231.34 Q1387.05 1231.34 1384.97 1231.49 L1384.97 1229.93 L1386.04 1229.93 Q1388.65 1229.93 1389.27 1229.49 Q1389.89 1229.02 1389.89 1227.54 L1389.89 1223.14 L1376.43 1223.14 M1377.86 1221.58 L1390.19 1221.58 L1390.19 1202.71 L1377.86 1221.58 Z" fill="#000000" fill-rule="nonzero" fill-opacity="1" /><path clip-path="url(#clip030)" d="M1402.29 1215.31 Q1402.29 1207.87 1404.17 1203.82 Q1406.79 1197.79 1412.96 1197.79 Q1414.27 1197.79 1415.63 1198.16 Q1417.01 1198.51 1418.74 1199.87 Q1420.5 1201.23 1421.56 1203.45 Q1423.58 1207.75 1423.58 1215.31 Q1423.58 1222.7 1421.71 1226.72 Q1418.96 1232.6 1412.91 1232.6 Q1410.64 1232.6 1408.32 1231.44 Q1406.02 1230.28 1404.56 1227.49 Q1402.29 1223.31 1402.29 1215.31 M1406.49 1214.69 Q1406.49 1222.32 1407.03 1225.36 Q1407.65 1228.65 1409.33 1230.08 Q1411.04 1231.49 1412.91 1231.49 Q1414.94 1231.49 1416.62 1229.98 Q1418.32 1228.45 1418.84 1225.17 Q1419.41 1221.93 1419.38 1214.69 Q1419.38 1207.65 1418.89 1204.83 Q1418.22 1201.55 1416.45 1200.24 Q1414.69 1198.91 1412.91 1198.91 Q1412.25 1198.91 1411.53 1199.1 Q1410.84 1199.3 1409.82 1199.87 Q1408.81 1200.44 1408.02 1201.85 Q1407.26 1203.25 1406.89 1205.38 Q1406.49 1208.12 1406.49 1214.69 Z" fill="#000000" fill-rule="nonzero" fill-opacity="1" /><path clip-path="url(#clip030)" d="M1371.91 978.626 Q1372.2 978.923 1372.2 979.343 Q1372.2 979.763 1371.91 980.059 Q1371.61 980.355 1371.19 980.355 L1339.52 980.355 Q1339.1 980.355 1338.8 980.059 Q1338.51 979.763 1338.51 979.343 Q1338.51 978.923 1338.8 978.626 Q1339.1 978.33 1339.52 978.33 L1371.19 978.33 Q1371.61 978.33 1371.91 978.626 Z" fill="#000000" fill-rule="nonzero" fill-opacity="1" /><path clip-path="url(#clip030)" d="M1377.54 991.991 Q1377.54 991.077 1377.61 990.805 Q1377.71 990.533 1378.11 990.113 L1387.81 979.293 Q1393.13 973.315 1393.13 968.103 Q1393.13 964.718 1391.35 962.297 Q1389.59 959.876 1386.36 959.876 Q1384.13 959.876 1382.26 961.235 Q1380.38 962.594 1379.51 965.015 Q1379.66 964.965 1380.18 964.965 Q1381.44 964.965 1382.13 965.756 Q1382.85 966.546 1382.85 967.609 Q1382.85 968.967 1381.96 969.634 Q1381.09 970.277 1380.23 970.277 Q1379.88 970.277 1379.41 970.202 Q1378.97 970.128 1378.25 969.437 Q1377.54 968.72 1377.54 967.46 Q1377.54 963.928 1380.21 961.112 Q1382.9 958.295 1387 958.295 Q1391.64 958.295 1394.68 961.062 Q1397.74 963.804 1397.74 968.103 Q1397.74 969.61 1397.28 970.993 Q1396.83 972.352 1396.21 973.414 Q1395.62 974.476 1393.99 976.181 Q1392.36 977.885 1391.05 979.096 Q1389.74 980.306 1386.8 982.875 L1381.44 988.088 L1390.56 988.088 Q1395 988.088 1395.35 987.692 Q1395.84 986.976 1396.46 983.196 L1397.74 983.196 L1396.31 991.991 L1377.54 991.991 Z" fill="#000000" fill-rule="nonzero" fill-opacity="1" /><path clip-path="url(#clip030)" d="M1402.29 975.81 Q1402.29 968.374 1404.17 964.323 Q1406.79 958.295 1412.96 958.295 Q1414.27 958.295 1415.63 958.666 Q1417.01 959.012 1418.74 960.37 Q1420.5 961.729 1421.56 963.952 Q1423.58 968.251 1423.58 975.81 Q1423.58 983.196 1421.71 987.223 Q1418.96 993.102 1412.91 993.102 Q1410.64 993.102 1408.32 991.941 Q1406.02 990.78 1404.56 987.989 Q1402.29 983.814 1402.29 975.81 M1406.49 975.192 Q1406.49 982.826 1407.03 985.864 Q1407.65 989.15 1409.33 990.583 Q1411.04 991.991 1412.91 991.991 Q1414.94 991.991 1416.62 990.484 Q1418.32 988.952 1418.84 985.667 Q1419.41 982.431 1419.38 975.192 Q1419.38 968.152 1418.89 965.336 Q1418.22 962.05 1416.45 960.741 Q1414.69 959.407 1412.91 959.407 Q1412.25 959.407 1411.53 959.605 Q1410.84 959.802 1409.82 960.37 Q1408.81 960.939 1408.02 962.347 Q1407.26 963.755 1406.89 965.879 Q1406.49 968.621 1406.49 975.192 Z" fill="#000000" fill-rule="nonzero" fill-opacity="1" /><path clip-path="url(#clip030)" d="M1402.29 736.311 Q1402.29 728.876 1404.17 724.824 Q1406.79 718.797 1412.96 718.797 Q1414.27 718.797 1415.63 719.167 Q1417.01 719.513 1418.74 720.872 Q1420.5 722.23 1421.56 724.454 Q1423.58 728.752 1423.58 736.311 Q1423.58 743.698 1421.71 747.724 Q1418.96 753.604 1412.91 753.604 Q1410.64 753.604 1408.32 752.443 Q1406.02 751.282 1404.56 748.49 Q1402.29 744.315 1402.29 736.311 M1406.49 735.694 Q1406.49 743.327 1407.03 746.366 Q1407.65 749.651 1409.33 751.084 Q1411.04 752.492 1412.91 752.492 Q1414.94 752.492 1416.62 750.985 Q1418.32 749.453 1418.84 746.168 Q1419.41 742.932 1419.38 735.694 Q1419.38 728.653 1418.89 725.837 Q1418.22 722.551 1416.45 721.242 Q1414.69 719.908 1412.91 719.908 Q1412.25 719.908 1411.53 720.106 Q1410.84 720.303 1409.82 720.872 Q1408.81 721.44 1408.02 722.848 Q1407.26 724.256 1406.89 726.381 Q1406.49 729.123 1406.49 735.694 Z" fill="#000000" fill-rule="nonzero" fill-opacity="1" /><path clip-path="url(#clip030)" d="M1377.54 512.993 Q1377.54 512.079 1377.61 511.807 Q1377.71 511.536 1378.11 511.116 L1387.81 500.296 Q1393.13 494.317 1393.13 489.105 Q1393.13 485.721 1391.35 483.3 Q1389.59 480.879 1386.36 480.879 Q1384.13 480.879 1382.26 482.237 Q1380.38 483.596 1379.51 486.017 Q1379.66 485.968 1380.18 485.968 Q1381.44 485.968 1382.13 486.758 Q1382.85 487.549 1382.85 488.611 Q1382.85 489.97 1381.96 490.637 Q1381.09 491.279 1380.23 491.279 Q1379.88 491.279 1379.41 491.205 Q1378.97 491.131 1378.25 490.439 Q1377.54 489.723 1377.54 488.463 Q1377.54 484.93 1380.21 482.114 Q1382.9 479.298 1387 479.298 Q1391.64 479.298 1394.68 482.065 Q1397.74 484.807 1397.74 489.105 Q1397.74 490.612 1397.28 491.995 Q1396.83 493.354 1396.21 494.416 Q1395.62 495.478 1393.99 497.183 Q1392.36 498.888 1391.05 500.098 Q1389.74 501.308 1386.8 503.878 L1381.44 509.09 L1390.56 509.09 Q1395 509.09 1395.35 508.695 Q1395.84 507.978 1396.46 504.199 L1397.74 504.199 L1396.31 512.993 L1377.54 512.993 Z" fill="#000000" fill-rule="nonzero" fill-opacity="1" /><path clip-path="url(#clip030)" d="M1402.29 496.812 Q1402.29 489.377 1404.17 485.325 Q1406.79 479.298 1412.96 479.298 Q1414.27 479.298 1415.63 479.668 Q1417.01 480.014 1418.74 481.373 Q1420.5 482.732 1421.56 484.955 Q1423.58 489.253 1423.58 496.812 Q1423.58 504.199 1421.71 508.225 Q1418.96 514.105 1412.91 514.105 Q1410.64 514.105 1408.32 512.944 Q1406.02 511.783 1404.56 508.991 Q1402.29 504.816 1402.29 496.812 M1406.49 496.195 Q1406.49 503.828 1407.03 506.867 Q1407.65 510.152 1409.33 511.585 Q1411.04 512.993 1412.91 512.993 Q1414.94 512.993 1416.62 511.486 Q1418.32 509.955 1418.84 506.669 Q1419.41 503.433 1419.38 496.195 Q1419.38 489.154 1418.89 486.338 Q1418.22 483.053 1416.45 481.743 Q1414.69 480.409 1412.91 480.409 Q1412.25 480.409 1411.53 480.607 Q1410.84 480.805 1409.82 481.373 Q1408.81 481.941 1408.02 483.349 Q1407.26 484.757 1406.89 486.882 Q1406.49 489.624 1406.49 496.195 Z" fill="#000000" fill-rule="nonzero" fill-opacity="1" /><path clip-path="url(#clip030)" d="M1376.43 265.145 L1376.43 263.588 L1391.96 239.848 Q1392.36 239.231 1392.98 239.256 Q1393.55 239.256 1393.67 239.478 Q1393.79 239.7 1393.79 240.565 L1393.79 263.588 L1398.86 263.588 L1398.86 265.145 L1393.79 265.145 L1393.79 269.542 Q1393.79 270.999 1394.39 271.469 Q1395 271.938 1397.62 271.938 L1398.68 271.938 L1398.68 273.494 Q1396.61 273.346 1391.82 273.346 Q1387.05 273.346 1384.97 273.494 L1384.97 271.938 L1386.04 271.938 Q1388.65 271.938 1389.27 271.493 Q1389.89 271.024 1389.89 269.542 L1389.89 265.145 L1376.43 265.145 M1377.86 263.588 L1390.19 263.588 L1390.19 244.715 L1377.86 263.588 Z" fill="#000000" fill-rule="nonzero" fill-opacity="1" /><path clip-path="url(#clip030)" d="M1402.29 257.314 Q1402.29 249.878 1404.17 245.827 Q1406.79 239.799 1412.96 239.799 Q1414.27 239.799 1415.63 240.17 Q1417.01 240.515 1418.74 241.874 Q1420.5 243.233 1421.56 245.456 Q1423.58 249.754 1423.58 257.314 Q1423.58 264.7 1421.71 268.727 Q1418.96 274.606 1412.91 274.606 Q1410.64 274.606 1408.32 273.445 Q1406.02 272.284 1404.56 269.492 Q1402.29 265.318 1402.29 257.314 M1406.49 256.696 Q1406.49 264.329 1407.03 267.368 Q1407.65 270.653 1409.33 272.086 Q1411.04 273.494 1412.91 273.494 Q1414.94 273.494 1416.62 271.987 Q1418.32 270.456 1418.84 267.17 Q1419.41 263.934 1419.38 256.696 Q1419.38 249.656 1418.89 246.839 Q1418.22 243.554 1416.45 242.245 Q1414.69 240.911 1412.91 240.911 Q1412.25 240.911 1411.53 241.108 Q1410.84 241.306 1409.82 241.874 Q1408.81 242.442 1408.02 243.85 Q1407.26 245.258 1406.89 247.383 Q1406.49 250.125 1406.49 256.696 Z" fill="#000000" fill-rule="nonzero" fill-opacity="1" /><path clip-path="url(#clip030)" d="M1185.14 901.675 L1183.08 901.675 Q1183.08 893.752 1178.86 889.662 Q1178.86 888.535 1179.12 888.341 Q1179.38 888.148 1180.57 888.148 L1217.57 888.148 Q1219.54 888.148 1220.15 887.182 Q1220.76 886.216 1220.76 881.997 L1220.76 879.904 L1222.79 879.904 Q1222.6 882.222 1222.6 890.596 Q1222.6 898.969 1222.79 901.256 L1220.76 901.256 L1220.76 899.163 Q1220.76 895.008 1220.18 894.01 Q1219.57 893.011 1217.57 893.011 L1183.4 893.011 Q1185.14 896.457 1185.14 901.675 Z" fill="#000000" fill-rule="nonzero" fill-opacity="1" /><path clip-path="url(#clip030)" d="M1240.39 927.675 L1240.39 846.11 L1236.87 846.11 L1236.87 927.675  Z" fill="#000000" fill-rule="evenodd" fill-opacity="1"/>
<path clip-path="url(#clip030)" d="M1298.52 927.675 L1285.45 919.198 L1302.79 915.749 L1305.96 915.103 Q1305.13 914.959 1303.73 914.528 Q1302.29 914.061 1301.93 913.989 L1258.22 902.603 Q1257.93 902.531 1257.46 902.423 Q1256.96 902.28 1256.78 902.208 Q1256.6 902.136 1256.24 902.028 Q1255.88 901.92 1255.78 901.849 Q1255.63 901.777 1255.38 901.669 Q1255.13 901.561 1255.06 901.417 Q1254.99 901.274 1254.84 901.094 Q1254.7 900.915 1254.66 900.699 Q1254.63 900.448 1254.59 900.196 Q1254.55 899.945 1254.55 899.586 L1254.55 893.156 Q1254.55 890.893 1256.03 890.893 Q1257.5 890.893 1257.5 893.084 L1257.5 899.37 L1314.22 914.205 Q1315.04 914.42 1315.37 914.6 Q1315.69 914.744 1315.98 915.247 Q1316.26 915.749 1316.26 916.647 L1316.26 917.366 L1292.88 922.071 L1299.71 926.489 L1298.52 927.675 Z" fill="#000000" fill-rule="nonzero" fill-opacity="1" /><path clip-path="url(#clip030)" d="M1257.53 893.308 L1257.53 853.15 L1254.47 853.15 L1254.47 893.308  Z" fill="#000000" fill-rule="evenodd" fill-opacity="1"/>
<path clip-path="url(#clip030)" d="M1316.04 886.268 Q1314.85 886.268 1314.5 886.172 Q1314.14 886.043 1313.6 885.528 L1299.49 872.871 Q1291.7 865.947 1284.9 865.947 Q1280.49 865.947 1277.33 868.265 Q1274.18 870.552 1274.18 874.771 Q1274.18 877.669 1275.95 880.117 Q1277.72 882.565 1280.87 883.692 Q1280.81 883.499 1280.81 882.822 Q1280.81 881.18 1281.84 880.278 Q1282.87 879.344 1284.26 879.344 Q1286.03 879.344 1286.9 880.504 Q1287.73 881.631 1287.73 882.758 Q1287.73 883.209 1287.64 883.821 Q1287.54 884.4 1286.64 885.334 Q1285.71 886.268 1284.06 886.268 Q1279.46 886.268 1275.79 882.79 Q1272.11 879.28 1272.11 873.934 Q1272.11 867.879 1275.72 863.918 Q1279.3 859.924 1284.9 859.924 Q1286.86 859.924 1288.67 860.536 Q1290.44 861.116 1291.82 861.921 Q1293.21 862.694 1295.43 864.819 Q1297.65 866.945 1299.23 868.652 Q1300.81 870.359 1304.16 874.191 L1310.95 881.18 L1310.95 869.296 Q1310.95 863.499 1310.44 863.048 Q1309.51 862.404 1304.58 861.599 L1304.58 859.924 L1316.04 861.792 L1316.04 886.268 Z" fill="#000000" fill-rule="nonzero" fill-opacity="1" /><path clip-path="url(#clip030)" d="M1236.03 814.81 Q1237.06 813.779 1238.48 813.779 Q1239.9 813.779 1240.96 814.81 Q1241.99 815.84 1241.99 817.257 Q1241.99 818.674 1240.96 819.737 Q1239.9 820.768 1238.48 820.768 Q1237.06 820.768 1236.03 819.737 Q1234.97 818.674 1234.97 817.257 Q1234.97 815.84 1236.03 814.81 Z" fill="#000000" fill-rule="nonzero" fill-opacity="1" /><path clip-path="url(#clip030)" d="M1245.55 784.315 Q1235.77 784.315 1227.89 780.668 Q1224.58 779.114 1221.81 776.937 Q1219.04 774.76 1217.82 773.319 Q1216.61 771.877 1216.61 771.481 Q1216.61 770.916 1217.17 770.888 Q1217.45 770.888 1218.16 771.651 Q1227.66 780.979 1245.55 780.951 Q1263.5 780.951 1272.63 771.877 Q1273.62 770.888 1273.93 770.888 Q1274.5 770.888 1274.5 771.481 Q1274.5 771.877 1273.34 773.262 Q1272.18 774.647 1269.52 776.796 Q1266.87 778.944 1263.62 780.499 Q1255.73 784.315 1245.55 784.315 Z" fill="#000000" fill-rule="nonzero" fill-opacity="1" /><path clip-path="url(#clip030)" d="M1247.33 729.639 Q1247.62 729.381 1247.91 729.381 Q1248.2 729.381 1249.04 730.025 Q1249.88 730.637 1251.01 731.957 Q1252.13 733.278 1253.2 734.985 Q1254.26 736.692 1254.97 739.204 Q1255.71 741.716 1255.71 744.357 Q1255.71 749.284 1252.46 752.183 Q1249.2 755.049 1244.53 755.049 Q1239.99 755.049 1235.64 752.505 Q1231.26 749.96 1228.56 745.838 Q1225.82 741.716 1225.82 737.368 Q1225.82 733.922 1227.43 731.764 Q1229.04 729.606 1231.49 729.606 Q1233.39 729.606 1234.55 730.701 Q1235.71 731.796 1235.71 733.278 Q1235.71 734.308 1235.13 735.017 Q1234.52 735.725 1233.39 735.725 Q1231.94 735.725 1230.81 734.534 Q1230.36 734.083 1230.17 733.568 Q1229.94 733.02 1229.94 732.698 Q1229.91 732.376 1229.91 731.635 Q1228.66 732.312 1227.98 733.922 Q1227.27 735.5 1227.27 737.304 Q1227.27 739.977 1229.14 742.521 Q1230.97 745.065 1233.87 746.611 Q1236.71 748.157 1240.73 749.155 Q1244.73 750.154 1247.04 750.154 Q1250.23 750.154 1252.23 748.672 Q1254.23 747.191 1254.23 744.228 Q1254.23 743.648 1254.19 743.036 Q1254.16 742.392 1253.81 740.782 Q1253.45 739.139 1252.84 737.69 Q1252.23 736.241 1250.91 734.405 Q1249.56 732.537 1247.72 731.056 Q1247.04 730.54 1247.04 730.186 Q1247.04 729.896 1247.33 729.639 Z" fill="#000000" fill-rule="nonzero" fill-opacity="1" /><path clip-path="url(#clip030)" d="M1250.43 703.785 Q1251.62 703.785 1252.39 704.574 Q1253.15 705.341 1253.15 706.333 Q1253.15 707.189 1252.66 707.64 Q1252.16 708.091 1251.53 708.091 Q1250.63 708.091 1249.88 707.392 Q1249.14 706.694 1248.98 705.679 Q1248.44 706.423 1248.44 707.618 Q1248.44 709.579 1249.95 711.315 Q1250.65 712.082 1251.94 712.916 Q1253.2 713.75 1253.74 713.908 L1259.76 715.373 Q1260.43 715.508 1263.68 716.342 Q1266.91 717.154 1267.04 717.222 Q1267.67 717.447 1268.01 717.943 Q1268.35 718.439 1268.35 718.935 Q1268.35 719.499 1268.01 719.882 Q1267.67 720.265 1267.09 720.265 Q1267 720.265 1266.66 720.197 Q1266.32 720.13 1265.85 720.017 Q1265.37 719.904 1265.1 719.859 L1254.44 717.177 Q1252.5 716.681 1251.89 716.568 Q1251.26 716.433 1250.56 716.433 Q1249.34 716.433 1248.89 716.816 Q1248.44 717.199 1248.44 717.875 Q1248.44 719.048 1249.84 719.814 Q1251.24 720.581 1253.94 721.234 Q1254.69 721.437 1254.84 721.573 Q1255 721.685 1255 722.024 Q1254.98 722.587 1254.53 722.587 Q1254.42 722.587 1253.69 722.407 Q1252.95 722.226 1251.87 721.888 Q1250.76 721.528 1250.06 721.144 Q1249.59 720.919 1249.28 720.716 Q1248.96 720.513 1248.46 720.107 Q1247.97 719.701 1247.7 719.093 Q1247.43 718.484 1247.43 717.74 Q1247.43 716.117 1248.42 714.967 Q1249.41 713.795 1250.97 713.524 Q1250.15 712.961 1249.46 712.262 Q1248.73 711.563 1248.08 710.278 Q1247.43 708.993 1247.43 707.618 Q1247.43 705.904 1248.31 704.845 Q1249.16 703.785 1250.43 703.785 Z" fill="#000000" fill-rule="nonzero" fill-opacity="1" /><path clip-path="url(#clip030)" d="M1239.28 677.115 Q1239.28 678.629 1238.48 678.629 Q1237.67 678.629 1237.67 677.051 Q1237.67 676.858 1237.71 676.535 Q1237.74 676.181 1237.74 676.117 L1237.74 657.534 L1219.09 657.534 Q1219.03 657.534 1218.74 657.566 Q1218.41 657.598 1218.22 657.598 Q1216.64 657.598 1216.64 656.825 Q1216.64 656.02 1218.22 656.02 L1237.74 656.02 L1237.74 637.405 Q1237.74 637.341 1237.71 637.019 Q1237.67 636.697 1237.67 636.504 Q1237.67 634.99 1238.48 634.99 Q1239.28 634.958 1239.28 636.568 Q1239.28 636.761 1239.25 637.051 Q1239.22 637.341 1239.22 637.405 L1239.22 656.02 L1258.8 656.02 Q1260.31 656.02 1260.31 656.825 Q1260.31 657.598 1258.74 657.598 Q1258.54 657.598 1258.22 657.566 Q1257.93 657.534 1257.87 657.534 L1239.22 657.534 L1239.22 676.117 Q1239.22 676.181 1239.25 676.568 Q1239.28 676.922 1239.28 677.115 Z" fill="#000000" fill-rule="nonzero" fill-opacity="1" /><path clip-path="url(#clip030)" d="M1247.33 584.102 Q1247.62 583.844 1247.91 583.844 Q1248.2 583.844 1249.04 584.488 Q1249.88 585.1 1251.01 586.42 Q1252.13 587.741 1253.2 589.448 Q1254.26 591.155 1254.97 593.667 Q1255.71 596.179 1255.71 598.82 Q1255.71 603.747 1252.46 606.646 Q1249.2 609.512 1244.53 609.512 Q1239.99 609.512 1235.64 606.968 Q1231.26 604.423 1228.56 600.301 Q1225.82 596.179 1225.82 591.831 Q1225.82 588.385 1227.43 586.227 Q1229.04 584.069 1231.49 584.069 Q1233.39 584.069 1234.55 585.164 Q1235.71 586.259 1235.71 587.741 Q1235.71 588.771 1235.13 589.48 Q1234.52 590.188 1233.39 590.188 Q1231.94 590.188 1230.81 588.997 Q1230.36 588.546 1230.17 588.031 Q1229.94 587.483 1229.94 587.161 Q1229.91 586.839 1229.91 586.098 Q1228.66 586.775 1227.98 588.385 Q1227.27 589.963 1227.27 591.767 Q1227.27 594.44 1229.14 596.984 Q1230.97 599.528 1233.87 601.074 Q1236.71 602.62 1240.73 603.618 Q1244.73 604.617 1247.04 604.617 Q1250.23 604.617 1252.23 603.135 Q1254.23 601.654 1254.23 598.691 Q1254.23 598.111 1254.19 597.499 Q1254.16 596.855 1253.81 595.245 Q1253.45 593.602 1252.84 592.153 Q1252.23 590.704 1250.91 588.868 Q1249.56 587 1247.72 585.519 Q1247.04 585.003 1247.04 584.649 Q1247.04 584.359 1247.33 584.102 Z" fill="#000000" fill-rule="nonzero" fill-opacity="1" /><path clip-path="url(#clip030)" d="M1244.98 565.26 Q1245.98 565.26 1246.72 566.071 Q1247.44 566.86 1247.44 567.717 Q1247.44 568.506 1246.97 569.002 Q1246.47 569.475 1245.77 569.475 Q1244.85 569.475 1244.08 568.686 Q1243.32 567.897 1243.32 566.973 Q1243.32 566.206 1243.79 565.733 Q1244.26 565.26 1244.98 565.26 M1267.24 564.854 Q1267.42 564.854 1268.14 565.057 Q1268.84 565.26 1269.92 565.755 Q1270.98 566.229 1271.97 566.883 Q1272.96 567.536 1273.66 568.619 Q1274.36 569.678 1274.36 570.896 Q1274.36 572.541 1273.28 573.623 Q1272.19 574.683 1270.57 574.683 Q1269.69 574.683 1266.87 573.623 Q1258.67 570.557 1258.33 570.445 Q1257.05 569.926 1255.92 569.926 Q1255.4 569.926 1255.08 570.039 Q1254.75 570.152 1254.63 570.377 Q1254.5 570.602 1254.48 570.738 Q1254.45 570.85 1254.45 571.076 Q1254.45 572.406 1255.81 573.646 Q1257.16 574.886 1260.18 575.743 Q1260.74 575.923 1260.88 576.036 Q1261.01 576.148 1261.01 576.486 Q1260.99 577.05 1260.54 577.05 Q1260.4 577.05 1259.89 576.892 Q1259.34 576.734 1258.53 576.441 Q1257.7 576.148 1256.84 575.63 Q1255.96 575.111 1255.2 574.48 Q1254.43 573.826 1253.93 572.902 Q1253.44 571.978 1253.44 570.941 Q1253.44 569.25 1254.54 568.213 Q1255.62 567.153 1257.23 567.153 Q1258.1 567.153 1259.66 567.762 Q1261.69 568.506 1262.34 568.776 L1267.19 570.58 Q1268.95 571.234 1269.49 571.437 Q1270.01 571.617 1270.64 571.775 Q1271.25 571.91 1271.81 571.91 Q1272.6 571.91 1272.96 571.662 Q1273.32 571.392 1273.32 570.805 Q1273.32 569.182 1271.72 567.987 Q1270.1 566.793 1267.62 566.094 Q1267.55 566.071 1267.44 566.049 Q1266.87 565.868 1266.81 565.688 Q1266.78 565.598 1266.78 565.417 Q1266.78 564.854 1267.24 564.854 Z" fill="#000000" fill-rule="nonzero" fill-opacity="1" /><path clip-path="url(#clip030)" d="M1273.93 550.895 Q1273.65 550.895 1272.95 550.16 Q1263.45 540.832 1245.55 540.832 Q1227.6 540.832 1218.53 549.793 Q1217.48 550.895 1217.17 550.895 Q1216.61 550.895 1216.61 550.33 Q1216.61 549.934 1217.77 548.549 Q1218.92 547.135 1221.58 545.015 Q1224.24 542.867 1227.49 541.284 Q1235.38 537.468 1245.55 537.468 Q1255.33 537.468 1263.22 541.114 Q1266.53 542.669 1269.3 544.846 Q1272.07 547.022 1273.28 548.464 Q1274.5 549.906 1274.5 550.33 Q1274.5 550.895 1273.93 550.895 Z" fill="#000000" fill-rule="nonzero" fill-opacity="1" /><polyline clip-path="url(#clip033)" style="stroke:#009af9; stroke-linecap:round; stroke-linejoin:round; stroke-width:8; stroke-opacity:1; fill:none" points="1480.9,735.212 1488.07,735.212 1495.25,735.212 1502.43,735.212 1509.6,735.212 1516.78,735.212 1523.96,735.212 1531.13,735.212 1538.31,735.212 1545.49,735.212 1552.66,735.212 1559.84,735.212 1567.01,735.212 1574.19,735.212 1581.37,735.212 1588.54,735.212 1595.72,735.212 1602.9,735.212 1610.07,735.212 1617.25,735.212 1624.42,735.212 1631.6,735.212 1638.78,735.212 1645.95,735.212 1653.13,735.212 1660.31,735.212 1667.48,735.212 1674.66,735.212 1681.84,735.212 1689.01,735.212 1696.19,735.212 1703.36,735.212 1710.54,735.212 1717.72,735.212 1724.89,735.212 "/>
<polyline clip-path="url(#clip033)" style="stroke:#e26f46; stroke-linecap:round; stroke-linejoin:round; stroke-width:8; stroke-opacity:1; fill:none" points="1732.07,799.039 1739.25,838.129 1746.42,866.018 1753.6,888.927 1760.78,908.839 1767.95,926.692 1775.13,943.016 1782.3,958.149 1789.48,972.317 1796.66,985.686 1803.83,998.376 1811.01,1010.48 1818.19,1022.08 1825.36,1033.22 1832.54,1043.96 1839.71,1054.35 1846.89,1064.4 1854.07,1074.15 1861.24,1083.64 1868.42,1092.87 1875.6,1101.87 1882.77,1110.65 1889.95,1119.23 1897.13,1127.63 1904.3,1135.85 1911.48,1143.9 1918.65,1151.8 1925.83,1159.55 1933.01,1167.16 1940.18,1174.64 1947.36,1182 1954.54,1189.23 1961.71,1196.36 1968.89,1203.37 1976.06,1210.28 1983.24,1217.09 1990.42,1223.81 1997.59,1230.43 2004.77,1236.97 2011.95,1243.43 2019.12,1249.8 2026.3,1256.09 2033.48,1262.31 2040.65,1268.46 2047.83,1274.54 2055,1280.55 2062.18,1286.49 2069.36,1292.37 2076.53,1298.19 2083.71,1303.95 2090.89,1309.65 2098.06,1315.3 2105.24,1320.89 2112.42,1326.43 2119.59,1331.91 2126.77,1337.35 2133.94,1342.74 2141.12,1348.08 2148.3,1353.38 2155.47,1358.63 2162.65,1363.83 2169.83,1368.99 2177,1374.12 2184.18,1379.2 2191.35,1384.24 "/>
<polyline clip-path="url(#clip033)" style="stroke:#3da44d; stroke-linecap:round; stroke-linejoin:round; stroke-width:8; stroke-opacity:1; fill:none" points="1732.07,671.385 1739.25,632.295 1746.42,604.406 1753.6,581.497 1760.78,561.585 1767.95,543.732 1775.13,527.407 1782.3,512.275 1789.48,498.107 1796.66,484.738 1803.83,472.048 1811.01,459.942 1818.19,448.347 1825.36,437.202 1832.54,426.46 1839.71,416.079 1846.89,406.025 1854.07,396.269 1861.24,386.786 1868.42,377.555 1875.6,368.556 1882.77,359.772 1889.95,351.19 1897.13,342.795 1904.3,334.576 1911.48,326.522 1918.65,318.624 1925.83,310.873 1933.01,303.261 1940.18,295.78 1947.36,288.425 1954.54,281.19 1961.71,274.067 1968.89,267.053 1976.06,260.143 1983.24,253.331 1990.42,246.615 1997.59,239.99 2004.77,233.452 2011.95,226.998 2019.12,220.625 2026.3,214.33 2033.48,208.111 2040.65,201.963 2047.83,195.886 2055,189.877 2062.18,183.933 2069.36,178.053 2076.53,172.233 2083.71,166.474 2090.89,160.772 2098.06,155.126 2105.24,149.535 2112.42,143.997 2119.59,138.51 2126.77,133.073 2133.94,127.684 2141.12,122.343 2148.3,117.048 2155.47,111.798 2162.65,106.592 2169.83,101.429 2177,96.3076 2184.18,91.2267 2191.35,86.1857 "/>
<polyline clip-path="url(#clip033)" style="stroke:#009af9; stroke-linecap:round; stroke-linejoin:round; stroke-width:8; stroke-opacity:1; fill:none" stroke-dasharray="32, 20" points="1732.07,735.212 1739.25,735.212 1746.42,735.212 1753.6,735.212 1760.78,735.212 1767.95,735.212 1775.13,735.212 1782.3,735.212 1789.48,735.212 1796.66,735.212 1803.83,735.212 1811.01,735.212 1818.19,735.212 1825.36,735.212 1832.54,735.212 1839.71,735.212 1846.89,735.212 1854.07,735.212 1861.24,735.212 1868.42,735.212 1875.6,735.212 1882.77,735.212 1889.95,735.212 1897.13,735.212 1904.3,735.212 1911.48,735.212 1918.65,735.212 1925.83,735.212 1933.01,735.212 1940.18,735.212 1947.36,735.212 1954.54,735.212 1961.71,735.212 1968.89,735.212 1976.06,735.212 1983.24,735.212 1990.42,735.212 1997.59,735.212 2004.77,735.212 2011.95,735.212 2019.12,735.212 2026.3,735.212 2033.48,735.212 2040.65,735.212 2047.83,735.212 2055,735.212 2062.18,735.212 2069.36,735.212 2076.53,735.212 2083.71,735.212 2090.89,735.212 2098.06,735.212 2105.24,735.212 2112.42,735.212 2119.59,735.212 2126.77,735.212 2133.94,735.212 2141.12,735.212 2148.3,735.212 2155.47,735.212 2162.65,735.212 2169.83,735.212 2177,735.212 2184.18,735.212 2191.35,735.212 "/>
<path clip-path="url(#clip030)" d="M2242.44 858.836 L2352.76 858.836 L2352.76 651.476 L2242.44 651.476  Z" fill="#ffffff" fill-rule="evenodd" fill-opacity="1"/>
<polyline clip-path="url(#clip030)" style="stroke:#000000; stroke-linecap:round; stroke-linejoin:round; stroke-width:4; stroke-opacity:1; fill:none" points="2242.44,858.836 2352.76,858.836 2352.76,651.476 2242.44,651.476 2242.44,858.836 "/>
<polyline clip-path="url(#clip030)" style="stroke:#009af9; stroke-linecap:round; stroke-linejoin:round; stroke-width:8; stroke-opacity:1; fill:none" points="2252.37,703.316 2311.91,703.316 "/>
<path clip-path="url(#clip030)" d="M2321.83 691.718 L2321.83 690.137 Q2327.91 690.137 2331.05 686.901 Q2331.91 686.901 2332.06 687.099 Q2332.21 687.296 2332.21 688.21 L2332.21 716.595 Q2332.21 718.101 2332.95 718.571 Q2333.69 719.04 2336.93 719.04 L2338.53 719.04 L2338.53 720.596 Q2336.75 720.448 2330.33 720.448 Q2323.91 720.448 2322.16 720.596 L2322.16 719.04 L2323.76 719.04 Q2326.95 719.04 2327.71 718.596 Q2328.48 718.126 2328.48 716.595 L2328.48 690.384 Q2325.84 691.718 2321.83 691.718 Z" fill="#000000" fill-rule="nonzero" fill-opacity="1" /><polyline clip-path="url(#clip030)" style="stroke:#e26f46; stroke-linecap:round; stroke-linejoin:round; stroke-width:8; stroke-opacity:1; fill:none" points="2252.37,755.156 2311.91,755.156 "/>
<path clip-path="url(#clip030)" d="M2321.83 772.436 Q2321.83 771.522 2321.91 771.251 Q2322.01 770.979 2322.4 770.559 L2332.11 759.739 Q2337.42 753.761 2337.42 748.548 Q2337.42 745.164 2335.64 742.743 Q2333.89 740.322 2330.65 740.322 Q2328.43 740.322 2326.55 741.681 Q2324.67 743.039 2323.81 745.46 Q2323.96 745.411 2324.48 745.411 Q2325.74 745.411 2326.43 746.202 Q2327.15 746.992 2327.15 748.054 Q2327.15 749.413 2326.26 750.08 Q2325.39 750.722 2324.53 750.722 Q2324.18 750.722 2323.71 750.648 Q2323.27 750.574 2322.55 749.882 Q2321.83 749.166 2321.83 747.906 Q2321.83 744.373 2324.5 741.557 Q2327.19 738.741 2331.3 738.741 Q2335.94 738.741 2338.98 741.508 Q2342.04 744.25 2342.04 748.548 Q2342.04 750.055 2341.57 751.439 Q2341.13 752.797 2340.51 753.86 Q2339.92 754.922 2338.29 756.626 Q2336.66 758.331 2335.35 759.541 Q2334.04 760.752 2331.1 763.321 L2325.74 768.533 L2334.85 768.533 Q2339.3 768.533 2339.65 768.138 Q2340.14 767.422 2340.76 763.642 L2342.04 763.642 L2340.61 772.436 L2321.83 772.436 Z" fill="#000000" fill-rule="nonzero" fill-opacity="1" /><polyline clip-path="url(#clip030)" style="stroke:#3da44d; stroke-linecap:round; stroke-linejoin:round; stroke-width:8; stroke-opacity:1; fill:none" points="2252.37,806.996 2311.91,806.996 "/>
<path clip-path="url(#clip030)" d="M2321.83 817.458 Q2321.83 815.951 2322.7 815.235 Q2323.56 814.519 2324.67 814.519 Q2325.84 814.519 2326.65 815.284 Q2327.49 816.026 2327.49 817.335 Q2327.49 818.743 2326.5 819.533 Q2325.54 820.324 2324.16 820.126 Q2325.37 822.152 2327.59 823.066 Q2329.84 823.98 2331.91 823.98 Q2334.09 823.98 2335.84 822.103 Q2337.62 820.225 2337.62 815.63 Q2337.62 811.727 2336.09 809.479 Q2334.58 807.231 2331.59 807.231 L2329.37 807.231 Q2328.6 807.231 2328.38 807.157 Q2328.16 807.083 2328.16 806.663 Q2328.16 806.169 2328.92 806.07 Q2329.69 806.07 2330.9 805.922 Q2333.84 805.823 2335.4 803.279 Q2336.8 800.907 2336.8 797.523 Q2336.8 794.435 2335.32 793.15 Q2333.86 791.841 2331.96 791.841 Q2330.18 791.841 2328.23 792.582 Q2326.28 793.323 2325.22 794.978 Q2328.36 794.978 2328.36 797.523 Q2328.36 798.634 2327.64 799.376 Q2326.95 800.092 2325.79 800.092 Q2324.67 800.092 2323.93 799.4 Q2323.19 798.684 2323.19 797.473 Q2323.19 794.583 2325.76 792.582 Q2328.36 790.581 2332.16 790.581 Q2335.91 790.581 2338.68 792.557 Q2341.47 794.534 2341.47 797.572 Q2341.47 800.561 2339.5 803.007 Q2337.52 805.453 2334.38 806.465 Q2338.24 807.231 2340.53 809.85 Q2342.83 812.444 2342.83 815.63 Q2342.83 819.583 2339.72 822.498 Q2336.61 825.388 2332.06 825.388 Q2327.86 825.388 2324.85 823.115 Q2321.83 820.843 2321.83 817.458 Z" fill="#000000" fill-rule="nonzero" fill-opacity="1" /></svg>
