<?xml version="1.0" encoding="utf-8"?>
<svg xmlns="http://www.w3.org/2000/svg" xmlns:xlink="http://www.w3.org/1999/xlink" width="600" height="400" viewBox="0 0 2400 1600">
<defs>
  <clipPath id="clip480">
    <rect x="0" y="0" width="2400" height="1600"/>
  </clipPath>
</defs>
<path clip-path="url(#clip480)" d="M0 1600 L2400 1600 L2400 0 L0 0  Z" fill="#ffffff" fill-rule="evenodd" fill-opacity="1"/>
<defs>
  <clipPath id="clip481">
    <rect x="480" y="0" width="1681" height="1600"/>
  </clipPath>
</defs>
<path clip-path="url(#clip480)" d="M240.464 1423.18 L993.377 1423.18 L993.377 47.2441 L240.464 47.2441  Z" fill="#ffffff" fill-rule="evenodd" fill-opacity="1"/>
<defs>
  <clipPath id="clip482">
    <rect x="240" y="47" width="754" height="1377"/>
  </clipPath>
</defs>
<polyline clip-path="url(#clip482)" style="stroke:#000000; stroke-linecap:round; stroke-linejoin:round; stroke-width:2; stroke-opacity:0.1; fill:none" points="261.773,1423.18 261.773,47.2441 "/>
<polyline clip-path="url(#clip482)" style="stroke:#000000; stroke-linecap:round; stroke-linejoin:round; stroke-width:2; stroke-opacity:0.1; fill:none" points="459.077,1423.18 459.077,47.2441 "/>
<polyline clip-path="url(#clip482)" style="stroke:#000000; stroke-linecap:round; stroke-linejoin:round; stroke-width:2; stroke-opacity:0.1; fill:none" points="656.381,1423.18 656.381,47.2441 "/>
<polyline clip-path="url(#clip482)" style="stroke:#000000; stroke-linecap:round; stroke-linejoin:round; stroke-width:2; stroke-opacity:0.1; fill:none" points="853.685,1423.18 853.685,47.2441 "/>
<polyline clip-path="url(#clip482)" style="stroke:#000000; stroke-linecap:round; stroke-linejoin:round; stroke-width:2; stroke-opacity:0.1; fill:none" points="240.464,1384.24 993.377,1384.24 "/>
<polyline clip-path="url(#clip482)" style="stroke:#000000; stroke-linecap:round; stroke-linejoin:round; stroke-width:2; stroke-opacity:0.1; fill:none" points="240.464,1023.67 993.377,1023.67 "/>
<polyline clip-path="url(#clip482)" style="stroke:#000000; stroke-linecap:round; stroke-linejoin:round; stroke-width:2; stroke-opacity:0.1; fill:none" points="240.464,663.098 993.377,663.098 "/>
<polyline clip-path="url(#clip482)" style="stroke:#000000; stroke-linecap:round; stroke-linejoin:round; stroke-width:2; stroke-opacity:0.1; fill:none" points="240.464,302.528 993.377,302.528 "/>
<polyline clip-path="url(#clip480)" style="stroke:#000000; stroke-linecap:round; stroke-linejoin:round; stroke-width:4; stroke-opacity:1; fill:none" points="240.464,1423.18 993.377,1423.18 "/>
<polyline clip-path="url(#clip480)" style="stroke:#000000; stroke-linecap:round; stroke-linejoin:round; stroke-width:4; stroke-opacity:1; fill:none" points="261.773,1423.18 261.773,1404.28 "/>
<polyline clip-path="url(#clip480)" style="stroke:#000000; stroke-linecap:round; stroke-linejoin:round; stroke-width:4; stroke-opacity:1; fill:none" points="459.077,1423.18 459.077,1404.28 "/>
<polyline clip-path="url(#clip480)" style="stroke:#000000; stroke-linecap:round; stroke-linejoin:round; stroke-width:4; stroke-opacity:1; fill:none" points="656.381,1423.18 656.381,1404.28 "/>
<polyline clip-path="url(#clip480)" style="stroke:#000000; stroke-linecap:round; stroke-linejoin:round; stroke-width:4; stroke-opacity:1; fill:none" points="853.685,1423.18 853.685,1404.28 "/>
<path clip-path="url(#clip480)" d="M231.45 1469.4 Q231.45 1461.96 233.327 1457.91 Q235.946 1451.88 242.121 1451.88 Q243.431 1451.88 244.789 1452.26 Q246.173 1452.6 247.902 1453.96 Q249.656 1455.32 250.718 1457.54 Q252.744 1461.84 252.744 1469.4 Q252.744 1476.79 250.866 1480.81 Q248.124 1486.69 242.072 1486.69 Q239.799 1486.69 237.477 1485.53 Q235.18 1484.37 233.722 1481.58 Q231.45 1477.4 231.45 1469.4 M235.649 1468.78 Q235.649 1476.41 236.193 1479.45 Q236.81 1482.74 238.49 1484.17 Q240.195 1485.58 242.072 1485.58 Q244.098 1485.58 245.778 1484.07 Q247.482 1482.54 248.001 1479.26 Q248.569 1476.02 248.544 1468.78 Q248.544 1461.74 248.05 1458.92 Q247.383 1455.64 245.605 1454.33 Q243.851 1453 242.072 1453 Q241.405 1453 240.689 1453.19 Q239.997 1453.39 238.984 1453.96 Q237.971 1454.53 237.181 1455.94 Q236.415 1457.34 236.044 1459.47 Q235.649 1462.21 235.649 1468.78 Z" fill="#000000" fill-rule="nonzero" fill-opacity="1" /><path clip-path="url(#clip480)" d="M259.834 1484.76 Q259.068 1483.95 259.068 1482.89 Q259.068 1481.82 259.834 1481.06 Q260.6 1480.27 261.761 1480.27 Q262.872 1480.27 263.613 1481.01 Q264.379 1481.73 264.379 1482.91 Q264.379 1484.07 263.564 1484.84 Q262.773 1485.58 261.761 1485.58 Q260.6 1485.58 259.834 1484.76 Z" fill="#000000" fill-rule="nonzero" fill-opacity="1" /><path clip-path="url(#clip480)" d="M270.802 1469.4 Q270.802 1461.96 272.679 1457.91 Q275.298 1451.88 281.474 1451.88 Q282.783 1451.88 284.142 1452.26 Q285.525 1452.6 287.254 1453.96 Q289.008 1455.32 290.071 1457.54 Q292.096 1461.84 292.096 1469.4 Q292.096 1476.79 290.219 1480.81 Q287.477 1486.69 281.424 1486.69 Q279.152 1486.69 276.83 1485.53 Q274.532 1484.37 273.075 1481.58 Q270.802 1477.4 270.802 1469.4 M275.002 1468.78 Q275.002 1476.41 275.545 1479.45 Q276.163 1482.74 277.842 1484.17 Q279.547 1485.58 281.424 1485.58 Q283.45 1485.58 285.13 1484.07 Q286.834 1482.54 287.353 1479.26 Q287.921 1476.02 287.897 1468.78 Q287.897 1461.74 287.403 1458.92 Q286.736 1455.64 284.957 1454.33 Q283.203 1453 281.424 1453 Q280.757 1453 280.041 1453.19 Q279.349 1453.39 278.337 1453.96 Q277.324 1454.53 276.533 1455.94 Q275.767 1457.34 275.397 1459.47 Q275.002 1462.21 275.002 1468.78 Z" fill="#000000" fill-rule="nonzero" fill-opacity="1" /><path clip-path="url(#clip480)" d="M429.025 1469.4 Q429.025 1461.96 430.903 1457.91 Q433.521 1451.88 439.697 1451.88 Q441.007 1451.88 442.365 1452.26 Q443.749 1452.6 445.478 1453.96 Q447.232 1455.32 448.294 1457.54 Q450.32 1461.84 450.32 1469.4 Q450.32 1476.79 448.442 1480.81 Q445.7 1486.69 439.648 1486.69 Q437.375 1486.69 435.053 1485.53 Q432.756 1484.37 431.298 1481.58 Q429.025 1477.4 429.025 1469.4 M433.225 1468.78 Q433.225 1476.41 433.769 1479.45 Q434.386 1482.74 436.066 1484.17 Q437.77 1485.58 439.648 1485.58 Q441.674 1485.58 443.353 1484.07 Q445.058 1482.54 445.577 1479.26 Q446.145 1476.02 446.12 1468.78 Q446.12 1461.74 445.626 1458.92 Q444.959 1455.64 443.181 1454.33 Q441.427 1453 439.648 1453 Q438.981 1453 438.265 1453.19 Q437.573 1453.39 436.56 1453.96 Q435.547 1454.53 434.757 1455.94 Q433.991 1457.34 433.62 1459.47 Q433.225 1462.21 433.225 1468.78 Z" fill="#000000" fill-rule="nonzero" fill-opacity="1" /><path clip-path="url(#clip480)" d="M457.41 1484.76 Q456.644 1483.95 456.644 1482.89 Q456.644 1481.82 457.41 1481.06 Q458.175 1480.27 459.337 1480.27 Q460.448 1480.27 461.189 1481.01 Q461.955 1481.73 461.955 1482.91 Q461.955 1484.07 461.14 1484.84 Q460.349 1485.58 459.337 1485.58 Q458.175 1485.58 457.41 1484.76 Z" fill="#000000" fill-rule="nonzero" fill-opacity="1" /><path clip-path="url(#clip480)" d="M468.921 1477.43 Q468.921 1475.92 469.737 1475.35 Q470.552 1474.76 471.416 1474.76 Q472.578 1474.76 473.244 1475.5 Q473.936 1476.22 473.936 1477.23 Q473.936 1478.24 473.244 1478.98 Q472.578 1479.7 471.416 1479.7 Q470.848 1479.7 470.552 1479.6 Q471.219 1481.92 473.244 1483.6 Q475.295 1485.28 477.988 1485.28 Q481.372 1485.28 483.398 1482 Q484.608 1479.87 484.608 1475.06 Q484.608 1470.81 483.694 1468.68 Q482.286 1465.45 479.396 1465.45 Q475.295 1465.45 472.874 1468.98 Q472.578 1469.42 472.232 1469.45 Q471.738 1469.45 471.614 1469.18 Q471.515 1468.88 471.515 1468.11 L471.515 1453.14 Q471.515 1451.93 472.009 1451.93 Q472.207 1451.93 472.627 1452.08 Q475.814 1453.49 479.346 1453.51 Q482.978 1453.51 486.238 1452.03 Q486.485 1451.88 486.634 1451.88 Q487.128 1451.88 487.152 1452.45 Q487.152 1452.65 486.733 1453.24 Q486.337 1453.81 485.473 1454.58 Q484.608 1455.32 483.496 1456.03 Q482.385 1456.75 480.754 1457.25 Q479.149 1457.71 477.37 1457.71 Q475.245 1457.71 473.072 1457.05 L473.072 1466.9 Q475.69 1464.33 479.494 1464.33 Q483.546 1464.33 486.337 1467.6 Q489.129 1470.86 489.129 1475.4 Q489.129 1480.17 485.819 1483.43 Q482.533 1486.69 478.086 1486.69 Q474.035 1486.69 471.466 1483.8 Q468.921 1480.91 468.921 1477.43 Z" fill="#000000" fill-rule="nonzero" fill-opacity="1" /><path clip-path="url(#clip480)" d="M627.318 1456.7 L627.318 1455.12 Q633.395 1455.12 636.532 1451.88 Q637.397 1451.88 637.545 1452.08 Q637.693 1452.28 637.693 1453.19 L637.693 1481.58 Q637.693 1483.08 638.434 1483.55 Q639.175 1484.02 642.412 1484.02 L644.017 1484.02 L644.017 1485.58 Q642.239 1485.43 635.816 1485.43 Q629.393 1485.43 627.639 1485.58 L627.639 1484.02 L629.245 1484.02 Q632.431 1484.02 633.197 1483.58 Q633.963 1483.11 633.963 1481.58 L633.963 1455.37 Q631.32 1456.7 627.318 1456.7 Z" fill="#000000" fill-rule="nonzero" fill-opacity="1" /><path clip-path="url(#clip480)" d="M653.182 1484.76 Q652.416 1483.95 652.416 1482.89 Q652.416 1481.82 653.182 1481.06 Q653.948 1480.27 655.109 1480.27 Q656.221 1480.27 656.962 1481.01 Q657.728 1481.73 657.728 1482.91 Q657.728 1484.07 656.912 1484.84 Q656.122 1485.58 655.109 1485.58 Q653.948 1485.58 653.182 1484.76 Z" fill="#000000" fill-rule="nonzero" fill-opacity="1" /><path clip-path="url(#clip480)" d="M664.151 1469.4 Q664.151 1461.96 666.028 1457.91 Q668.647 1451.88 674.822 1451.88 Q676.132 1451.88 677.49 1452.26 Q678.874 1452.6 680.603 1453.96 Q682.357 1455.32 683.419 1457.54 Q685.445 1461.84 685.445 1469.4 Q685.445 1476.79 683.567 1480.81 Q680.825 1486.69 674.773 1486.69 Q672.5 1486.69 670.178 1485.53 Q667.881 1484.37 666.423 1481.58 Q664.151 1477.4 664.151 1469.4 M668.35 1468.78 Q668.35 1476.41 668.894 1479.45 Q669.511 1482.74 671.191 1484.17 Q672.895 1485.58 674.773 1485.58 Q676.799 1485.58 678.478 1484.07 Q680.183 1482.54 680.702 1479.26 Q681.27 1476.02 681.245 1468.78 Q681.245 1461.74 680.751 1458.92 Q680.084 1455.64 678.306 1454.33 Q676.552 1453 674.773 1453 Q674.106 1453 673.39 1453.19 Q672.698 1453.39 671.685 1453.96 Q670.672 1454.53 669.882 1455.94 Q669.116 1457.34 668.745 1459.47 Q668.35 1462.21 668.35 1468.78 Z" fill="#000000" fill-rule="nonzero" fill-opacity="1" /><path clip-path="url(#clip480)" d="M824.894 1456.7 L824.894 1455.12 Q830.971 1455.12 834.108 1451.88 Q834.973 1451.88 835.121 1452.08 Q835.269 1452.28 835.269 1453.19 L835.269 1481.58 Q835.269 1483.08 836.01 1483.55 Q836.751 1484.02 839.987 1484.02 L841.593 1484.02 L841.593 1485.58 Q839.815 1485.43 833.392 1485.43 Q826.969 1485.43 825.215 1485.58 L825.215 1484.02 L826.821 1484.02 Q830.007 1484.02 830.773 1483.58 Q831.539 1483.11 831.539 1481.58 L831.539 1455.37 Q828.896 1456.7 824.894 1456.7 Z" fill="#000000" fill-rule="nonzero" fill-opacity="1" /><path clip-path="url(#clip480)" d="M850.758 1484.76 Q849.992 1483.95 849.992 1482.89 Q849.992 1481.82 850.758 1481.06 Q851.524 1480.27 852.685 1480.27 Q853.797 1480.27 854.538 1481.01 Q855.304 1481.73 855.304 1482.91 Q855.304 1484.07 854.488 1484.84 Q853.698 1485.58 852.685 1485.58 Q851.524 1485.58 850.758 1484.76 Z" fill="#000000" fill-rule="nonzero" fill-opacity="1" /><path clip-path="url(#clip480)" d="M862.27 1477.43 Q862.27 1475.92 863.085 1475.35 Q863.9 1474.76 864.765 1474.76 Q865.926 1474.76 866.593 1475.5 Q867.285 1476.22 867.285 1477.23 Q867.285 1478.24 866.593 1478.98 Q865.926 1479.7 864.765 1479.7 Q864.197 1479.7 863.9 1479.6 Q864.567 1481.92 866.593 1483.6 Q868.643 1485.28 871.336 1485.28 Q874.72 1485.28 876.746 1482 Q877.957 1479.87 877.957 1475.06 Q877.957 1470.81 877.043 1468.68 Q875.634 1465.45 872.744 1465.45 Q868.643 1465.45 866.222 1468.98 Q865.926 1469.42 865.58 1469.45 Q865.086 1469.45 864.963 1469.18 Q864.864 1468.88 864.864 1468.11 L864.864 1453.14 Q864.864 1451.93 865.358 1451.93 Q865.555 1451.93 865.975 1452.08 Q869.162 1453.49 872.695 1453.51 Q876.326 1453.51 879.587 1452.03 Q879.834 1451.88 879.982 1451.88 Q880.476 1451.88 880.501 1452.45 Q880.501 1452.65 880.081 1453.24 Q879.686 1453.81 878.821 1454.58 Q877.957 1455.32 876.845 1456.03 Q875.733 1456.75 874.103 1457.25 Q872.497 1457.71 870.718 1457.71 Q868.594 1457.71 866.42 1457.05 L866.42 1466.9 Q869.039 1464.33 872.843 1464.33 Q876.894 1464.33 879.686 1467.6 Q882.477 1470.86 882.477 1475.4 Q882.477 1480.17 879.167 1483.43 Q875.881 1486.69 871.435 1486.69 Q867.383 1486.69 864.814 1483.8 Q862.27 1480.91 862.27 1477.43 Z" fill="#000000" fill-rule="nonzero" fill-opacity="1" /><path clip-path="url(#clip480)" d="M576.377 1551.5 L578.02 1551.5 Q578.954 1555.98 579.405 1556.66 Q580.049 1557.78 582.851 1557.91 Q583.431 1557.91 584.429 1557.91 L588.841 1557.91 Q588.036 1554.89 586.007 1551.41 Q583.978 1547.9 582.046 1545.29 Q580.146 1542.68 578.632 1539.14 Q577.118 1535.56 577.118 1532.18 Q577.118 1525.45 582.915 1520.59 Q588.712 1515.69 597.215 1515.69 Q605.717 1515.69 611.546 1520.55 Q617.408 1525.38 617.408 1532.18 Q617.408 1535.53 615.894 1539.07 Q614.38 1542.61 612.48 1545.22 Q610.612 1547.83 608.519 1551.37 Q606.458 1554.89 605.653 1557.91 L610.161 1557.91 Q613.865 1557.91 614.606 1557.24 Q615.347 1556.53 616.152 1552.82 Q616.281 1551.95 616.409 1551.5 L618.116 1551.5 L615.958 1562.2 L605.395 1562.2 Q604.525 1562.2 604.139 1561.94 Q603.752 1561.68 603.752 1560.75 Q603.752 1556.27 607.166 1546.64 Q610.612 1537.01 610.612 1532.18 Q610.612 1525 606.522 1521.07 Q602.432 1517.14 597.215 1517.14 Q592.062 1517.14 587.972 1521.04 Q583.914 1524.93 583.914 1532.18 Q583.914 1537.08 587.327 1546.67 Q590.773 1556.27 590.773 1560.68 Q590.773 1561.75 590.355 1561.97 Q589.968 1562.2 588.648 1562.2 L578.567 1562.2 L576.377 1551.5 Z" fill="#000000" fill-rule="nonzero" fill-opacity="1" /><path clip-path="url(#clip480)" d="M654.924 1517.14 L645.423 1555.27 Q645.037 1556.98 645.037 1558.43 Q645.037 1561.46 647.002 1561.46 Q647.968 1561.46 648.741 1560.84 Q649.514 1560.23 650.125 1558.94 Q650.737 1557.65 651.124 1556.46 Q651.51 1555.24 652.026 1553.31 Q652.187 1552.53 652.315 1552.34 Q652.477 1552.12 652.927 1552.12 Q653.733 1552.12 653.733 1552.76 Q652.863 1556.91 651.736 1559.3 Q649.932 1562.94 646.873 1562.94 Q644.554 1562.94 642.911 1561.52 Q641.269 1560.1 640.882 1557.98 Q636.663 1562.94 632.283 1562.94 Q628.419 1562.94 625.971 1560.01 Q623.523 1557.04 623.523 1552.37 Q623.523 1547.67 625.842 1543.16 Q628.193 1538.65 631.897 1535.85 Q635.601 1533.05 639.401 1533.05 Q643.427 1533.05 645.488 1537.27 L649.449 1521.62 L649.642 1520.33 Q649.642 1519.94 649.481 1519.75 Q649.353 1519.52 648.58 1519.36 Q647.839 1519.2 646.357 1519.2 Q645.745 1519.2 645.456 1519.17 Q645.198 1519.14 644.973 1518.98 Q644.747 1518.78 644.747 1518.4 Q644.747 1517.27 645.681 1517.14 Q651.865 1516.43 654.055 1516.43 Q654.441 1516.43 654.667 1516.62 Q654.892 1516.79 654.892 1516.98 L654.924 1517.14 M644.683 1540.3 Q644.683 1540.01 644.457 1539.2 Q644.232 1538.4 643.717 1537.27 Q643.201 1536.14 642.074 1535.34 Q640.979 1534.5 639.498 1534.5 Q637.501 1534.5 635.407 1536.21 Q633.346 1537.91 631.833 1540.81 Q630.673 1543.13 629.417 1547.99 Q628.193 1552.86 628.193 1555.27 Q628.193 1556.75 628.515 1558.07 Q628.87 1559.36 629.868 1560.42 Q630.866 1561.46 632.412 1561.46 Q636.18 1561.46 639.884 1556.79 Q640.593 1555.98 640.754 1555.66 Q640.947 1555.3 641.204 1554.34 L644.489 1541.42 Q644.683 1540.46 644.683 1540.3 Z" fill="#000000" fill-rule="nonzero" fill-opacity="1" /><polyline clip-path="url(#clip480)" style="stroke:#000000; stroke-linecap:round; stroke-linejoin:round; stroke-width:4; stroke-opacity:1; fill:none" points="240.464,1423.18 240.464,47.2441 "/>
<polyline clip-path="url(#clip480)" style="stroke:#000000; stroke-linecap:round; stroke-linejoin:round; stroke-width:4; stroke-opacity:1; fill:none" points="240.464,1384.24 256.398,1384.24 "/>
<polyline clip-path="url(#clip480)" style="stroke:#000000; stroke-linecap:round; stroke-linejoin:round; stroke-width:4; stroke-opacity:1; fill:none" points="240.464,1023.67 256.398,1023.67 "/>
<polyline clip-path="url(#clip480)" style="stroke:#000000; stroke-linecap:round; stroke-linejoin:round; stroke-width:4; stroke-opacity:1; fill:none" points="240.464,663.098 256.398,663.098 "/>
<polyline clip-path="url(#clip480)" style="stroke:#000000; stroke-linecap:round; stroke-linejoin:round; stroke-width:4; stroke-opacity:1; fill:none" points="240.464,302.528 256.398,302.528 "/>
<path clip-path="url(#clip480)" d="M183.17 1385.34 Q183.17 1377.9 185.047 1373.85 Q187.666 1367.82 193.842 1367.82 Q195.151 1367.82 196.51 1368.19 Q197.893 1368.54 199.622 1369.9 Q201.376 1371.26 202.438 1373.48 Q204.464 1377.78 204.464 1385.34 Q204.464 1392.72 202.587 1396.75 Q199.845 1402.63 193.792 1402.63 Q191.52 1402.63 189.197 1401.47 Q186.9 1400.31 185.442 1397.52 Q183.17 1393.34 183.17 1385.34 M187.369 1384.72 Q187.369 1392.35 187.913 1395.39 Q188.53 1398.68 190.21 1400.11 Q191.915 1401.52 193.792 1401.52 Q195.818 1401.52 197.498 1400.01 Q199.202 1398.48 199.721 1395.19 Q200.289 1391.96 200.265 1384.72 Q200.265 1377.68 199.77 1374.86 Q199.103 1371.58 197.325 1370.27 Q195.571 1368.93 193.792 1368.93 Q193.125 1368.93 192.409 1369.13 Q191.717 1369.33 190.704 1369.9 Q189.691 1370.47 188.901 1371.87 Q188.135 1373.28 187.765 1375.41 Q187.369 1378.15 187.369 1384.72 Z" fill="#000000" fill-rule="nonzero" fill-opacity="1" /><path clip-path="url(#clip480)" d="M160.393 1012.07 L160.393 1010.49 Q166.47 1010.49 169.608 1007.25 Q170.472 1007.25 170.62 1007.45 Q170.769 1007.65 170.769 1008.56 L170.769 1036.95 Q170.769 1038.45 171.51 1038.92 Q172.251 1039.39 175.487 1039.39 L177.093 1039.39 L177.093 1040.95 Q175.314 1040.8 168.891 1040.8 Q162.468 1040.8 160.714 1040.95 L160.714 1039.39 L162.32 1039.39 Q165.507 1039.39 166.273 1038.95 Q167.038 1038.48 167.038 1036.95 L167.038 1010.74 Q164.395 1012.07 160.393 1012.07 Z" fill="#000000" fill-rule="nonzero" fill-opacity="1" /><path clip-path="url(#clip480)" d="M183.17 1024.77 Q183.17 1017.33 185.047 1013.28 Q187.666 1007.25 193.842 1007.25 Q195.151 1007.25 196.51 1007.62 Q197.893 1007.97 199.622 1009.33 Q201.376 1010.69 202.438 1012.91 Q204.464 1017.21 204.464 1024.77 Q204.464 1032.15 202.587 1036.18 Q199.845 1042.06 193.792 1042.06 Q191.52 1042.06 189.197 1040.9 Q186.9 1039.74 185.442 1036.95 Q183.17 1032.77 183.17 1024.77 M187.369 1024.15 Q187.369 1031.78 187.913 1034.82 Q188.53 1038.11 190.21 1039.54 Q191.915 1040.95 193.792 1040.95 Q195.818 1040.95 197.498 1039.44 Q199.202 1037.91 199.721 1034.62 Q200.289 1031.39 200.265 1024.15 Q200.265 1017.11 199.77 1014.29 Q199.103 1011.01 197.325 1009.7 Q195.571 1008.36 193.792 1008.36 Q193.125 1008.36 192.409 1008.56 Q191.717 1008.76 190.704 1009.33 Q189.691 1009.9 188.901 1011.3 Q188.135 1012.71 187.765 1014.84 Q187.369 1017.58 187.369 1024.15 Z" fill="#000000" fill-rule="nonzero" fill-opacity="1" /><path clip-path="url(#clip480)" d="M158.417 680.378 Q158.417 679.464 158.491 679.192 Q158.59 678.92 158.985 678.5 L168.694 667.68 Q174.005 661.702 174.005 656.49 Q174.005 653.105 172.226 650.684 Q170.472 648.264 167.236 648.264 Q165.013 648.264 163.135 649.622 Q161.258 650.981 160.393 653.402 Q160.542 653.352 161.06 653.352 Q162.32 653.352 163.012 654.143 Q163.728 654.933 163.728 655.996 Q163.728 657.354 162.839 658.021 Q161.974 658.664 161.11 658.664 Q160.764 658.664 160.294 658.59 Q159.85 658.515 159.133 657.824 Q158.417 657.107 158.417 655.847 Q158.417 652.315 161.085 649.499 Q163.778 646.683 167.878 646.683 Q172.523 646.683 175.561 649.449 Q178.624 652.191 178.624 656.49 Q178.624 657.997 178.155 659.38 Q177.71 660.739 177.093 661.801 Q176.5 662.863 174.869 664.568 Q173.239 666.272 171.93 667.483 Q170.62 668.693 167.681 671.262 L162.32 676.475 L171.436 676.475 Q175.882 676.475 176.228 676.08 Q176.722 675.363 177.34 671.584 L178.624 671.584 L177.192 680.378 L158.417 680.378 Z" fill="#000000" fill-rule="nonzero" fill-opacity="1" /><path clip-path="url(#clip480)" d="M183.17 664.197 Q183.17 656.762 185.047 652.71 Q187.666 646.683 193.842 646.683 Q195.151 646.683 196.51 647.053 Q197.893 647.399 199.622 648.758 Q201.376 650.116 202.438 652.34 Q204.464 656.638 204.464 664.197 Q204.464 671.584 202.587 675.61 Q199.845 681.49 193.792 681.49 Q191.52 681.49 189.197 680.329 Q186.9 679.167 185.442 676.376 Q183.17 672.201 183.17 664.197 M187.369 663.58 Q187.369 671.213 187.913 674.252 Q188.53 677.537 190.21 678.97 Q191.915 680.378 193.792 680.378 Q195.818 680.378 197.498 678.871 Q199.202 677.339 199.721 674.054 Q200.289 670.818 200.265 663.58 Q200.265 656.539 199.77 653.723 Q199.103 650.437 197.325 649.128 Q195.571 647.794 193.792 647.794 Q193.125 647.794 192.409 647.992 Q191.717 648.189 190.704 648.758 Q189.691 649.326 188.901 650.734 Q188.135 652.142 187.765 654.266 Q187.369 657.009 187.369 663.58 Z" fill="#000000" fill-rule="nonzero" fill-opacity="1" /><path clip-path="url(#clip480)" d="M158.022 312.99 Q158.022 311.483 158.886 310.766 Q159.751 310.05 160.863 310.05 Q162.024 310.05 162.839 310.816 Q163.679 311.557 163.679 312.866 Q163.679 314.274 162.691 315.065 Q161.727 315.855 160.344 315.658 Q161.554 317.683 163.778 318.597 Q166.026 319.511 168.101 319.511 Q170.275 319.511 172.029 317.634 Q173.807 315.756 173.807 311.162 Q173.807 307.258 172.276 305.01 Q170.769 302.762 167.78 302.762 L165.556 302.762 Q164.79 302.762 164.568 302.688 Q164.346 302.614 164.346 302.194 Q164.346 301.7 165.112 301.601 Q165.877 301.601 167.088 301.453 Q170.028 301.354 171.584 298.81 Q172.992 296.438 172.992 293.054 Q172.992 289.966 171.51 288.682 Q170.052 287.372 168.15 287.372 Q166.371 287.372 164.42 288.113 Q162.468 288.854 161.406 290.51 Q164.543 290.51 164.543 293.054 Q164.543 294.166 163.827 294.907 Q163.135 295.623 161.974 295.623 Q160.863 295.623 160.122 294.931 Q159.38 294.215 159.38 293.005 Q159.38 290.114 161.95 288.113 Q164.543 286.112 168.348 286.112 Q172.103 286.112 174.869 288.089 Q177.661 290.065 177.661 293.103 Q177.661 296.093 175.685 298.538 Q173.708 300.984 170.571 301.997 Q174.425 302.762 176.722 305.381 Q179.02 307.975 179.02 311.162 Q179.02 315.114 175.907 318.029 Q172.794 320.919 168.249 320.919 Q164.049 320.919 161.036 318.647 Q158.022 316.374 158.022 312.99 Z" fill="#000000" fill-rule="nonzero" fill-opacity="1" /><path clip-path="url(#clip480)" d="M183.17 303.627 Q183.17 296.191 185.047 292.14 Q187.666 286.112 193.842 286.112 Q195.151 286.112 196.51 286.483 Q197.893 286.829 199.622 288.187 Q201.376 289.546 202.438 291.769 Q204.464 296.068 204.464 303.627 Q204.464 311.013 202.587 315.04 Q199.845 320.919 193.792 320.919 Q191.52 320.919 189.197 319.758 Q186.9 318.597 185.442 315.806 Q183.17 311.631 183.17 303.627 M187.369 303.009 Q187.369 310.643 187.913 313.681 Q188.53 316.967 190.21 318.4 Q191.915 319.808 193.792 319.808 Q195.818 319.808 197.498 318.301 Q199.202 316.769 199.721 313.484 Q200.289 310.248 200.265 303.009 Q200.265 295.969 199.77 293.153 Q199.103 289.867 197.325 288.558 Q195.571 287.224 193.792 287.224 Q193.125 287.224 192.409 287.422 Q191.717 287.619 190.704 288.187 Q189.691 288.756 188.901 290.164 Q188.135 291.572 187.765 293.696 Q187.369 296.438 187.369 303.009 Z" fill="#000000" fill-rule="nonzero" fill-opacity="1" /><path clip-path="url(#clip480)" d="M4.65857 929.768 L2.59739 929.768 Q2.59739 921.846 -1.62157 917.756 Q-1.62157 916.628 -1.36393 916.435 Q-1.10628 916.242 0.0853368 916.242 L37.0899 916.242 Q39.0544 916.242 39.6663 915.276 Q40.2783 914.31 40.2783 910.091 L40.2783 907.997 L42.3072 907.997 Q42.114 910.316 42.114 918.69 Q42.114 927.063 42.3072 929.35 L40.2783 929.35 L40.2783 927.256 Q40.2783 923.102 39.6985 922.103 Q39.0866 921.105 37.0899 921.105 L2.91945 921.105 Q4.65857 924.551 4.65857 929.768 Z" fill="#000000" fill-rule="nonzero" fill-opacity="1" /><path clip-path="url(#clip480)" d="M59.9072 955.768 L59.9072 874.204 L56.3872 874.204 L56.3872 955.768  Z" fill="#000000" fill-rule="evenodd" fill-opacity="1"/>
<path clip-path="url(#clip480)" d="M118.036 955.768 L104.961 947.291 L122.311 943.843 L125.472 943.197 Q124.645 943.053 123.245 942.622 Q121.808 942.155 121.449 942.083 L77.7344 930.697 Q77.447 930.625 76.9801 930.517 Q76.4772 930.373 76.2976 930.301 Q76.118 930.23 75.7588 930.122 Q75.3996 930.014 75.2919 929.942 Q75.1482 929.87 74.8968 929.763 Q74.6453 929.655 74.5735 929.511 Q74.5016 929.368 74.358 929.188 Q74.2143 929.008 74.1784 928.793 Q74.1424 928.541 74.1065 928.29 Q74.0706 928.039 74.0706 927.679 L74.0706 921.25 Q74.0706 918.987 75.5433 918.987 Q77.016 918.987 77.016 921.178 L77.016 927.464 L133.733 942.299 Q134.559 942.514 134.882 942.694 Q135.206 942.837 135.493 943.34 Q135.78 943.843 135.78 944.741 L135.78 945.46 L112.397 950.165 L119.222 954.583 L118.036 955.768 Z" fill="#000000" fill-rule="nonzero" fill-opacity="1" /><path clip-path="url(#clip480)" d="M77.043 921.402 L77.043 881.244 L73.9872 881.244 L73.9872 921.402  Z" fill="#000000" fill-rule="evenodd" fill-opacity="1"/>
<path clip-path="url(#clip480)" d="M135.559 914.362 Q134.367 914.362 134.013 914.266 Q133.658 914.137 133.111 913.621 L119.005 900.965 Q111.211 894.04 104.416 894.04 Q100.003 894.04 96.8472 896.359 Q93.691 898.646 93.691 902.865 Q93.691 905.763 95.4623 908.211 Q97.2337 910.658 100.39 911.786 Q100.325 911.592 100.325 910.916 Q100.325 909.274 101.356 908.372 Q102.387 907.438 103.771 907.438 Q105.543 907.438 106.412 908.597 Q107.25 909.725 107.25 910.852 Q107.25 911.303 107.153 911.915 Q107.056 912.494 106.155 913.428 Q105.221 914.362 103.578 914.362 Q98.9728 914.362 95.3013 910.884 Q91.6298 907.373 91.6298 902.027 Q91.6298 895.973 95.2369 892.011 Q98.8117 888.018 104.416 888.018 Q106.38 888.018 108.184 888.63 Q109.955 889.209 111.34 890.015 Q112.725 890.787 114.947 892.913 Q117.169 895.039 118.747 896.746 Q120.325 898.452 123.675 902.285 L130.47 909.274 L130.47 897.39 Q130.47 891.593 129.955 891.142 Q129.021 890.498 124.093 889.692 L124.093 888.018 L135.559 889.886 L135.559 914.362 Z" fill="#000000" fill-rule="nonzero" fill-opacity="1" /><path clip-path="url(#clip480)" d="M55.5461 842.903 Q56.5767 841.873 57.9938 841.873 Q59.4108 841.873 60.4736 842.903 Q61.5042 843.934 61.5042 845.351 Q61.5042 846.768 60.4736 847.831 Q59.4108 848.861 57.9938 848.861 Q56.5767 848.861 55.5461 847.831 Q54.4833 846.768 54.4833 845.351 Q54.4833 843.934 55.5461 842.903 Z" fill="#000000" fill-rule="nonzero" fill-opacity="1" /><path clip-path="url(#clip480)" d="M65.069 812.409 Q55.2883 812.409 47.4015 808.762 Q44.0942 807.207 41.3239 805.031 Q38.5536 802.854 37.3381 801.412 Q36.1226 799.971 36.1226 799.575 Q36.1226 799.01 36.688 798.981 Q36.9706 798.981 37.6773 799.745 Q47.1754 809.073 65.069 809.045 Q83.0192 809.045 92.1497 799.971 Q93.1391 798.981 93.4501 798.981 Q94.0154 798.981 94.0154 799.575 Q94.0154 799.971 92.8564 801.356 Q91.6975 802.741 89.0403 804.889 Q86.3831 807.038 83.1323 808.592 Q75.2455 812.409 65.069 812.409 Z" fill="#000000" fill-rule="nonzero" fill-opacity="1" /><path clip-path="url(#clip480)" d="M65.0468 729.101 Q65.3045 729.101 66.3029 729.391 Q67.3013 729.681 68.8471 730.39 Q70.393 731.066 71.8101 732.032 Q73.1949 732.966 74.2255 734.512 Q75.2239 736.026 75.2239 737.765 Q75.2239 740.083 73.678 741.629 Q72.1321 743.175 69.8133 743.175 Q68.5573 743.175 66.174 742.306 Q55.2885 738.216 51.3916 738.216 Q46.7861 738.216 46.7861 741.79 Q46.7861 743.819 47.6235 745.655 Q48.4608 747.491 49.6202 748.682 Q50.7796 749.874 52.1001 750.808 Q53.4205 751.742 54.2901 752.161 Q55.1596 752.547 55.5461 752.644 L71.4558 756.605 Q72.8085 756.927 73.4526 757.153 Q74.0967 757.378 74.6442 757.99 Q75.2239 758.602 75.2239 759.568 Q75.2239 760.373 74.7408 760.953 Q74.2577 761.5 73.4204 761.5 Q73.2915 761.5 72.6152 761.339 Q71.9389 761.178 71.0049 760.953 Q70.071 760.727 69.5235 760.631 Q65.1435 759.471 64.5315 759.31 L56.8666 757.475 Q53.0663 756.476 51.3916 756.476 Q46.7861 756.476 46.7861 760.051 Q46.7861 761.822 47.4624 763.497 Q48.1066 765.14 49.0083 766.267 Q49.9101 767.394 51.1661 768.425 Q52.3899 769.423 53.2273 769.938 Q54.0324 770.421 54.8376 770.808 L58.1226 771.645 Q59.0243 771.838 62.5348 772.772 L68.4929 774.222 Q72.9373 775.252 73.356 775.478 Q74.2577 775.8 74.7408 776.508 Q75.2239 777.217 75.2239 777.925 Q75.2239 778.731 74.7408 779.278 Q74.2577 779.826 73.4204 779.826 Q73.2915 779.826 72.8085 779.729 Q72.3254 779.632 71.649 779.471 Q70.9727 779.31 70.5862 779.246 L55.3529 775.413 Q52.5832 774.705 51.7136 774.544 Q50.8119 774.351 49.8135 774.351 Q46.7861 774.351 46.7861 776.412 Q46.7861 778.086 48.7829 779.181 Q50.7796 780.276 54.6443 781.21 Q55.7071 781.5 55.9326 781.693 Q56.158 781.854 56.158 782.338 Q56.1258 783.143 55.4817 783.143 Q55.3207 783.143 54.2901 782.885 Q53.2595 782.627 51.7136 782.144 Q50.1355 781.629 49.1049 781.082 Q48.4286 780.759 47.9777 780.47 Q47.5269 780.18 46.8183 779.6 Q46.1098 779.02 45.7233 778.151 Q45.3369 777.281 45.3369 776.218 Q45.3369 773.867 46.8505 772.128 Q48.3642 770.357 51.0695 770.132 Q45.3369 765.848 45.3369 759.858 Q45.3369 756.476 47.0438 754.447 Q48.6863 752.547 51.7136 752.322 Q45.3369 747.877 45.3369 741.565 Q45.3369 737.926 47.237 735.961 Q49.1049 733.997 52.3899 733.997 Q54.0968 733.997 57.3496 734.866 Q60.5702 735.736 62.1805 736.315 Q63.7908 736.895 66.8826 738.022 Q69.8455 739.214 71.5846 739.214 Q72.7118 739.214 73.2271 738.827 Q73.7424 738.441 73.7424 737.604 Q73.7424 736.315 73.0017 735.188 Q72.2287 734.061 70.9727 733.256 Q69.6845 732.418 68.3963 731.871 Q67.0758 731.324 65.5943 730.905 Q64.7892 730.647 64.596 730.518 Q64.4027 730.357 64.4027 729.906 Q64.4027 729.101 65.0468 729.101 Z" fill="#000000" fill-rule="nonzero" fill-opacity="1" /><path clip-path="url(#clip480)" d="M69.941 703.785 Q71.1358 703.785 71.9023 704.574 Q72.6688 705.341 72.6688 706.333 Q72.6688 707.189 72.1729 707.64 Q71.6769 708.091 71.0456 708.091 Q70.1439 708.091 69.3999 707.392 Q68.656 706.694 68.4982 705.679 Q67.9571 706.423 67.9571 707.618 Q67.9571 709.579 69.4676 711.315 Q70.1664 712.082 71.4514 712.916 Q72.7139 713.75 73.255 713.908 L79.2742 715.373 Q79.9506 715.508 83.1969 716.342 Q86.4207 717.154 86.556 717.222 Q87.1872 717.447 87.5254 717.943 Q87.8635 718.439 87.8635 718.935 Q87.8635 719.499 87.5254 719.882 Q87.1872 720.265 86.6011 720.265 Q86.5109 720.265 86.1727 720.197 Q85.8346 720.13 85.3612 720.017 Q84.8877 719.904 84.6172 719.859 L73.9538 717.177 Q72.015 716.681 71.4064 716.568 Q70.7751 716.433 70.0763 716.433 Q68.8589 716.433 68.408 716.816 Q67.9571 717.199 67.9571 717.875 Q67.9571 719.048 69.3548 719.814 Q70.7526 720.581 73.4579 721.234 Q74.2018 721.437 74.3596 721.573 Q74.5174 721.685 74.5174 722.024 Q74.4949 722.587 74.044 722.587 Q73.9313 722.587 73.2099 722.407 Q72.4659 722.226 71.3838 721.888 Q70.2791 721.528 69.5803 721.144 Q69.1069 720.919 68.7912 720.716 Q68.4756 720.513 67.9796 720.107 Q67.4837 719.701 67.2131 719.093 Q66.9426 718.484 66.9426 717.74 Q66.9426 716.117 67.9346 714.967 Q68.9265 713.795 70.482 713.524 Q69.6705 712.961 68.9716 712.262 Q68.2502 711.563 67.5964 710.278 Q66.9426 708.993 66.9426 707.618 Q66.9426 705.904 67.8218 704.845 Q68.6785 703.785 69.941 703.785 Z" fill="#000000" fill-rule="nonzero" fill-opacity="1" /><path clip-path="url(#clip480)" d="M58.7989 677.115 Q58.7989 678.629 57.9938 678.629 Q57.1886 678.629 57.1886 677.051 Q57.1886 676.858 57.2208 676.535 Q57.253 676.181 57.253 676.117 L57.253 657.534 L38.6058 657.534 Q38.5414 657.534 38.2516 657.566 Q37.9295 657.598 37.7363 657.598 Q36.1582 657.598 36.1582 656.825 Q36.1582 656.02 37.7363 656.02 L57.253 656.02 L57.253 637.405 Q57.253 637.341 57.2208 637.019 Q57.1886 636.697 57.1886 636.504 Q57.1886 634.99 57.9938 634.99 Q58.7989 634.958 58.7989 636.568 Q58.7989 636.761 58.7667 637.051 Q58.7345 637.341 58.7345 637.405 L58.7345 656.02 L78.3157 656.02 Q79.8293 656.02 79.8293 656.825 Q79.8293 657.598 78.2512 657.598 Q78.058 657.598 77.736 657.566 Q77.4461 657.534 77.3817 657.534 L58.7345 657.534 L58.7345 676.117 Q58.7345 676.181 58.7667 676.568 Q58.7989 676.922 58.7989 677.115 Z" fill="#000000" fill-rule="nonzero" fill-opacity="1" /><path clip-path="url(#clip480)" d="M65.0468 555.471 Q65.3045 555.471 66.3029 555.76 Q67.3013 556.05 68.8471 556.759 Q70.393 557.435 71.8101 558.401 Q73.1949 559.335 74.2255 560.881 Q75.2239 562.395 75.2239 564.134 Q75.2239 566.453 73.678 567.999 Q72.1321 569.544 69.8133 569.544 Q68.5573 569.544 66.174 568.675 Q55.2885 564.585 51.3916 564.585 Q46.7861 564.585 46.7861 568.16 Q46.7861 570.189 47.6235 572.024 Q48.4608 573.86 49.6202 575.052 Q50.7796 576.243 52.1001 577.177 Q53.4205 578.111 54.2901 578.53 Q55.1596 578.916 55.5461 579.013 L71.4558 582.974 Q72.8085 583.296 73.4526 583.522 Q74.0967 583.747 74.6442 584.359 Q75.2239 584.971 75.2239 585.937 Q75.2239 586.742 74.7408 587.322 Q74.2577 587.87 73.4204 587.87 Q73.2915 587.87 72.6152 587.709 Q71.9389 587.548 71.0049 587.322 Q70.071 587.097 69.5235 587 Q65.1435 585.841 64.5315 585.68 L56.8666 583.844 Q53.0663 582.845 51.3916 582.845 Q46.7861 582.845 46.7861 586.42 Q46.7861 588.192 47.4624 589.866 Q48.1066 591.509 49.0083 592.636 Q49.9101 593.763 51.1661 594.794 Q52.3899 595.792 53.2273 596.308 Q54.0324 596.791 54.8376 597.177 L58.1226 598.014 Q59.0243 598.208 62.5348 599.142 L68.4929 600.591 Q72.9373 601.622 73.356 601.847 Q74.2577 602.169 74.7408 602.878 Q75.2239 603.586 75.2239 604.295 Q75.2239 605.1 74.7408 605.647 Q74.2577 606.195 73.4204 606.195 Q73.2915 606.195 72.8085 606.098 Q72.3254 606.002 71.649 605.84 Q70.9727 605.679 70.5862 605.615 L55.3529 601.783 Q52.5832 601.074 51.7136 600.913 Q50.8119 600.72 49.8135 600.72 Q46.7861 600.72 46.7861 602.781 Q46.7861 604.456 48.7829 605.551 Q50.7796 606.646 54.6443 607.58 Q55.7071 607.869 55.9326 608.063 Q56.158 608.224 56.158 608.707 Q56.1258 609.512 55.4817 609.512 Q55.3207 609.512 54.2901 609.254 Q53.2595 608.997 51.7136 608.514 Q50.1355 607.998 49.1049 607.451 Q48.4286 607.129 47.9777 606.839 Q47.5269 606.549 46.8183 605.969 Q46.1098 605.39 45.7233 604.52 Q45.3369 603.65 45.3369 602.588 Q45.3369 600.237 46.8505 598.498 Q48.3642 596.726 51.0695 596.501 Q45.3369 592.217 45.3369 586.227 Q45.3369 582.845 47.0438 580.817 Q48.6863 578.916 51.7136 578.691 Q45.3369 574.247 45.3369 567.934 Q45.3369 564.295 47.237 562.33 Q49.1049 560.366 52.3899 560.366 Q54.0968 560.366 57.3496 561.235 Q60.5702 562.105 62.1805 562.685 Q63.7908 563.264 66.8826 564.392 Q69.8455 565.583 71.5846 565.583 Q72.7118 565.583 73.2271 565.197 Q73.7424 564.81 73.7424 563.973 Q73.7424 562.685 73.0017 561.557 Q72.2287 560.43 70.9727 559.625 Q69.6845 558.788 68.3963 558.24 Q67.0758 557.693 65.5943 557.274 Q64.7892 557.016 64.596 556.888 Q64.4027 556.727 64.4027 556.276 Q64.4027 555.471 65.0468 555.471 Z" fill="#000000" fill-rule="nonzero" fill-opacity="1" /><path clip-path="url(#clip480)" d="M64.4998 537.166 Q65.4918 537.166 66.2357 537.977 Q66.9571 538.766 66.9571 539.623 Q66.9571 540.412 66.4837 540.908 Q65.9877 541.382 65.2889 541.382 Q64.3646 541.382 63.5981 540.592 Q62.8316 539.803 62.8316 538.879 Q62.8316 538.113 63.305 537.639 Q63.7784 537.166 64.4998 537.166 M86.7509 536.76 Q86.9312 536.76 87.6526 536.963 Q88.3515 537.166 89.4336 537.662 Q90.4932 538.135 91.4851 538.789 Q92.4771 539.443 93.1759 540.525 Q93.8748 541.584 93.8748 542.802 Q93.8748 544.448 92.7927 545.53 Q91.7106 546.589 90.0874 546.589 Q89.2082 546.589 86.3902 545.53 Q78.1841 542.464 77.8459 542.351 Q76.5609 541.832 75.4337 541.832 Q74.9152 541.832 74.5996 541.945 Q74.2614 542.058 74.1487 542.283 Q74.0134 542.509 73.9909 542.644 Q73.9684 542.757 73.9684 542.982 Q73.9684 544.312 75.321 545.552 Q76.6736 546.792 79.6946 547.649 Q80.2582 547.829 80.3934 547.942 Q80.5287 548.055 80.5287 548.393 Q80.5061 548.956 80.0553 548.956 Q79.92 548.956 79.4015 548.799 Q78.8604 548.641 78.0488 548.348 Q77.2147 548.055 76.358 547.536 Q75.4788 547.018 74.7123 546.386 Q73.9458 545.733 73.4498 544.808 Q72.9539 543.884 72.9539 542.847 Q72.9539 541.156 74.0585 540.119 Q75.1406 539.059 76.7413 539.059 Q77.6205 539.059 79.176 539.668 Q81.205 540.412 81.8588 540.683 L86.7058 542.486 Q88.4642 543.14 89.0053 543.343 Q89.5238 543.523 90.155 543.681 Q90.7637 543.816 91.3273 543.816 Q92.1164 543.816 92.4771 543.568 Q92.8378 543.298 92.8378 542.712 Q92.8378 541.088 91.2371 539.894 Q89.614 538.699 87.1341 538 Q87.0665 537.977 86.9538 537.955 Q86.3902 537.774 86.3225 537.594 Q86.3 537.504 86.3 537.324 Q86.3 536.76 86.7509 536.76 Z" fill="#000000" fill-rule="nonzero" fill-opacity="1" /><path clip-path="url(#clip480)" d="M93.4501 522.801 Q93.1674 522.801 92.4607 522.066 Q82.9626 512.738 65.069 512.738 Q47.1188 512.738 38.0448 521.699 Q36.9989 522.801 36.688 522.801 Q36.1226 522.801 36.1226 522.236 Q36.1226 521.84 37.2816 520.455 Q38.4406 519.042 41.0978 516.922 Q43.755 514.773 47.0058 513.19 Q54.8925 509.374 65.069 509.374 Q74.8497 509.374 82.7365 513.021 Q86.0439 514.575 88.8141 516.752 Q91.5844 518.929 92.7999 520.37 Q94.0154 521.812 94.0154 522.236 Q94.0154 522.801 93.4501 522.801 Z" fill="#000000" fill-rule="nonzero" fill-opacity="1" /><polyline clip-path="url(#clip482)" style="stroke:#009af9; stroke-linecap:round; stroke-linejoin:round; stroke-width:8; stroke-opacity:1; fill:none" points="261.773,1384.24 268.948,1371.13 276.122,1358.01 283.297,1344.9 290.472,1331.79 297.646,1318.68 304.821,1305.57 311.996,1292.46 319.171,1279.35 326.345,1266.23 333.52,1253.12 340.695,1240.01 347.869,1226.9 355.044,1213.79 362.219,1200.68 369.393,1187.56 376.568,1174.45 383.743,1161.34 390.917,1148.23 398.092,1135.12 405.267,1122.01 412.442,1108.89 419.616,1095.78 426.791,1082.67 433.966,1069.56 441.14,1056.45 448.315,1043.34 455.49,1030.22 462.664,1017.11 469.839,1004 477.014,990.889 484.189,977.777 491.363,964.666 498.538,951.554 505.713,938.442 "/>
<polyline clip-path="url(#clip482)" style="stroke:#e26f46; stroke-linecap:round; stroke-linejoin:round; stroke-width:8; stroke-opacity:1; fill:none" points="512.887,933.526 520.062,933.526 527.237,933.526 534.411,933.526 541.586,933.526 548.761,933.526 555.936,933.526 563.11,933.526 570.285,933.526 577.46,933.526 584.634,933.526 591.809,933.526 598.984,933.526 606.158,933.526 613.333,933.526 620.508,933.526 627.683,933.526 634.857,933.526 642.032,933.526 649.207,933.526 656.381,933.526 663.556,933.526 670.731,933.526 677.905,933.526 685.08,933.526 692.255,933.526 699.429,933.526 706.604,933.526 713.779,933.526 720.954,933.526 728.128,933.526 735.303,933.526 742.478,933.526 749.652,933.526 756.827,933.526 764.002,933.526 771.176,933.526 778.351,933.526 785.526,933.526 792.701,933.526 799.875,933.526 807.05,933.526 814.225,933.526 821.399,933.526 828.574,933.526 835.749,933.526 842.923,933.526 850.098,933.526 857.273,933.526 864.448,933.526 871.622,933.526 878.797,933.526 885.972,933.526 893.146,933.526 900.321,933.526 907.496,933.526 914.67,933.526 921.845,933.526 929.02,933.526 936.195,933.526 943.369,933.526 950.544,933.526 957.719,933.526 964.893,933.526 972.068,933.526 "/>
<polyline clip-path="url(#clip482)" style="stroke:#3da44d; stroke-linecap:round; stroke-linejoin:round; stroke-width:8; stroke-opacity:1; fill:none" points="512.887,933.526 520.062,933.526 527.237,933.526 534.411,933.526 541.586,933.526 548.761,933.526 555.936,933.526 563.11,933.526 570.285,933.526 577.46,933.526 584.634,933.526 591.809,933.526 598.984,933.526 606.158,933.526 613.333,933.526 620.508,933.526 627.683,933.526 634.857,933.526 642.032,933.526 649.207,933.526 656.381,933.526 663.556,933.526 670.731,933.526 677.905,933.526 685.08,933.526 692.255,933.526 699.429,933.526 706.604,933.526 713.779,933.526 720.954,933.526 728.128,933.526 735.303,933.526 742.478,933.526 749.652,933.526 756.827,933.526 764.002,933.526 771.176,933.526 778.351,933.526 785.526,933.526 792.701,933.526 799.875,933.526 807.05,933.526 814.225,933.526 821.399,933.526 828.574,933.526 835.749,933.526 842.923,933.526 850.098,933.526 857.273,933.526 864.448,933.526 871.622,933.526 878.797,933.526 885.972,933.526 893.146,933.526 900.321,933.526 907.496,933.526 914.67,933.526 921.845,933.526 929.02,933.526 936.195,933.526 943.369,933.526 950.544,933.526 957.719,933.526 964.893,933.526 972.068,933.526 "/>
<polyline clip-path="url(#clip482)" style="stroke:#009af9; stroke-linecap:round; stroke-linejoin:round; stroke-width:8; stroke-opacity:1; fill:none" stroke-dasharray="32, 20" points="512.887,925.331 520.062,912.219 527.237,899.107 534.411,885.996 541.586,872.884 548.761,859.773 555.936,846.661 563.11,833.549 570.285,820.438 577.46,807.326 584.634,794.214 591.809,781.103 598.984,767.991 606.158,754.879 613.333,741.768 620.508,728.656 627.683,715.545 634.857,702.433 642.032,689.321 649.207,676.21 656.381,663.098 663.556,649.986 670.731,636.875 677.905,623.763 685.08,610.651 692.255,597.54 699.429,584.428 706.604,571.316 713.779,558.205 720.954,545.093 728.128,531.982 735.303,518.87 742.478,505.758 749.652,492.647 756.827,479.535 764.002,466.423 771.176,453.312 778.351,440.2 785.526,427.088 792.701,413.977 799.875,400.865 807.05,387.753 814.225,374.642 821.399,361.53 828.574,348.419 835.749,335.307 842.923,322.195 850.098,309.084 857.273,295.972 864.448,282.86 871.622,269.749 878.797,256.637 885.972,243.525 893.146,230.414 900.321,217.302 907.496,204.19 914.67,191.079 921.845,177.967 929.02,164.856 936.195,151.744 943.369,138.632 950.544,125.521 957.719,112.409 964.893,99.2973 972.068,86.1857 "/>
<path clip-path="url(#clip480)" d="M1023.14 858.836 L1133.44 858.836 L1133.44 651.476 L1023.14 651.476  Z" fill="#ffffff" fill-rule="evenodd" fill-opacity="1"/>
<polyline clip-path="url(#clip480)" style="stroke:#000000; stroke-linecap:round; stroke-linejoin:round; stroke-width:4; stroke-opacity:1; fill:none" points="1023.14,858.836 1133.44,858.836 1133.44,651.476 1023.14,651.476 1023.14,858.836 "/>
<polyline clip-path="url(#clip480)" style="stroke:#009af9; stroke-linecap:round; stroke-linejoin:round; stroke-width:8; stroke-opacity:1; fill:none" points="1033.06,703.316 1092.6,703.316 "/>
<path clip-path="url(#clip480)" d="M1102.52 691.718 L1102.52 690.137 Q1108.6 690.137 1111.73 686.901 Q1112.6 686.901 1112.75 687.099 Q1112.89 687.296 1112.89 688.21 L1112.89 716.595 Q1112.89 718.101 1113.63 718.571 Q1114.38 719.04 1117.61 719.04 L1119.22 719.04 L1119.22 720.596 Q1117.44 720.448 1111.02 720.448 Q1104.59 720.448 1102.84 720.596 L1102.84 719.04 L1104.44 719.04 Q1107.63 719.04 1108.4 718.596 Q1109.16 718.126 1109.16 716.595 L1109.16 690.384 Q1106.52 691.718 1102.52 691.718 Z" fill="#000000" fill-rule="nonzero" fill-opacity="1" /><polyline clip-path="url(#clip480)" style="stroke:#e26f46; stroke-linecap:round; stroke-linejoin:round; stroke-width:8; stroke-opacity:1; fill:none" points="1033.06,755.156 1092.6,755.156 "/>
<path clip-path="url(#clip480)" d="M1102.52 772.436 Q1102.52 771.522 1102.59 771.251 Q1102.69 770.979 1103.09 770.559 L1112.79 759.739 Q1118.11 753.761 1118.11 748.548 Q1118.11 745.164 1116.33 742.743 Q1114.57 740.322 1111.34 740.322 Q1109.11 740.322 1107.24 741.681 Q1105.36 743.039 1104.49 745.46 Q1104.64 745.411 1105.16 745.411 Q1106.42 745.411 1107.11 746.202 Q1107.83 746.992 1107.83 748.054 Q1107.83 749.413 1106.94 750.08 Q1106.08 750.722 1105.21 750.722 Q1104.86 750.722 1104.4 750.648 Q1103.95 750.574 1103.23 749.882 Q1102.52 749.166 1102.52 747.906 Q1102.52 744.373 1105.19 741.557 Q1107.88 738.741 1111.98 738.741 Q1116.62 738.741 1119.66 741.508 Q1122.73 744.25 1122.73 748.548 Q1122.73 750.055 1122.26 751.439 Q1121.81 752.797 1121.19 753.86 Q1120.6 754.922 1118.97 756.626 Q1117.34 758.331 1116.03 759.541 Q1114.72 760.752 1111.78 763.321 L1106.42 768.533 L1115.54 768.533 Q1119.98 768.533 1120.33 768.138 Q1120.82 767.422 1121.44 763.642 L1122.73 763.642 L1121.29 772.436 L1102.52 772.436 Z" fill="#000000" fill-rule="nonzero" fill-opacity="1" /><polyline clip-path="url(#clip480)" style="stroke:#3da44d; stroke-linecap:round; stroke-linejoin:round; stroke-width:8; stroke-opacity:1; fill:none" points="1033.06,806.996 1092.6,806.996 "/>
<path clip-path="url(#clip480)" d="M1102.52 817.458 Q1102.52 815.951 1103.38 815.235 Q1104.25 814.519 1105.36 814.519 Q1106.52 814.519 1107.34 815.284 Q1108.18 816.026 1108.18 817.335 Q1108.18 818.743 1107.19 819.533 Q1106.22 820.324 1104.84 820.126 Q1106.05 822.152 1108.27 823.066 Q1110.52 823.98 1112.6 823.98 Q1114.77 823.98 1116.52 822.103 Q1118.3 820.225 1118.3 815.63 Q1118.3 811.727 1116.77 809.479 Q1115.27 807.231 1112.28 807.231 L1110.05 807.231 Q1109.29 807.231 1109.06 807.157 Q1108.84 807.083 1108.84 806.663 Q1108.84 806.169 1109.61 806.07 Q1110.37 806.07 1111.58 805.922 Q1114.52 805.823 1116.08 803.279 Q1117.49 800.907 1117.49 797.523 Q1117.49 794.435 1116.01 793.15 Q1114.55 791.841 1112.65 791.841 Q1110.87 791.841 1108.92 792.582 Q1106.96 793.323 1105.9 794.978 Q1109.04 794.978 1109.04 797.523 Q1109.04 798.634 1108.32 799.376 Q1107.63 800.092 1106.47 800.092 Q1105.36 800.092 1104.62 799.4 Q1103.88 798.684 1103.88 797.473 Q1103.88 794.583 1106.45 792.582 Q1109.04 790.581 1112.84 790.581 Q1116.6 790.581 1119.37 792.557 Q1122.16 794.534 1122.16 797.572 Q1122.16 800.561 1120.18 803.007 Q1118.2 805.453 1115.07 806.465 Q1118.92 807.231 1121.22 809.85 Q1123.52 812.444 1123.52 815.63 Q1123.52 819.583 1120.4 822.498 Q1117.29 825.388 1112.75 825.388 Q1108.55 825.388 1105.53 823.115 Q1102.52 820.843 1102.52 817.458 Z" fill="#000000" fill-rule="nonzero" fill-opacity="1" /><path clip-path="url(#clip480)" d="M1459.78 1423.18 L2212.69 1423.18 L2212.69 47.2441 L1459.78 47.2441  Z" fill="#ffffff" fill-rule="evenodd" fill-opacity="1"/>
<defs>
  <clipPath id="clip483">
    <rect x="1459" y="47" width="754" height="1377"/>
  </clipPath>
</defs>
<polyline clip-path="url(#clip483)" style="stroke:#000000; stroke-linecap:round; stroke-linejoin:round; stroke-width:2; stroke-opacity:0.1; fill:none" points="1481.09,1423.18 1481.09,47.2441 "/>
<polyline clip-path="url(#clip483)" style="stroke:#000000; stroke-linecap:round; stroke-linejoin:round; stroke-width:2; stroke-opacity:0.1; fill:none" points="1678.4,1423.18 1678.4,47.2441 "/>
<polyline clip-path="url(#clip483)" style="stroke:#000000; stroke-linecap:round; stroke-linejoin:round; stroke-width:2; stroke-opacity:0.1; fill:none" points="1875.7,1423.18 1875.7,47.2441 "/>
<polyline clip-path="url(#clip483)" style="stroke:#000000; stroke-linecap:round; stroke-linejoin:round; stroke-width:2; stroke-opacity:0.1; fill:none" points="2073,1423.18 2073,47.2441 "/>
<polyline clip-path="url(#clip483)" style="stroke:#000000; stroke-linecap:round; stroke-linejoin:round; stroke-width:2; stroke-opacity:0.1; fill:none" points="1459.78,1243.27 2212.69,1243.27 "/>
<polyline clip-path="url(#clip483)" style="stroke:#000000; stroke-linecap:round; stroke-linejoin:round; stroke-width:2; stroke-opacity:0.1; fill:none" points="1459.78,989.239 2212.69,989.239 "/>
<polyline clip-path="url(#clip483)" style="stroke:#000000; stroke-linecap:round; stroke-linejoin:round; stroke-width:2; stroke-opacity:0.1; fill:none" points="1459.78,735.212 2212.69,735.212 "/>
<polyline clip-path="url(#clip483)" style="stroke:#000000; stroke-linecap:round; stroke-linejoin:round; stroke-width:2; stroke-opacity:0.1; fill:none" points="1459.78,481.185 2212.69,481.185 "/>
<polyline clip-path="url(#clip483)" style="stroke:#000000; stroke-linecap:round; stroke-linejoin:round; stroke-width:2; stroke-opacity:0.1; fill:none" points="1459.78,227.158 2212.69,227.158 "/>
<polyline clip-path="url(#clip480)" style="stroke:#000000; stroke-linecap:round; stroke-linejoin:round; stroke-width:4; stroke-opacity:1; fill:none" points="1459.78,1423.18 2212.69,1423.18 "/>
<polyline clip-path="url(#clip480)" style="stroke:#000000; stroke-linecap:round; stroke-linejoin:round; stroke-width:4; stroke-opacity:1; fill:none" points="1481.09,1423.18 1481.09,1404.28 "/>
<polyline clip-path="url(#clip480)" style="stroke:#000000; stroke-linecap:round; stroke-linejoin:round; stroke-width:4; stroke-opacity:1; fill:none" points="1678.4,1423.18 1678.4,1404.28 "/>
<polyline clip-path="url(#clip480)" style="stroke:#000000; stroke-linecap:round; stroke-linejoin:round; stroke-width:4; stroke-opacity:1; fill:none" points="1875.7,1423.18 1875.7,1404.28 "/>
<polyline clip-path="url(#clip480)" style="stroke:#000000; stroke-linecap:round; stroke-linejoin:round; stroke-width:4; stroke-opacity:1; fill:none" points="2073,1423.18 2073,1404.28 "/>
<path clip-path="url(#clip480)" d="M1450.77 1469.4 Q1450.77 1461.96 1452.65 1457.91 Q1455.26 1451.88 1461.44 1451.88 Q1462.75 1451.88 1464.11 1452.26 Q1465.49 1452.6 1467.22 1453.96 Q1468.97 1455.32 1470.04 1457.54 Q1472.06 1461.84 1472.06 1469.4 Q1472.06 1476.79 1470.18 1480.81 Q1467.44 1486.69 1461.39 1486.69 Q1459.12 1486.69 1456.8 1485.53 Q1454.5 1484.37 1453.04 1481.58 Q1450.77 1477.4 1450.77 1469.4 M1454.97 1468.78 Q1454.97 1476.41 1455.51 1479.45 Q1456.13 1482.74 1457.81 1484.17 Q1459.51 1485.58 1461.39 1485.58 Q1463.42 1485.58 1465.1 1484.07 Q1466.8 1482.54 1467.32 1479.26 Q1467.89 1476.02 1467.86 1468.78 Q1467.86 1461.74 1467.37 1458.92 Q1466.7 1455.64 1464.92 1454.33 Q1463.17 1453 1461.39 1453 Q1460.72 1453 1460.01 1453.19 Q1459.31 1453.39 1458.3 1453.96 Q1457.29 1454.53 1456.5 1455.94 Q1455.73 1457.34 1455.36 1459.47 Q1454.97 1462.21 1454.97 1468.78 Z" fill="#000000" fill-rule="nonzero" fill-opacity="1" /><path clip-path="url(#clip480)" d="M1479.15 1484.76 Q1478.39 1483.95 1478.39 1482.89 Q1478.39 1481.82 1479.15 1481.06 Q1479.92 1480.27 1481.08 1480.27 Q1482.19 1480.27 1482.93 1481.01 Q1483.7 1481.73 1483.7 1482.91 Q1483.7 1484.07 1482.88 1484.84 Q1482.09 1485.58 1481.08 1485.58 Q1479.92 1485.58 1479.15 1484.76 Z" fill="#000000" fill-rule="nonzero" fill-opacity="1" /><path clip-path="url(#clip480)" d="M1490.12 1469.4 Q1490.12 1461.96 1492 1457.91 Q1494.62 1451.88 1500.79 1451.88 Q1502.1 1451.88 1503.46 1452.26 Q1504.84 1452.6 1506.57 1453.96 Q1508.33 1455.32 1509.39 1457.54 Q1511.41 1461.84 1511.41 1469.4 Q1511.41 1476.79 1509.54 1480.81 Q1506.79 1486.69 1500.74 1486.69 Q1498.47 1486.69 1496.15 1485.53 Q1493.85 1484.37 1492.39 1481.58 Q1490.12 1477.4 1490.12 1469.4 M1494.32 1468.78 Q1494.32 1476.41 1494.86 1479.45 Q1495.48 1482.74 1497.16 1484.17 Q1498.87 1485.58 1500.74 1485.58 Q1502.77 1485.58 1504.45 1484.07 Q1506.15 1482.54 1506.67 1479.26 Q1507.24 1476.02 1507.21 1468.78 Q1507.21 1461.74 1506.72 1458.92 Q1506.05 1455.64 1504.28 1454.33 Q1502.52 1453 1500.74 1453 Q1500.08 1453 1499.36 1453.19 Q1498.67 1453.39 1497.65 1453.96 Q1496.64 1454.53 1495.85 1455.94 Q1495.09 1457.34 1494.71 1459.47 Q1494.32 1462.21 1494.32 1468.78 Z" fill="#000000" fill-rule="nonzero" fill-opacity="1" /><path clip-path="url(#clip480)" d="M1648.34 1469.4 Q1648.34 1461.96 1650.22 1457.91 Q1652.84 1451.88 1659.02 1451.88 Q1660.32 1451.88 1661.68 1452.26 Q1663.07 1452.6 1664.8 1453.96 Q1666.55 1455.32 1667.61 1457.54 Q1669.64 1461.84 1669.64 1469.4 Q1669.64 1476.79 1667.76 1480.81 Q1665.02 1486.69 1658.97 1486.69 Q1656.69 1486.69 1654.37 1485.53 Q1652.07 1484.37 1650.62 1481.58 Q1648.34 1477.4 1648.34 1469.4 M1652.54 1468.78 Q1652.54 1476.41 1653.09 1479.45 Q1653.7 1482.74 1655.38 1484.17 Q1657.09 1485.58 1658.97 1485.58 Q1660.99 1485.58 1662.67 1484.07 Q1664.38 1482.54 1664.89 1479.26 Q1665.46 1476.02 1665.44 1468.78 Q1665.44 1461.74 1664.94 1458.92 Q1664.28 1455.64 1662.5 1454.33 Q1660.74 1453 1658.97 1453 Q1658.3 1453 1657.58 1453.19 Q1656.89 1453.39 1655.88 1453.96 Q1654.87 1454.53 1654.07 1455.94 Q1653.31 1457.34 1652.94 1459.47 Q1652.54 1462.21 1652.54 1468.78 Z" fill="#000000" fill-rule="nonzero" fill-opacity="1" /><path clip-path="url(#clip480)" d="M1676.73 1484.76 Q1675.96 1483.95 1675.96 1482.89 Q1675.96 1481.82 1676.73 1481.06 Q1677.49 1480.27 1678.65 1480.27 Q1679.77 1480.27 1680.51 1481.01 Q1681.27 1481.73 1681.27 1482.91 Q1681.27 1484.07 1680.46 1484.84 Q1679.67 1485.58 1678.65 1485.58 Q1677.49 1485.58 1676.73 1484.76 Z" fill="#000000" fill-rule="nonzero" fill-opacity="1" /><path clip-path="url(#clip480)" d="M1688.24 1477.43 Q1688.24 1475.92 1689.05 1475.35 Q1689.87 1474.76 1690.73 1474.76 Q1691.9 1474.76 1692.56 1475.5 Q1693.25 1476.22 1693.25 1477.23 Q1693.25 1478.24 1692.56 1478.98 Q1691.9 1479.7 1690.73 1479.7 Q1690.17 1479.7 1689.87 1479.6 Q1690.54 1481.92 1692.56 1483.6 Q1694.61 1485.28 1697.31 1485.28 Q1700.69 1485.28 1702.72 1482 Q1703.93 1479.87 1703.93 1475.06 Q1703.93 1470.81 1703.01 1468.68 Q1701.6 1465.45 1698.71 1465.45 Q1694.61 1465.45 1692.19 1468.98 Q1691.9 1469.42 1691.55 1469.45 Q1691.06 1469.45 1690.93 1469.18 Q1690.83 1468.88 1690.83 1468.11 L1690.83 1453.14 Q1690.83 1451.93 1691.33 1451.93 Q1691.52 1451.93 1691.94 1452.08 Q1695.13 1453.49 1698.66 1453.51 Q1702.3 1453.51 1705.56 1452.03 Q1705.8 1451.88 1705.95 1451.88 Q1706.45 1451.88 1706.47 1452.45 Q1706.47 1452.65 1706.05 1453.24 Q1705.66 1453.81 1704.79 1454.58 Q1703.93 1455.32 1702.81 1456.03 Q1701.7 1456.75 1700.07 1457.25 Q1698.47 1457.71 1696.69 1457.71 Q1694.56 1457.71 1692.39 1457.05 L1692.39 1466.9 Q1695.01 1464.33 1698.81 1464.33 Q1702.86 1464.33 1705.66 1467.6 Q1708.45 1470.86 1708.45 1475.4 Q1708.45 1480.17 1705.14 1483.43 Q1701.85 1486.69 1697.4 1486.69 Q1693.35 1486.69 1690.78 1483.8 Q1688.24 1480.91 1688.24 1477.43 Z" fill="#000000" fill-rule="nonzero" fill-opacity="1" /><path clip-path="url(#clip480)" d="M1846.64 1456.7 L1846.64 1455.12 Q1852.71 1455.12 1855.85 1451.88 Q1856.71 1451.88 1856.86 1452.08 Q1857.01 1452.28 1857.01 1453.19 L1857.01 1481.58 Q1857.01 1483.08 1857.75 1483.55 Q1858.49 1484.02 1861.73 1484.02 L1863.34 1484.02 L1863.34 1485.58 Q1861.56 1485.43 1855.13 1485.43 Q1848.71 1485.43 1846.96 1485.58 L1846.96 1484.02 L1848.56 1484.02 Q1851.75 1484.02 1852.52 1483.58 Q1853.28 1483.11 1853.28 1481.58 L1853.28 1455.37 Q1850.64 1456.7 1846.64 1456.7 Z" fill="#000000" fill-rule="nonzero" fill-opacity="1" /><path clip-path="url(#clip480)" d="M1872.5 1484.76 Q1871.73 1483.95 1871.73 1482.89 Q1871.73 1481.82 1872.5 1481.06 Q1873.27 1480.27 1874.43 1480.27 Q1875.54 1480.27 1876.28 1481.01 Q1877.05 1481.73 1877.05 1482.91 Q1877.05 1484.07 1876.23 1484.84 Q1875.44 1485.58 1874.43 1485.58 Q1873.27 1485.58 1872.5 1484.76 Z" fill="#000000" fill-rule="nonzero" fill-opacity="1" /><path clip-path="url(#clip480)" d="M1883.47 1469.4 Q1883.47 1461.96 1885.35 1457.91 Q1887.96 1451.88 1894.14 1451.88 Q1895.45 1451.88 1896.81 1452.26 Q1898.19 1452.6 1899.92 1453.96 Q1901.67 1455.32 1902.74 1457.54 Q1904.76 1461.84 1904.76 1469.4 Q1904.76 1476.79 1902.89 1480.81 Q1900.14 1486.69 1894.09 1486.69 Q1891.82 1486.69 1889.5 1485.53 Q1887.2 1484.37 1885.74 1481.58 Q1883.47 1477.4 1883.47 1469.4 M1887.67 1468.78 Q1887.67 1476.41 1888.21 1479.45 Q1888.83 1482.74 1890.51 1484.17 Q1892.21 1485.58 1894.09 1485.58 Q1896.12 1485.58 1897.8 1484.07 Q1899.5 1482.54 1900.02 1479.26 Q1900.59 1476.02 1900.56 1468.78 Q1900.56 1461.74 1900.07 1458.92 Q1899.4 1455.64 1897.62 1454.33 Q1895.87 1453 1894.09 1453 Q1893.42 1453 1892.71 1453.19 Q1892.02 1453.39 1891 1453.96 Q1889.99 1454.53 1889.2 1455.94 Q1888.43 1457.34 1888.06 1459.47 Q1887.67 1462.21 1887.67 1468.78 Z" fill="#000000" fill-rule="nonzero" fill-opacity="1" /><path clip-path="url(#clip480)" d="M2044.21 1456.7 L2044.21 1455.12 Q2050.29 1455.12 2053.43 1451.88 Q2054.29 1451.88 2054.44 1452.08 Q2054.59 1452.28 2054.59 1453.19 L2054.59 1481.58 Q2054.59 1483.08 2055.33 1483.55 Q2056.07 1484.02 2059.31 1484.02 L2060.91 1484.02 L2060.91 1485.58 Q2059.13 1485.43 2052.71 1485.43 Q2046.29 1485.43 2044.53 1485.58 L2044.53 1484.02 L2046.14 1484.02 Q2049.33 1484.02 2050.09 1483.58 Q2050.86 1483.11 2050.86 1481.58 L2050.86 1455.37 Q2048.21 1456.7 2044.21 1456.7 Z" fill="#000000" fill-rule="nonzero" fill-opacity="1" /><path clip-path="url(#clip480)" d="M2070.08 1484.76 Q2069.31 1483.95 2069.31 1482.89 Q2069.31 1481.82 2070.08 1481.06 Q2070.84 1480.27 2072 1480.27 Q2073.11 1480.27 2073.86 1481.01 Q2074.62 1481.73 2074.62 1482.91 Q2074.62 1484.07 2073.81 1484.84 Q2073.02 1485.58 2072 1485.58 Q2070.84 1485.58 2070.08 1484.76 Z" fill="#000000" fill-rule="nonzero" fill-opacity="1" /><path clip-path="url(#clip480)" d="M2081.59 1477.43 Q2081.59 1475.92 2082.4 1475.35 Q2083.22 1474.76 2084.08 1474.76 Q2085.24 1474.76 2085.91 1475.5 Q2086.6 1476.22 2086.6 1477.23 Q2086.6 1478.24 2085.91 1478.98 Q2085.24 1479.7 2084.08 1479.7 Q2083.51 1479.7 2083.22 1479.6 Q2083.89 1481.92 2085.91 1483.6 Q2087.96 1485.28 2090.65 1485.28 Q2094.04 1485.28 2096.06 1482 Q2097.27 1479.87 2097.27 1475.06 Q2097.27 1470.81 2096.36 1468.68 Q2094.95 1465.45 2092.06 1465.45 Q2087.96 1465.45 2085.54 1468.98 Q2085.24 1469.42 2084.9 1469.45 Q2084.4 1469.45 2084.28 1469.18 Q2084.18 1468.88 2084.18 1468.11 L2084.18 1453.14 Q2084.18 1451.93 2084.68 1451.93 Q2084.87 1451.93 2085.29 1452.08 Q2088.48 1453.49 2092.01 1453.51 Q2095.64 1453.51 2098.9 1452.03 Q2099.15 1451.88 2099.3 1451.88 Q2099.79 1451.88 2099.82 1452.45 Q2099.82 1452.65 2099.4 1453.24 Q2099 1453.81 2098.14 1454.58 Q2097.27 1455.32 2096.16 1456.03 Q2095.05 1456.75 2093.42 1457.25 Q2091.82 1457.71 2090.04 1457.71 Q2087.91 1457.71 2085.74 1457.05 L2085.74 1466.9 Q2088.36 1464.33 2092.16 1464.33 Q2096.21 1464.33 2099 1467.6 Q2101.8 1470.86 2101.8 1475.4 Q2101.8 1480.17 2098.49 1483.43 Q2095.2 1486.69 2090.75 1486.69 Q2086.7 1486.69 2084.13 1483.8 Q2081.59 1480.91 2081.59 1477.43 Z" fill="#000000" fill-rule="nonzero" fill-opacity="1" /><path clip-path="url(#clip480)" d="M1795.7 1551.5 L1797.34 1551.5 Q1798.27 1555.98 1798.72 1556.66 Q1799.37 1557.78 1802.17 1557.91 Q1802.75 1557.91 1803.75 1557.91 L1808.16 1557.91 Q1807.35 1554.89 1805.33 1551.41 Q1803.3 1547.9 1801.36 1545.29 Q1799.46 1542.68 1797.95 1539.14 Q1796.44 1535.56 1796.44 1532.18 Q1796.44 1525.45 1802.23 1520.59 Q1808.03 1515.69 1816.53 1515.69 Q1825.04 1515.69 1830.86 1520.55 Q1836.73 1525.38 1836.73 1532.18 Q1836.73 1535.53 1835.21 1539.07 Q1833.7 1542.61 1831.8 1545.22 Q1829.93 1547.83 1827.84 1551.37 Q1825.78 1554.89 1824.97 1557.91 L1829.48 1557.91 Q1833.18 1557.91 1833.92 1557.24 Q1834.66 1556.53 1835.47 1552.82 Q1835.6 1551.95 1835.73 1551.5 L1837.43 1551.5 L1835.28 1562.2 L1824.71 1562.2 Q1823.84 1562.2 1823.46 1561.94 Q1823.07 1561.68 1823.07 1560.75 Q1823.07 1556.27 1826.48 1546.64 Q1829.93 1537.01 1829.93 1532.18 Q1829.93 1525 1825.84 1521.07 Q1821.75 1517.14 1816.53 1517.14 Q1811.38 1517.14 1807.29 1521.04 Q1803.23 1524.93 1803.23 1532.18 Q1803.23 1537.08 1806.65 1546.67 Q1810.09 1556.27 1810.09 1560.68 Q1810.09 1561.75 1809.67 1561.97 Q1809.29 1562.2 1807.97 1562.2 L1797.89 1562.2 L1795.7 1551.5 Z" fill="#000000" fill-rule="nonzero" fill-opacity="1" /><path clip-path="url(#clip480)" d="M1874.24 1517.14 L1864.74 1555.27 Q1864.35 1556.98 1864.35 1558.43 Q1864.35 1561.46 1866.32 1561.46 Q1867.29 1561.46 1868.06 1560.84 Q1868.83 1560.23 1869.44 1558.94 Q1870.06 1557.65 1870.44 1556.46 Q1870.83 1555.24 1871.34 1553.31 Q1871.5 1552.53 1871.63 1552.34 Q1871.79 1552.12 1872.25 1552.12 Q1873.05 1552.12 1873.05 1552.76 Q1872.18 1556.91 1871.05 1559.3 Q1869.25 1562.94 1866.19 1562.94 Q1863.87 1562.94 1862.23 1561.52 Q1860.59 1560.1 1860.2 1557.98 Q1855.98 1562.94 1851.6 1562.94 Q1847.74 1562.94 1845.29 1560.01 Q1842.84 1557.04 1842.84 1552.37 Q1842.84 1547.67 1845.16 1543.16 Q1847.51 1538.65 1851.22 1535.85 Q1854.92 1533.05 1858.72 1533.05 Q1862.74 1533.05 1864.81 1537.27 L1868.77 1521.62 L1868.96 1520.33 Q1868.96 1519.94 1868.8 1519.75 Q1868.67 1519.52 1867.9 1519.36 Q1867.16 1519.2 1865.68 1519.2 Q1865.06 1519.2 1864.77 1519.17 Q1864.52 1519.14 1864.29 1518.98 Q1864.07 1518.78 1864.07 1518.4 Q1864.07 1517.27 1865 1517.14 Q1871.18 1516.43 1873.37 1516.43 Q1873.76 1516.43 1873.98 1516.62 Q1874.21 1516.79 1874.21 1516.98 L1874.24 1517.14 M1864 1540.3 Q1864 1540.01 1863.78 1539.2 Q1863.55 1538.4 1863.03 1537.27 Q1862.52 1536.14 1861.39 1535.34 Q1860.3 1534.5 1858.82 1534.5 Q1856.82 1534.5 1854.73 1536.21 Q1852.66 1537.91 1851.15 1540.81 Q1849.99 1543.13 1848.74 1547.99 Q1847.51 1552.86 1847.51 1555.27 Q1847.51 1556.75 1847.83 1558.07 Q1848.19 1559.36 1849.19 1560.42 Q1850.18 1561.46 1851.73 1561.46 Q1855.5 1561.46 1859.2 1556.79 Q1859.91 1555.98 1860.07 1555.66 Q1860.26 1555.3 1860.52 1554.34 L1863.81 1541.42 Q1864 1540.46 1864 1540.3 Z" fill="#000000" fill-rule="nonzero" fill-opacity="1" /><polyline clip-path="url(#clip480)" style="stroke:#000000; stroke-linecap:round; stroke-linejoin:round; stroke-width:4; stroke-opacity:1; fill:none" points="1459.78,1423.18 1459.78,47.2441 "/>
<polyline clip-path="url(#clip480)" style="stroke:#000000; stroke-linecap:round; stroke-linejoin:round; stroke-width:4; stroke-opacity:1; fill:none" points="1459.78,1243.27 1475.72,1243.27 "/>
<polyline clip-path="url(#clip480)" style="stroke:#000000; stroke-linecap:round; stroke-linejoin:round; stroke-width:4; stroke-opacity:1; fill:none" points="1459.78,989.239 1475.72,989.239 "/>
<polyline clip-path="url(#clip480)" style="stroke:#000000; stroke-linecap:round; stroke-linejoin:round; stroke-width:4; stroke-opacity:1; fill:none" points="1459.78,735.212 1475.72,735.212 "/>
<polyline clip-path="url(#clip480)" style="stroke:#000000; stroke-linecap:round; stroke-linejoin:round; stroke-width:4; stroke-opacity:1; fill:none" points="1459.78,481.185 1475.72,481.185 "/>
<polyline clip-path="url(#clip480)" style="stroke:#000000; stroke-linecap:round; stroke-linejoin:round; stroke-width:4; stroke-opacity:1; fill:none" points="1459.78,227.158 1475.72,227.158 "/>
<path clip-path="url(#clip480)" d="M1372.1 1247.18 Q1372.4 1247.48 1372.4 1247.9 Q1372.4 1248.32 1372.1 1248.61 Q1371.81 1248.91 1371.39 1248.91 L1339.72 1248.91 Q1339.3 1248.91 1339 1248.61 Q1338.7 1248.32 1338.7 1247.9 Q1338.7 1247.48 1339 1247.18 Q1339.3 1246.88 1339.72 1246.88 L1371.39 1246.88 Q1371.81 1246.88 1372.1 1247.18 Z" fill="#000000" fill-rule="nonzero" fill-opacity="1" /><path clip-path="url(#clip480)" d="M1377.34 1244.56 Q1377.34 1236.61 1381.39 1231.74 Q1385.44 1226.85 1390.65 1226.85 Q1393.69 1226.85 1395.37 1228.41 Q1397.08 1229.94 1397.08 1232.31 Q1397.08 1233.62 1396.31 1234.19 Q1395.55 1234.76 1394.76 1234.76 Q1393.84 1234.76 1393.13 1234.14 Q1392.41 1233.52 1392.41 1232.41 Q1392.41 1230.14 1395.2 1230.14 Q1393.89 1228.11 1390.75 1228.11 Q1389.79 1228.11 1388.8 1228.41 Q1387.81 1228.68 1386.53 1229.62 Q1385.24 1230.56 1384.26 1232.04 Q1383.27 1233.52 1382.58 1236.31 Q1381.89 1239.1 1381.89 1242.73 L1381.89 1243.94 Q1383.96 1238.93 1388.21 1238.95 Q1392.46 1238.95 1395.4 1242.19 Q1398.34 1245.43 1398.34 1250.22 Q1398.34 1255.14 1395.27 1258.4 Q1392.21 1261.66 1387.91 1261.66 Q1385.99 1261.66 1384.23 1260.84 Q1382.5 1260.05 1380.87 1258.22 Q1379.27 1256.4 1378.3 1252.89 Q1377.34 1249.38 1377.34 1244.56 M1381.98 1249.11 Q1381.98 1254.07 1382.9 1256.44 Q1383.05 1256.84 1383.37 1257.38 Q1383.71 1257.93 1384.28 1258.64 Q1384.87 1259.34 1385.84 1259.8 Q1386.8 1260.25 1387.91 1260.25 Q1391.3 1260.25 1392.93 1256.96 Q1393.79 1255.14 1393.79 1250.17 Q1393.79 1245.11 1392.88 1243.25 Q1391.32 1240.12 1388.16 1240.12 Q1386.04 1240.12 1384.55 1241.57 Q1383.1 1243.03 1382.53 1244.98 Q1381.98 1246.93 1381.98 1249.11 Z" fill="#000000" fill-rule="nonzero" fill-opacity="1" /><path clip-path="url(#clip480)" d="M1402.49 1244.36 Q1402.49 1236.93 1404.37 1232.88 Q1406.98 1226.85 1413.16 1226.85 Q1414.47 1226.85 1415.83 1227.22 Q1417.21 1227.57 1418.94 1228.93 Q1420.69 1230.28 1421.76 1232.51 Q1423.78 1236.81 1423.78 1244.36 Q1423.78 1251.75 1421.9 1255.78 Q1419.16 1261.66 1413.11 1261.66 Q1410.84 1261.66 1408.52 1260.5 Q1406.22 1259.34 1404.76 1256.54 Q1402.49 1252.37 1402.49 1244.36 M1406.69 1243.75 Q1406.69 1251.38 1407.23 1254.42 Q1407.85 1257.7 1409.53 1259.14 Q1411.23 1260.55 1413.11 1260.55 Q1415.14 1260.55 1416.82 1259.04 Q1418.52 1257.51 1419.04 1254.22 Q1419.61 1250.99 1419.58 1243.75 Q1419.58 1236.71 1419.09 1233.89 Q1418.42 1230.61 1416.64 1229.3 Q1414.89 1227.96 1413.11 1227.96 Q1412.44 1227.96 1411.73 1228.16 Q1411.04 1228.36 1410.02 1228.93 Q1409.01 1229.49 1408.22 1230.9 Q1407.45 1232.31 1407.08 1234.43 Q1406.69 1237.18 1406.69 1243.75 Z" fill="#000000" fill-rule="nonzero" fill-opacity="1" /><path clip-path="url(#clip480)" d="M1372.1 993.154 Q1372.4 993.451 1372.4 993.871 Q1372.4 994.291 1372.1 994.587 Q1371.81 994.884 1371.39 994.884 L1339.72 994.884 Q1339.3 994.884 1339 994.587 Q1338.7 994.291 1338.7 993.871 Q1338.7 993.451 1339 993.154 Q1339.3 992.858 1339.72 992.858 L1371.39 992.858 Q1371.81 992.858 1372.1 993.154 Z" fill="#000000" fill-rule="nonzero" fill-opacity="1" /><path clip-path="url(#clip480)" d="M1377.34 999.701 Q1377.34 998.194 1378.2 997.477 Q1379.07 996.761 1380.18 996.761 Q1381.34 996.761 1382.16 997.527 Q1383 998.268 1383 999.577 Q1383 1000.99 1382.01 1001.78 Q1381.05 1002.57 1379.66 1002.37 Q1380.87 1004.39 1383.1 1005.31 Q1385.34 1006.22 1387.42 1006.22 Q1389.59 1006.22 1391.35 1004.34 Q1393.13 1002.47 1393.13 997.873 Q1393.13 993.97 1391.59 991.722 Q1390.09 989.473 1387.1 989.473 L1384.87 989.473 Q1384.11 989.473 1383.89 989.399 Q1383.66 989.325 1383.66 988.905 Q1383.66 988.411 1384.43 988.312 Q1385.2 988.312 1386.41 988.164 Q1389.35 988.065 1390.9 985.521 Q1392.31 983.149 1392.31 979.765 Q1392.31 976.677 1390.83 975.393 Q1389.37 974.083 1387.47 974.083 Q1385.69 974.083 1383.74 974.824 Q1381.79 975.566 1380.72 977.221 Q1383.86 977.221 1383.86 979.765 Q1383.86 980.877 1383.15 981.618 Q1382.45 982.334 1381.29 982.334 Q1380.18 982.334 1379.44 981.643 Q1378.7 980.926 1378.7 979.716 Q1378.7 976.825 1381.27 974.824 Q1383.86 972.823 1387.67 972.823 Q1391.42 972.823 1394.19 974.8 Q1396.98 976.776 1396.98 979.814 Q1396.98 982.804 1395 985.249 Q1393.03 987.695 1389.89 988.708 Q1393.74 989.473 1396.04 992.092 Q1398.34 994.686 1398.34 997.873 Q1398.34 1001.83 1395.23 1004.74 Q1392.11 1007.63 1387.57 1007.63 Q1383.37 1007.63 1380.35 1005.36 Q1377.34 1003.09 1377.34 999.701 Z" fill="#000000" fill-rule="nonzero" fill-opacity="1" /><path clip-path="url(#clip480)" d="M1402.49 990.338 Q1402.49 982.902 1404.37 978.851 Q1406.98 972.823 1413.16 972.823 Q1414.47 972.823 1415.83 973.194 Q1417.21 973.54 1418.94 974.899 Q1420.69 976.257 1421.76 978.48 Q1423.78 982.779 1423.78 990.338 Q1423.78 997.724 1421.9 1001.75 Q1419.16 1007.63 1413.11 1007.63 Q1410.84 1007.63 1408.52 1006.47 Q1406.22 1005.31 1404.76 1002.52 Q1402.49 998.342 1402.49 990.338 M1406.69 989.721 Q1406.69 997.354 1407.23 1000.39 Q1407.85 1003.68 1409.53 1005.11 Q1411.23 1006.52 1413.11 1006.52 Q1415.14 1006.52 1416.82 1005.01 Q1418.52 1003.48 1419.04 1000.19 Q1419.61 996.959 1419.58 989.721 Q1419.58 982.68 1419.09 979.864 Q1418.42 976.578 1416.64 975.269 Q1414.89 973.935 1413.11 973.935 Q1412.44 973.935 1411.73 974.133 Q1411.04 974.33 1410.02 974.899 Q1409.01 975.467 1408.22 976.875 Q1407.45 978.283 1407.08 980.407 Q1406.69 983.149 1406.69 989.721 Z" fill="#000000" fill-rule="nonzero" fill-opacity="1" /><path clip-path="url(#clip480)" d="M1402.49 736.311 Q1402.49 728.876 1404.37 724.824 Q1406.98 718.797 1413.16 718.797 Q1414.47 718.797 1415.83 719.167 Q1417.21 719.513 1418.94 720.872 Q1420.69 722.23 1421.76 724.454 Q1423.78 728.752 1423.78 736.311 Q1423.78 743.698 1421.9 747.724 Q1419.16 753.604 1413.11 753.604 Q1410.84 753.604 1408.52 752.443 Q1406.22 751.282 1404.76 748.49 Q1402.49 744.315 1402.49 736.311 M1406.69 735.694 Q1406.69 743.327 1407.23 746.366 Q1407.85 749.651 1409.53 751.084 Q1411.23 752.492 1413.11 752.492 Q1415.14 752.492 1416.82 750.985 Q1418.52 749.453 1419.04 746.168 Q1419.61 742.932 1419.58 735.694 Q1419.58 728.653 1419.09 725.837 Q1418.42 722.551 1416.64 721.242 Q1414.89 719.908 1413.11 719.908 Q1412.44 719.908 1411.73 720.106 Q1411.04 720.303 1410.02 720.872 Q1409.01 721.44 1408.22 722.848 Q1407.45 724.256 1407.08 726.381 Q1406.69 729.123 1406.69 735.694 Z" fill="#000000" fill-rule="nonzero" fill-opacity="1" /><path clip-path="url(#clip480)" d="M1377.34 491.647 Q1377.34 490.14 1378.2 489.424 Q1379.07 488.707 1380.18 488.707 Q1381.34 488.707 1382.16 489.473 Q1383 490.214 1383 491.523 Q1383 492.932 1382.01 493.722 Q1381.05 494.513 1379.66 494.315 Q1380.87 496.341 1383.1 497.255 Q1385.34 498.169 1387.42 498.169 Q1389.59 498.169 1391.35 496.291 Q1393.13 494.414 1393.13 489.819 Q1393.13 485.916 1391.59 483.668 Q1390.09 481.42 1387.1 481.42 L1384.87 481.42 Q1384.11 481.42 1383.89 481.346 Q1383.66 481.272 1383.66 480.852 Q1383.66 480.358 1384.43 480.259 Q1385.2 480.259 1386.41 480.111 Q1389.35 480.012 1390.9 477.467 Q1392.31 475.096 1392.31 471.711 Q1392.31 468.623 1390.83 467.339 Q1389.37 466.03 1387.47 466.03 Q1385.69 466.03 1383.74 466.771 Q1381.79 467.512 1380.72 469.167 Q1383.86 469.167 1383.86 471.711 Q1383.86 472.823 1383.15 473.564 Q1382.45 474.281 1381.29 474.281 Q1380.18 474.281 1379.44 473.589 Q1378.7 472.872 1378.7 471.662 Q1378.7 468.772 1381.27 466.771 Q1383.86 464.77 1387.67 464.77 Q1391.42 464.77 1394.19 466.746 Q1396.98 468.722 1396.98 471.761 Q1396.98 474.75 1395 477.196 Q1393.03 479.641 1389.89 480.654 Q1393.74 481.42 1396.04 484.038 Q1398.34 486.632 1398.34 489.819 Q1398.34 493.771 1395.23 496.686 Q1392.11 499.577 1387.57 499.577 Q1383.37 499.577 1380.35 497.304 Q1377.34 495.031 1377.34 491.647 Z" fill="#000000" fill-rule="nonzero" fill-opacity="1" /><path clip-path="url(#clip480)" d="M1402.49 482.284 Q1402.49 474.849 1404.37 470.797 Q1406.98 464.77 1413.16 464.77 Q1414.47 464.77 1415.83 465.14 Q1417.21 465.486 1418.94 466.845 Q1420.69 468.204 1421.76 470.427 Q1423.78 474.725 1423.78 482.284 Q1423.78 489.671 1421.9 493.697 Q1419.16 499.577 1413.11 499.577 Q1410.84 499.577 1408.52 498.416 Q1406.22 497.255 1404.76 494.463 Q1402.49 490.288 1402.49 482.284 M1406.69 481.667 Q1406.69 489.3 1407.23 492.339 Q1407.85 495.624 1409.53 497.057 Q1411.23 498.465 1413.11 498.465 Q1415.14 498.465 1416.82 496.958 Q1418.52 495.427 1419.04 492.141 Q1419.61 488.905 1419.58 481.667 Q1419.58 474.626 1419.09 471.81 Q1418.42 468.525 1416.64 467.215 Q1414.89 465.881 1413.11 465.881 Q1412.44 465.881 1411.73 466.079 Q1411.04 466.277 1410.02 466.845 Q1409.01 467.413 1408.22 468.821 Q1407.45 470.229 1407.08 472.354 Q1406.69 475.096 1406.69 481.667 Z" fill="#000000" fill-rule="nonzero" fill-opacity="1" /><path clip-path="url(#clip480)" d="M1377.34 228.455 Q1377.34 220.501 1381.39 215.634 Q1385.44 210.743 1390.65 210.743 Q1393.69 210.743 1395.37 212.299 Q1397.08 213.831 1397.08 216.202 Q1397.08 217.512 1396.31 218.08 Q1395.55 218.648 1394.76 218.648 Q1393.84 218.648 1393.13 218.03 Q1392.41 217.413 1392.41 216.301 Q1392.41 214.028 1395.2 214.028 Q1393.89 212.003 1390.75 212.003 Q1389.79 212.003 1388.8 212.299 Q1387.81 212.571 1386.53 213.51 Q1385.24 214.448 1384.26 215.931 Q1383.27 217.413 1382.58 220.204 Q1381.89 222.996 1381.89 226.627 L1381.89 227.838 Q1383.96 222.823 1388.21 222.848 Q1392.46 222.848 1395.4 226.084 Q1398.34 229.32 1398.34 234.112 Q1398.34 239.028 1395.27 242.289 Q1392.21 245.55 1387.91 245.55 Q1385.99 245.55 1384.23 244.735 Q1382.5 243.944 1380.87 242.116 Q1379.27 240.288 1378.3 236.78 Q1377.34 233.272 1377.34 228.455 M1381.98 233.001 Q1381.98 237.966 1382.9 240.338 Q1383.05 240.733 1383.37 241.276 Q1383.71 241.82 1384.28 242.536 Q1384.87 243.228 1385.84 243.697 Q1386.8 244.142 1387.91 244.142 Q1391.3 244.142 1392.93 240.856 Q1393.79 239.028 1393.79 234.063 Q1393.79 228.999 1392.88 227.146 Q1391.32 224.009 1388.16 224.009 Q1386.04 224.009 1384.55 225.466 Q1383.1 226.924 1382.53 228.875 Q1381.98 230.827 1381.98 233.001 Z" fill="#000000" fill-rule="nonzero" fill-opacity="1" /><path clip-path="url(#clip480)" d="M1402.49 228.258 Q1402.49 220.822 1404.37 216.771 Q1406.98 210.743 1413.16 210.743 Q1414.47 210.743 1415.83 211.113 Q1417.21 211.459 1418.94 212.818 Q1420.69 214.177 1421.76 216.4 Q1423.78 220.698 1423.78 228.258 Q1423.78 235.644 1421.9 239.671 Q1419.16 245.55 1413.11 245.55 Q1410.84 245.55 1408.52 244.389 Q1406.22 243.228 1404.76 240.436 Q1402.49 236.261 1402.49 228.258 M1406.69 227.64 Q1406.69 235.273 1407.23 238.312 Q1407.85 241.597 1409.53 243.03 Q1411.23 244.438 1413.11 244.438 Q1415.14 244.438 1416.82 242.931 Q1418.52 241.4 1419.04 238.114 Q1419.61 234.878 1419.58 227.64 Q1419.58 220.6 1419.09 217.783 Q1418.42 214.498 1416.64 213.189 Q1414.89 211.855 1413.11 211.855 Q1412.44 211.855 1411.73 212.052 Q1411.04 212.25 1410.02 212.818 Q1409.01 213.386 1408.22 214.794 Q1407.45 216.202 1407.08 218.327 Q1406.69 221.069 1406.69 227.64 Z" fill="#000000" fill-rule="nonzero" fill-opacity="1" /><path clip-path="url(#clip480)" d="M1185.34 901.675 L1183.28 901.675 Q1183.28 893.752 1179.06 889.662 Q1179.06 888.535 1179.32 888.341 Q1179.58 888.148 1180.77 888.148 L1217.77 888.148 Q1219.74 888.148 1220.35 887.182 Q1220.96 886.216 1220.96 881.997 L1220.96 879.904 L1222.99 879.904 Q1222.8 882.222 1222.8 890.596 Q1222.8 898.969 1222.99 901.256 L1220.96 901.256 L1220.96 899.163 Q1220.96 895.008 1220.38 894.01 Q1219.77 893.011 1217.77 893.011 L1183.6 893.011 Q1185.34 896.457 1185.34 901.675 Z" fill="#000000" fill-rule="nonzero" fill-opacity="1" /><path clip-path="url(#clip480)" d="M1240.59 927.675 L1240.59 846.11 L1237.07 846.11 L1237.07 927.675  Z" fill="#000000" fill-rule="evenodd" fill-opacity="1"/>
<path clip-path="url(#clip480)" d="M1298.72 927.675 L1285.64 919.198 L1302.99 915.749 L1306.15 915.103 Q1305.33 914.959 1303.93 914.528 Q1302.49 914.061 1302.13 913.989 L1258.42 902.603 Q1258.13 902.531 1257.66 902.423 Q1257.16 902.28 1256.98 902.208 Q1256.8 902.136 1256.44 902.028 Q1256.08 901.92 1255.97 901.849 Q1255.83 901.777 1255.58 901.669 Q1255.33 901.561 1255.26 901.417 Q1255.18 901.274 1255.04 901.094 Q1254.9 900.915 1254.86 900.699 Q1254.82 900.448 1254.79 900.196 Q1254.75 899.945 1254.75 899.586 L1254.75 893.156 Q1254.75 890.893 1256.23 890.893 Q1257.7 890.893 1257.7 893.084 L1257.7 899.37 L1314.42 914.205 Q1315.24 914.42 1315.56 914.6 Q1315.89 914.744 1316.18 915.247 Q1316.46 915.749 1316.46 916.647 L1316.46 917.366 L1293.08 922.071 L1299.9 926.489 L1298.72 927.675 Z" fill="#000000" fill-rule="nonzero" fill-opacity="1" /><path clip-path="url(#clip480)" d="M1257.72 893.308 L1257.72 853.15 L1254.67 853.15 L1254.67 893.308  Z" fill="#000000" fill-rule="evenodd" fill-opacity="1"/>
<path clip-path="url(#clip480)" d="M1316.24 886.268 Q1315.05 886.268 1314.69 886.172 Q1314.34 886.043 1313.79 885.528 L1299.69 872.871 Q1291.89 865.947 1285.1 865.947 Q1280.69 865.947 1277.53 868.265 Q1274.37 870.552 1274.37 874.771 Q1274.37 877.669 1276.14 880.117 Q1277.92 882.565 1281.07 883.692 Q1281.01 883.499 1281.01 882.822 Q1281.01 881.18 1282.04 880.278 Q1283.07 879.344 1284.45 879.344 Q1286.22 879.344 1287.09 880.504 Q1287.93 881.631 1287.93 882.758 Q1287.93 883.209 1287.84 883.821 Q1287.74 884.4 1286.84 885.334 Q1285.9 886.268 1284.26 886.268 Q1279.65 886.268 1275.98 882.79 Q1272.31 879.28 1272.31 873.934 Q1272.31 867.879 1275.92 863.918 Q1279.49 859.924 1285.1 859.924 Q1287.06 859.924 1288.87 860.536 Q1290.64 861.116 1292.02 861.921 Q1293.41 862.694 1295.63 864.819 Q1297.85 866.945 1299.43 868.652 Q1301.01 870.359 1304.36 874.191 L1311.15 881.18 L1311.15 869.296 Q1311.15 863.499 1310.64 863.048 Q1309.7 862.404 1304.78 861.599 L1304.78 859.924 L1316.24 861.792 L1316.24 886.268 Z" fill="#000000" fill-rule="nonzero" fill-opacity="1" /><path clip-path="url(#clip480)" d="M1236.23 814.81 Q1237.26 813.779 1238.68 813.779 Q1240.09 813.779 1241.16 814.81 Q1242.19 815.84 1242.19 817.257 Q1242.19 818.674 1241.16 819.737 Q1240.09 820.768 1238.68 820.768 Q1237.26 820.768 1236.23 819.737 Q1235.17 818.674 1235.17 817.257 Q1235.17 815.84 1236.23 814.81 Z" fill="#000000" fill-rule="nonzero" fill-opacity="1" /><path clip-path="url(#clip480)" d="M1245.75 784.315 Q1235.97 784.315 1228.08 780.668 Q1224.78 779.114 1222.01 776.937 Q1219.24 774.76 1218.02 773.319 Q1216.8 771.877 1216.8 771.481 Q1216.8 770.916 1217.37 770.888 Q1217.65 770.888 1218.36 771.651 Q1227.86 780.979 1245.75 780.951 Q1263.7 780.951 1272.83 771.877 Q1273.82 770.888 1274.13 770.888 Q1274.7 770.888 1274.7 771.481 Q1274.7 771.877 1273.54 773.262 Q1272.38 774.647 1269.72 776.796 Q1267.07 778.944 1263.81 780.499 Q1255.93 784.315 1245.75 784.315 Z" fill="#000000" fill-rule="nonzero" fill-opacity="1" /><path clip-path="url(#clip480)" d="M1247.53 729.639 Q1247.82 729.381 1248.11 729.381 Q1248.4 729.381 1249.24 730.025 Q1250.08 730.637 1251.2 731.957 Q1252.33 733.278 1253.39 734.985 Q1254.46 736.692 1255.17 739.204 Q1255.91 741.716 1255.91 744.357 Q1255.91 749.284 1252.65 752.183 Q1249.4 755.049 1244.73 755.049 Q1240.19 755.049 1235.84 752.505 Q1231.46 749.96 1228.76 745.838 Q1226.02 741.716 1226.02 737.368 Q1226.02 733.922 1227.63 731.764 Q1229.24 729.606 1231.69 729.606 Q1233.59 729.606 1234.75 730.701 Q1235.91 731.796 1235.91 733.278 Q1235.91 734.308 1235.33 735.017 Q1234.71 735.725 1233.59 735.725 Q1232.14 735.725 1231.01 734.534 Q1230.56 734.083 1230.37 733.568 Q1230.14 733.02 1230.14 732.698 Q1230.11 732.376 1230.11 731.635 Q1228.85 732.312 1228.18 733.922 Q1227.47 735.5 1227.47 737.304 Q1227.47 739.977 1229.34 742.521 Q1231.17 745.065 1234.07 746.611 Q1236.9 748.157 1240.93 749.155 Q1244.92 750.154 1247.24 750.154 Q1250.43 750.154 1252.43 748.672 Q1254.42 747.191 1254.42 744.228 Q1254.42 743.648 1254.39 743.036 Q1254.36 742.392 1254.01 740.782 Q1253.65 739.139 1253.04 737.69 Q1252.43 736.241 1251.11 734.405 Q1249.75 732.537 1247.92 731.056 Q1247.24 730.54 1247.24 730.186 Q1247.24 729.896 1247.53 729.639 Z" fill="#000000" fill-rule="nonzero" fill-opacity="1" /><path clip-path="url(#clip480)" d="M1250.62 703.785 Q1251.82 703.785 1252.58 704.574 Q1253.35 705.341 1253.35 706.333 Q1253.35 707.189 1252.85 707.64 Q1252.36 708.091 1251.73 708.091 Q1250.83 708.091 1250.08 707.392 Q1249.34 706.694 1249.18 705.679 Q1248.64 706.423 1248.64 707.618 Q1248.64 709.579 1250.15 711.315 Q1250.85 712.082 1252.13 712.916 Q1253.4 713.75 1253.94 713.908 L1259.96 715.373 Q1260.63 715.508 1263.88 716.342 Q1267.1 717.154 1267.24 717.222 Q1267.87 717.447 1268.21 717.943 Q1268.55 718.439 1268.55 718.935 Q1268.55 719.499 1268.21 719.882 Q1267.87 720.265 1267.28 720.265 Q1267.19 720.265 1266.85 720.197 Q1266.52 720.13 1266.04 720.017 Q1265.57 719.904 1265.3 719.859 L1254.64 717.177 Q1252.7 716.681 1252.09 716.568 Q1251.46 716.433 1250.76 716.433 Q1249.54 716.433 1249.09 716.816 Q1248.64 717.199 1248.64 717.875 Q1248.64 719.048 1250.04 719.814 Q1251.43 720.581 1254.14 721.234 Q1254.88 721.437 1255.04 721.573 Q1255.2 721.685 1255.2 722.024 Q1255.18 722.587 1254.73 722.587 Q1254.61 722.587 1253.89 722.407 Q1253.15 722.226 1252.07 721.888 Q1250.96 721.528 1250.26 721.144 Q1249.79 720.919 1249.47 720.716 Q1249.16 720.513 1248.66 720.107 Q1248.17 719.701 1247.9 719.093 Q1247.62 718.484 1247.62 717.74 Q1247.62 716.117 1248.62 714.967 Q1249.61 713.795 1251.16 713.524 Q1250.35 712.961 1249.65 712.262 Q1248.93 711.563 1248.28 710.278 Q1247.62 708.993 1247.62 707.618 Q1247.62 705.904 1248.5 704.845 Q1249.36 703.785 1250.62 703.785 Z" fill="#000000" fill-rule="nonzero" fill-opacity="1" /><path clip-path="url(#clip480)" d="M1239.48 677.115 Q1239.48 678.629 1238.68 678.629 Q1237.87 678.629 1237.87 677.051 Q1237.87 676.858 1237.9 676.535 Q1237.93 676.181 1237.93 676.117 L1237.93 657.534 L1219.29 657.534 Q1219.22 657.534 1218.93 657.566 Q1218.61 657.598 1218.42 657.598 Q1216.84 657.598 1216.84 656.825 Q1216.84 656.02 1218.42 656.02 L1237.93 656.02 L1237.93 637.405 Q1237.93 637.341 1237.9 637.019 Q1237.87 636.697 1237.87 636.504 Q1237.87 634.99 1238.68 634.99 Q1239.48 634.958 1239.48 636.568 Q1239.48 636.761 1239.45 637.051 Q1239.42 637.341 1239.42 637.405 L1239.42 656.02 L1259 656.02 Q1260.51 656.02 1260.51 656.825 Q1260.51 657.598 1258.93 657.598 Q1258.74 657.598 1258.42 657.566 Q1258.13 657.534 1258.06 657.534 L1239.42 657.534 L1239.42 676.117 Q1239.42 676.181 1239.45 676.568 Q1239.48 676.922 1239.48 677.115 Z" fill="#000000" fill-rule="nonzero" fill-opacity="1" /><path clip-path="url(#clip480)" d="M1247.53 584.102 Q1247.82 583.844 1248.11 583.844 Q1248.4 583.844 1249.24 584.488 Q1250.08 585.1 1251.2 586.42 Q1252.33 587.741 1253.39 589.448 Q1254.46 591.155 1255.17 593.667 Q1255.91 596.179 1255.91 598.82 Q1255.91 603.747 1252.65 606.646 Q1249.4 609.512 1244.73 609.512 Q1240.19 609.512 1235.84 606.968 Q1231.46 604.423 1228.76 600.301 Q1226.02 596.179 1226.02 591.831 Q1226.02 588.385 1227.63 586.227 Q1229.24 584.069 1231.69 584.069 Q1233.59 584.069 1234.75 585.164 Q1235.91 586.259 1235.91 587.741 Q1235.91 588.771 1235.33 589.48 Q1234.71 590.188 1233.59 590.188 Q1232.14 590.188 1231.01 588.997 Q1230.56 588.546 1230.37 588.031 Q1230.14 587.483 1230.14 587.161 Q1230.11 586.839 1230.11 586.098 Q1228.85 586.775 1228.18 588.385 Q1227.47 589.963 1227.47 591.767 Q1227.47 594.44 1229.34 596.984 Q1231.17 599.528 1234.07 601.074 Q1236.9 602.62 1240.93 603.618 Q1244.92 604.617 1247.24 604.617 Q1250.43 604.617 1252.43 603.135 Q1254.42 601.654 1254.42 598.691 Q1254.42 598.111 1254.39 597.499 Q1254.36 596.855 1254.01 595.245 Q1253.65 593.602 1253.04 592.153 Q1252.43 590.704 1251.11 588.868 Q1249.75 587 1247.92 585.519 Q1247.24 585.003 1247.24 584.649 Q1247.24 584.359 1247.53 584.102 Z" fill="#000000" fill-rule="nonzero" fill-opacity="1" /><path clip-path="url(#clip480)" d="M1245.18 565.26 Q1246.17 565.26 1246.92 566.071 Q1247.64 566.86 1247.64 567.717 Q1247.64 568.506 1247.17 569.002 Q1246.67 569.475 1245.97 569.475 Q1245.05 569.475 1244.28 568.686 Q1243.51 567.897 1243.51 566.973 Q1243.51 566.206 1243.99 565.733 Q1244.46 565.26 1245.18 565.26 M1267.43 564.854 Q1267.61 564.854 1268.33 565.057 Q1269.03 565.26 1270.12 565.755 Q1271.18 566.229 1272.17 566.883 Q1273.16 567.536 1273.86 568.619 Q1274.56 569.678 1274.56 570.896 Q1274.56 572.541 1273.47 573.623 Q1272.39 574.683 1270.77 574.683 Q1269.89 574.683 1267.07 573.623 Q1258.87 570.557 1258.53 570.445 Q1257.24 569.926 1256.12 569.926 Q1255.6 569.926 1255.28 570.039 Q1254.94 570.152 1254.83 570.377 Q1254.7 570.602 1254.67 570.738 Q1254.65 570.85 1254.65 571.076 Q1254.65 572.406 1256 573.646 Q1257.36 574.886 1260.38 575.743 Q1260.94 575.923 1261.08 576.036 Q1261.21 576.148 1261.21 576.486 Q1261.19 577.05 1260.74 577.05 Q1260.6 577.05 1260.08 576.892 Q1259.54 576.734 1258.73 576.441 Q1257.9 576.148 1257.04 575.63 Q1256.16 575.111 1255.39 574.48 Q1254.63 573.826 1254.13 572.902 Q1253.64 571.978 1253.64 570.941 Q1253.64 569.25 1254.74 568.213 Q1255.82 567.153 1257.42 567.153 Q1258.3 567.153 1259.86 567.762 Q1261.89 568.506 1262.54 568.776 L1267.39 570.58 Q1269.15 571.234 1269.69 571.437 Q1270.21 571.617 1270.84 571.775 Q1271.45 571.91 1272.01 571.91 Q1272.8 571.91 1273.16 571.662 Q1273.52 571.392 1273.52 570.805 Q1273.52 569.182 1271.92 567.987 Q1270.3 566.793 1267.82 566.094 Q1267.75 566.071 1267.64 566.049 Q1267.07 565.868 1267 565.688 Q1266.98 565.598 1266.98 565.417 Q1266.98 564.854 1267.43 564.854 Z" fill="#000000" fill-rule="nonzero" fill-opacity="1" /><path clip-path="url(#clip480)" d="M1274.13 550.895 Q1273.85 550.895 1273.14 550.16 Q1263.64 540.832 1245.75 540.832 Q1227.8 540.832 1218.73 549.793 Q1217.68 550.895 1217.37 550.895 Q1216.8 550.895 1216.8 550.33 Q1216.8 549.934 1217.96 548.549 Q1219.12 547.135 1221.78 545.015 Q1224.44 542.867 1227.69 541.284 Q1235.57 537.468 1245.75 537.468 Q1255.53 537.468 1263.42 541.114 Q1266.73 542.669 1269.5 544.846 Q1272.27 547.022 1273.48 548.464 Q1274.7 549.906 1274.7 550.33 Q1274.7 550.895 1274.13 550.895 Z" fill="#000000" fill-rule="nonzero" fill-opacity="1" /><polyline clip-path="url(#clip483)" style="stroke:#009af9; stroke-linecap:round; stroke-linejoin:round; stroke-width:8; stroke-opacity:1; fill:none" points="1481.09,735.212 1488.27,735.212 1495.44,735.212 1502.62,735.212 1509.79,735.212 1516.96,735.212 1524.14,735.212 1531.31,735.212 1538.49,735.212 1545.66,735.212 1552.84,735.212 1560.01,735.212 1567.19,735.212 1574.36,735.212 1581.54,735.212 1588.71,735.212 1595.89,735.212 1603.06,735.212 1610.24,735.212 1617.41,735.212 1624.58,735.212 1631.76,735.212 1638.93,735.212 1646.11,735.212 1653.28,735.212 1660.46,735.212 1667.63,735.212 1674.81,735.212 1681.98,735.212 1689.16,735.212 1696.33,735.212 1703.51,735.212 1710.68,735.212 1717.86,735.212 1725.03,735.212 "/>
<polyline clip-path="url(#clip483)" style="stroke:#e26f46; stroke-linecap:round; stroke-linejoin:round; stroke-width:8; stroke-opacity:1; fill:none" points="1732.21,671.385 1739.38,632.295 1746.55,604.406 1753.73,581.497 1760.9,561.585 1768.08,543.732 1775.25,527.407 1782.43,512.275 1789.6,498.107 1796.78,484.738 1803.95,472.048 1811.13,459.942 1818.3,448.347 1825.48,437.202 1832.65,426.46 1839.83,416.079 1847,406.025 1854.18,396.269 1861.35,386.786 1868.52,377.555 1875.7,368.556 1882.87,359.772 1890.05,351.19 1897.22,342.795 1904.4,334.576 1911.57,326.522 1918.75,318.624 1925.92,310.873 1933.1,303.261 1940.27,295.78 1947.45,288.425 1954.62,281.19 1961.8,274.067 1968.97,267.053 1976.15,260.143 1983.32,253.331 1990.49,246.615 1997.67,239.99 2004.84,233.452 2012.02,226.998 2019.19,220.625 2026.37,214.33 2033.54,208.111 2040.72,201.963 2047.89,195.886 2055.07,189.877 2062.24,183.933 2069.42,178.053 2076.59,172.233 2083.77,166.474 2090.94,160.772 2098.11,155.126 2105.29,149.535 2112.46,143.997 2119.64,138.51 2126.81,133.073 2133.99,127.684 2141.16,122.343 2148.34,117.048 2155.51,111.798 2162.69,106.592 2169.86,101.429 2177.04,96.3076 2184.21,91.2267 2191.39,86.1857 "/>
<polyline clip-path="url(#clip483)" style="stroke:#3da44d; stroke-linecap:round; stroke-linejoin:round; stroke-width:8; stroke-opacity:1; fill:none" points="1732.21,799.039 1739.38,838.129 1746.55,866.018 1753.73,888.927 1760.9,908.839 1768.08,926.692 1775.25,943.016 1782.43,958.149 1789.6,972.317 1796.78,985.686 1803.95,998.376 1811.13,1010.48 1818.3,1022.08 1825.48,1033.22 1832.65,1043.96 1839.83,1054.35 1847,1064.4 1854.18,1074.15 1861.35,1083.64 1868.52,1092.87 1875.7,1101.87 1882.87,1110.65 1890.05,1119.23 1897.22,1127.63 1904.4,1135.85 1911.57,1143.9 1918.75,1151.8 1925.92,1159.55 1933.1,1167.16 1940.27,1174.64 1947.45,1182 1954.62,1189.23 1961.8,1196.36 1968.97,1203.37 1976.15,1210.28 1983.32,1217.09 1990.49,1223.81 1997.67,1230.43 2004.84,1236.97 2012.02,1243.43 2019.19,1249.8 2026.37,1256.09 2033.54,1262.31 2040.72,1268.46 2047.89,1274.54 2055.07,1280.55 2062.24,1286.49 2069.42,1292.37 2076.59,1298.19 2083.77,1303.95 2090.94,1309.65 2098.11,1315.3 2105.29,1320.89 2112.46,1326.43 2119.64,1331.91 2126.81,1337.35 2133.99,1342.74 2141.16,1348.08 2148.34,1353.38 2155.51,1358.63 2162.69,1363.83 2169.86,1368.99 2177.04,1374.12 2184.21,1379.2 2191.39,1384.24 "/>
<polyline clip-path="url(#clip483)" style="stroke:#009af9; stroke-linecap:round; stroke-linejoin:round; stroke-width:8; stroke-opacity:1; fill:none" stroke-dasharray="32, 20" points="1732.21,735.212 1739.38,735.212 1746.55,735.212 1753.73,735.212 1760.9,735.212 1768.08,735.212 1775.25,735.212 1782.43,735.212 1789.6,735.212 1796.78,735.212 1803.95,735.212 1811.13,735.212 1818.3,735.212 1825.48,735.212 1832.65,735.212 1839.83,735.212 1847,735.212 1854.18,735.212 1861.35,735.212 1868.52,735.212 1875.7,735.212 1882.87,735.212 1890.05,735.212 1897.22,735.212 1904.4,735.212 1911.57,735.212 1918.75,735.212 1925.92,735.212 1933.1,735.212 1940.27,735.212 1947.45,735.212 1954.62,735.212 1961.8,735.212 1968.97,735.212 1976.15,735.212 1983.32,735.212 1990.49,735.212 1997.67,735.212 2004.84,735.212 2012.02,735.212 2019.19,735.212 2026.37,735.212 2033.54,735.212 2040.72,735.212 2047.89,735.212 2055.07,735.212 2062.24,735.212 2069.42,735.212 2076.59,735.212 2083.77,735.212 2090.94,735.212 2098.11,735.212 2105.29,735.212 2112.46,735.212 2119.64,735.212 2126.81,735.212 2133.99,735.212 2141.16,735.212 2148.34,735.212 2155.51,735.212 2162.69,735.212 2169.86,735.212 2177.04,735.212 2184.21,735.212 2191.39,735.212 "/>
<path clip-path="url(#clip480)" d="M2242.46 858.836 L2352.76 858.836 L2352.76 651.476 L2242.46 651.476  Z" fill="#ffffff" fill-rule="evenodd" fill-opacity="1"/>
<polyline clip-path="url(#clip480)" style="stroke:#000000; stroke-linecap:round; stroke-linejoin:round; stroke-width:4; stroke-opacity:1; fill:none" points="2242.46,858.836 2352.76,858.836 2352.76,651.476 2242.46,651.476 2242.46,858.836 "/>
<polyline clip-path="url(#clip480)" style="stroke:#009af9; stroke-linecap:round; stroke-linejoin:round; stroke-width:8; stroke-opacity:1; fill:none" points="2252.38,703.316 2311.91,703.316 "/>
<path clip-path="url(#clip480)" d="M2321.84 691.718 L2321.84 690.137 Q2327.91 690.137 2331.05 686.901 Q2331.92 686.901 2332.06 687.099 Q2332.21 687.296 2332.21 688.21 L2332.21 716.595 Q2332.21 718.101 2332.95 718.571 Q2333.69 719.04 2336.93 719.04 L2338.54 719.04 L2338.54 720.596 Q2336.76 720.448 2330.33 720.448 Q2323.91 720.448 2322.16 720.596 L2322.16 719.04 L2323.76 719.04 Q2326.95 719.04 2327.72 718.596 Q2328.48 718.126 2328.48 716.595 L2328.48 690.384 Q2325.84 691.718 2321.84 691.718 Z" fill="#000000" fill-rule="nonzero" fill-opacity="1" /><polyline clip-path="url(#clip480)" style="stroke:#e26f46; stroke-linecap:round; stroke-linejoin:round; stroke-width:8; stroke-opacity:1; fill:none" points="2252.38,755.156 2311.91,755.156 "/>
<path clip-path="url(#clip480)" d="M2321.84 772.436 Q2321.84 771.522 2321.91 771.251 Q2322.01 770.979 2322.4 770.559 L2332.11 759.739 Q2337.42 753.761 2337.42 748.548 Q2337.42 745.164 2335.65 742.743 Q2333.89 740.322 2330.66 740.322 Q2328.43 740.322 2326.55 741.681 Q2324.68 743.039 2323.81 745.46 Q2323.96 745.411 2324.48 745.411 Q2325.74 745.411 2326.43 746.202 Q2327.15 746.992 2327.15 748.054 Q2327.15 749.413 2326.26 750.08 Q2325.39 750.722 2324.53 750.722 Q2324.18 750.722 2323.71 750.648 Q2323.27 750.574 2322.55 749.882 Q2321.84 749.166 2321.84 747.906 Q2321.84 744.373 2324.5 741.557 Q2327.2 738.741 2331.3 738.741 Q2335.94 738.741 2338.98 741.508 Q2342.04 744.25 2342.04 748.548 Q2342.04 750.055 2341.57 751.439 Q2341.13 752.797 2340.51 753.86 Q2339.92 754.922 2338.29 756.626 Q2336.66 758.331 2335.35 759.541 Q2334.04 760.752 2331.1 763.321 L2325.74 768.533 L2334.85 768.533 Q2339.3 768.533 2339.65 768.138 Q2340.14 767.422 2340.76 763.642 L2342.04 763.642 L2340.61 772.436 L2321.84 772.436 Z" fill="#000000" fill-rule="nonzero" fill-opacity="1" /><polyline clip-path="url(#clip480)" style="stroke:#3da44d; stroke-linecap:round; stroke-linejoin:round; stroke-width:8; stroke-opacity:1; fill:none" points="2252.38,806.996 2311.91,806.996 "/>
<path clip-path="url(#clip480)" d="M2321.84 817.458 Q2321.84 815.951 2322.7 815.235 Q2323.57 814.519 2324.68 814.519 Q2325.84 814.519 2326.65 815.284 Q2327.49 816.026 2327.49 817.335 Q2327.49 818.743 2326.51 819.533 Q2325.54 820.324 2324.16 820.126 Q2325.37 822.152 2327.59 823.066 Q2329.84 823.98 2331.92 823.98 Q2334.09 823.98 2335.84 822.103 Q2337.62 820.225 2337.62 815.63 Q2337.62 811.727 2336.09 809.479 Q2334.58 807.231 2331.59 807.231 L2329.37 807.231 Q2328.6 807.231 2328.38 807.157 Q2328.16 807.083 2328.16 806.663 Q2328.16 806.169 2328.93 806.07 Q2329.69 806.07 2330.9 805.922 Q2333.84 805.823 2335.4 803.279 Q2336.81 800.907 2336.81 797.523 Q2336.81 794.435 2335.32 793.15 Q2333.87 791.841 2331.96 791.841 Q2330.19 791.841 2328.23 792.582 Q2326.28 793.323 2325.22 794.978 Q2328.36 794.978 2328.36 797.523 Q2328.36 798.634 2327.64 799.376 Q2326.95 800.092 2325.79 800.092 Q2324.68 800.092 2323.94 799.4 Q2323.19 798.684 2323.19 797.473 Q2323.19 794.583 2325.76 792.582 Q2328.36 790.581 2332.16 790.581 Q2335.92 790.581 2338.68 792.557 Q2341.48 794.534 2341.48 797.572 Q2341.48 800.561 2339.5 803.007 Q2337.52 805.453 2334.39 806.465 Q2338.24 807.231 2340.54 809.85 Q2342.83 812.444 2342.83 815.63 Q2342.83 819.583 2339.72 822.498 Q2336.61 825.388 2332.06 825.388 Q2327.86 825.388 2324.85 823.115 Q2321.84 820.843 2321.84 817.458 Z" fill="#000000" fill-rule="nonzero" fill-opacity="1" /></svg>
